<?xml version="1.0" encoding="UTF-8"?>
<svg version="1.1" xmlns="http://www.w3.org/2000/svg" fill= "#E8EFCF" width="612" height="612">
<path d="M0 0 C1.11873001 -0.01409912 2.23746002 -0.02819824 3.39009094 -0.04272461 C5.21681587 -0.02754288 5.21681587 -0.02754288 7.08044434 -0.01205444 C8.37036789 -0.02081604 9.66029144 -0.02957764 10.98930359 -0.03860474 C14.5204621 -0.06136634 18.05088884 -0.05257553 21.58205986 -0.03670931 C25.28063781 -0.02403366 28.97915391 -0.03579502 32.67773438 -0.04364014 C38.88841988 -0.05273192 45.09880792 -0.04076143 51.30944824 -0.01693726 C58.48570993 0.01027349 65.66126134 0.00145897 72.83750582 -0.02606928 C79.0033006 -0.04877305 85.16888179 -0.05195436 91.33470488 -0.03887594 C95.01535399 -0.03108824 98.69566944 -0.03002062 102.376297 -0.04655838 C106.47992894 -0.06370946 110.58234012 -0.0399273 114.68591309 -0.01205444 C116.51263802 -0.02723618 116.51263802 -0.02723618 118.37626648 -0.04272461 C126.54213747 0.06018816 126.54213747 0.06018816 130.63632202 2.85797119 C132.4899192 5.80460167 133.01426859 7.27110457 133.03015137 10.71304321 C133.04591217 11.6975647 133.06167297 12.68208618 133.07791138 13.69644165 C133.06779022 14.74863892 133.05766907 15.80083618 133.04724121 16.88491821 C133.05202484 17.97578735 133.05680847 19.06665649 133.06173706 20.19058228 C133.06513484 22.49365687 133.05594114 24.79677976 133.03503418 27.09976196 C133.00826931 30.62299239 133.03478873 34.14303677 133.06677246 37.66616821 C133.06346834 39.90575857 133.05706208 42.14534695 133.04724121 44.38491821 C133.05736237 45.43711548 133.06748352 46.48931274 133.07791138 47.57339478 C133.05427017 49.050177 133.05427017 49.050177 133.03015137 50.55679321 C133.0261734 51.41885376 133.02219543 52.28091431 133.01809692 53.1690979 C132.38317871 55.63491821 132.38317871 55.63491821 127.38317871 60.63491821 C115.83317871 60.63491821 104.28317871 60.63491821 92.38317871 60.63491821 C92.38317871 84.39491821 92.38317871 108.15491821 92.38317871 132.63491821 C98.32317871 132.63491821 104.26317871 132.63491821 110.38317871 132.63491821 C121.30935022 136.78281666 126.30989806 141.38586638 131.38317871 151.63491821 C142.36172245 151.86675488 153.33968294 152.04436673 164.32017708 152.15303993 C169.41920627 152.20520307 174.51655955 152.27592936 179.61462402 152.38931274 C184.53606449 152.49808121 189.45589498 152.557781 194.37844467 152.58369064 C196.25493603 152.60214975 198.13134042 152.6382004 200.00714493 152.69221878 C210.08124136 153.41324624 210.08124136 153.41324624 218.76177979 149.46298218 C220.39158921 146.86136556 220.39158921 146.86136556 221.36044312 144.1237793 C223.70414575 138.42030101 230.00534528 135.57802202 235.4243927 133.28981018 C240.57338193 131.56831959 246.35143384 132.11759025 251.73571777 132.13394165 C254.01009839 132.13491904 256.28115466 132.09312457 258.55505371 132.04898071 C260.0107759 132.0437762 261.46650972 132.04108548 262.92224121 132.04116821 C264.88991455 132.03053345 264.88991455 132.03053345 266.89733887 132.01968384 C271.35637326 132.80668248 272.59419316 134.11221428 275.38317871 137.63491821 C275.85440555 140.33761129 276.02154086 142.39848187 275.95080566 145.08731079 C275.9515358 145.81955872 275.95226593 146.55180664 275.95301819 147.3062439 C275.94954829 149.71474567 275.91071999 152.1212877 275.87145996 154.52944946 C275.8621296 156.20381107 275.85501454 157.87818637 275.85002136 159.55256653 C275.83096887 163.95056117 275.78188393 168.34772465 275.72650146 172.74539185 C275.67527076 177.23644773 275.65249921 181.72763846 275.62731934 186.21890259 C275.57376277 195.02462173 275.48847213 203.82966646 275.38317871 212.63491821 C276.53443741 212.62559013 276.53443741 212.62559013 277.70895386 212.61607361 C281.23316259 212.59117721 284.75735273 212.57587353 288.28161621 212.56069946 C290.09230591 212.54577454 290.09230591 212.54577454 291.9395752 212.5305481 C301.72367553 212.4990079 310.87817944 213.353809 320.38317871 215.63491821 C321.06960449 215.79588989 321.75603027 215.95686157 322.46325684 216.12271118 C346.38798003 221.9363519 368.39417065 233.9005925 386.38317871 250.63491821 C386.99048828 251.19839966 387.59779785 251.7618811 388.22351074 252.34243774 C413.80645034 276.35867525 433.06492338 309.96202131 435.38317871 345.63491821 C435.49369471 350.46926588 435.47761896 355.29965561 435.44567871 360.13491821 C435.44116699 361.43429321 435.43665527 362.73366821 435.43200684 364.07241821 C435.42028791 367.25996647 435.4038809 370.44741776 435.38317871 373.63491821 C436.4182959 373.74835571 437.45341309 373.86179321 438.51989746 373.97866821 C449.90416865 375.9124979 459.42956081 383.30265425 466.41833496 392.23648071 C474.23834692 403.75896118 476.03883167 415.06764475 476.38317871 428.63491821 C480.07208047 430.34619575 482.71503483 430.79832453 486.75817871 430.57241821 C491.84580777 430.47629567 494.97110015 431.10031989 499.38317871 433.63491821 C502.20858228 437.87302356 502.16090192 441.65907687 501.38317871 446.63491821 C499.16613411 449.73878066 497.77409804 451.27196788 494.06286621 452.24038696 C479.30794527 454.41275871 468.26552464 450.20013042 456.50817871 441.50991821 C454.37761044 439.63000503 452.39160361 437.64334311 450.38317871 435.63491821 C447.56316544 434.22491158 445.51310616 434.38943371 442.38317871 434.63491821 C439.3613158 436.03529371 437.45731628 437.55872127 435.13317871 439.94741821 C426.91853977 447.97536082 417.23166715 452.70009597 405.69567871 452.88491821 C393.12655034 452.73107331 382.43853525 447.21367704 373.38317871 438.63491821 C373.38317871 437.97491821 373.38317871 437.31491821 373.38317871 436.63491821 C369.55048614 434.83129818 366.61468536 434.19413627 362.38317871 434.63491821 C359.36140791 436.03525102 357.42714291 437.59095402 355.07067871 439.94741821 C346.61582128 448.40227564 337.33378268 452.71311784 325.19567871 453.07241821 C311.13774242 452.49975589 300.11999793 445.37173743 290.38317871 435.63491821 C287.56316544 434.22491158 285.51310616 434.38943371 282.38317871 434.63491821 C279.3613158 436.03529371 277.45731628 437.55872127 275.13317871 439.94741821 C266.91853977 447.97536082 257.23166715 452.70009597 245.69567871 452.88491821 C231.37862753 452.70967891 220.2814124 445.53315191 210.38317871 435.63491821 C207.40854534 434.14760153 205.71039028 434.20361301 202.38317871 434.63491821 C199.49313209 436.36058655 196.96904644 438.4881601 194.38317871 440.63491821 C183.00626973 449.66561639 172.16467631 454.08586276 157.38317871 452.63491821 C145.75011769 450.24027641 137.63976939 444.94852544 129.01208496 437.05288696 C126.7494739 435.08327589 125.60004892 434.65419556 122.57067871 434.38491821 C117.81241191 434.75811561 115.41738098 436.57198811 112.13317871 439.94741821 C102.92758346 448.94379539 92.49870665 453.05386317 79.70739746 452.91226196 C66.73040424 451.8295751 57.34309739 445.59217712 48.01208496 437.05288696 C45.66684136 435.01134397 44.39924502 434.6371675 41.25817871 434.19741821 C35.37397084 434.86176426 31.94410723 438.20203612 27.74255371 442.19351196 C19.8024996 449.61322272 9.29216137 452.98285977 -1.46447754 452.85757446 C-4.46847717 452.54681588 -6.29685702 451.5330708 -8.61682129 449.63491821 C-11.04524992 445.99227527 -10.90496041 443.30509281 -10.89097595 439.09466553 C-10.89883097 437.93229994 -10.89883097 437.93229994 -10.90684468 436.74645221 C-10.9218842 434.14167689 -10.92255069 431.53709731 -10.92321777 428.93228149 C-10.93083659 427.06805081 -10.9392636 425.20382328 -10.94844055 423.33959961 C-10.9704194 418.26934928 -10.97918895 413.19915927 -10.984267 408.12886667 C-10.98790645 404.96270306 -10.99414434 401.79655536 -11.00126839 398.6303978 C-11.02577425 387.58909153 -11.03881732 376.54783232 -11.0423584 365.50650024 C-11.04599497 355.20732448 -11.07589623 344.90844649 -11.11776298 334.60936177 C-11.15242792 325.7727678 -11.16790618 316.93627269 -11.16860443 308.09961116 C-11.16939852 302.81931569 -11.17819755 297.53932341 -11.2066021 292.25909805 C-11.23271781 287.29317601 -11.23502434 282.32780992 -11.21894646 277.36185074 C-11.2171268 275.53852123 -11.2238691 273.71516023 -11.23976517 271.89189911 C-11.26013753 269.40364959 -11.24972778 266.91736151 -11.23155212 264.42913818 C-11.24475209 263.70646857 -11.25795206 262.98379896 -11.27155203 262.23923028 C-11.20667289 258.35441539 -10.71068735 256.75098678 -8.23465061 253.68928337 C-5.38880466 251.45598011 -4.1792317 250.95425555 -0.61682129 251.00991821 C0.20817871 250.99702759 1.03317871 250.98413696 1.88317871 250.97085571 C5.53844582 251.94178604 7.0011033 253.73508422 9.38317871 256.63491821 C10.01403522 259.92072773 10.01403522 259.92072773 10.02241516 263.72801208 C10.03077084 264.43057166 10.03912651 265.13313124 10.04773539 265.8569805 C10.06963815 268.20509885 10.05606821 270.55164902 10.04260254 272.89981079 C10.05105655 274.58526801 10.06170102 276.27071545 10.07437134 277.95614624 C10.10253448 282.52815448 10.10004313 287.09969383 10.09207749 291.6717627 C10.08895413 296.45111159 10.11398179 301.23031069 10.1360321 306.00959778 C10.17349821 315.05823771 10.18562162 324.10672734 10.18865651 333.15543717 C10.19334455 343.45772706 10.22625971 353.75986614 10.26155436 364.06208956 C10.33352006 385.25301529 10.37001063 406.44387975 10.38317871 427.63491821 C11.20524307 426.91046257 11.20524307 426.91046257 12.04391479 426.17137146 C13.12329819 425.22290596 13.12329819 425.22290596 14.2244873 424.25527954 C14.93753021 423.62793411 15.65057312 423.00058868 16.38522339 422.35423279 C18.5090739 420.52658074 20.67473364 418.87367852 23.00817871 417.32241821 C23.70169434 416.8519104 24.39520996 416.38140259 25.10974121 415.89663696 C33.05342884 411.48802682 42.43132811 411.47761393 51.19567871 413.18179321 C57.71428245 415.39644705 62.28179541 419.78371822 67.13317871 424.49038696 C69.18959107 426.66036393 69.18959107 426.66036393 71.38317871 427.63491821 C71.71317871 306.52491821 72.04317871 185.41491821 72.38317871 60.63491821 C51.59317871 60.63491821 30.80317871 60.63491821 9.38317871 60.63491821 C9.44118652 68.9506604 9.49919434 77.26640259 9.55895996 85.83413696 C9.58775111 91.76709024 9.61338313 97.69999112 9.63444805 103.63296986 C9.66216631 111.32119474 9.69736784 119.00914871 9.76037598 126.69717407 C9.81556178 133.43396198 9.84458905 140.17039605 9.85756493 146.9074192 C9.86681369 149.47950674 9.8848741 152.05157796 9.91182899 154.62354088 C9.94805021 158.22233315 9.95312667 161.81990896 9.95080566 165.41885376 C9.96878204 166.48556305 9.98675842 167.55227234 10.00527954 168.65130615 C9.95475956 175.87588598 9.95475956 175.87588598 7.00395203 179.79441833 C4.16981285 181.78475942 2.80952817 182.31345492 -0.61682129 182.25991821 C-1.44182129 182.27280884 -2.26682129 182.28569946 -3.11682129 182.29898071 C-6.77100449 181.3283383 -8.23474533 179.53297958 -10.61682129 176.63491821 C-11.24602699 173.36307526 -11.24602699 173.36307526 -11.2517395 169.57546997 C-11.25953946 168.87643822 -11.26733941 168.17740647 -11.27537572 167.45719194 C-11.29527992 165.1207116 -11.27953933 162.78586302 -11.26379395 160.44937134 C-11.27057084 158.77202912 -11.27947438 157.09469434 -11.29034424 155.41737366 C-11.31313582 150.86564068 -11.30430194 146.31447442 -11.28844881 141.76273155 C-11.27578905 136.99912362 -11.28753013 132.23556418 -11.29537964 127.47195435 C-11.30447598 119.47231332 -11.29248869 111.4729031 -11.26867676 103.47329712 C-11.24146548 94.22488995 -11.25027966 84.9770339 -11.27780879 75.72864008 C-11.30049929 67.78792685 -11.30370023 59.84737952 -11.29061544 51.90664434 C-11.2828206 47.164086 -11.28178022 42.42178669 -11.29829788 37.679245 C-11.31274257 33.22044644 -11.30272129 28.76235835 -11.2738266 24.30363655 C-11.26721573 22.66738629 -11.26911356 21.03107624 -11.28013992 19.39484978 C-11.29380838 17.1605486 -11.27666872 14.92852264 -11.2517395 12.69436646 C-11.24985437 11.44445671 -11.24796925 10.19454697 -11.24602699 8.90676117 C-10.02945169 2.58062121 -6.23118438 0.01211381 0 0 Z M9.38317871 20.63491821 C9.38317871 27.23491821 9.38317871 33.83491821 9.38317871 40.63491821 C43.37317871 40.63491821 77.36317871 40.63491821 112.38317871 40.63491821 C112.38317871 34.03491821 112.38317871 27.43491821 112.38317871 20.63491821 C78.39317871 20.63491821 44.40317871 20.63491821 9.38317871 20.63491821 Z M92.38317871 152.63491821 C92.38317871 198.83491821 92.38317871 245.03491821 92.38317871 292.63491821 C101.71847034 293.03166417 101.71847034 293.03166417 109.38317871 289.63491821 C112.90431083 283.53125299 112.81008242 277.85966549 112.7713623 270.93569946 C112.77924774 269.19538956 112.77924774 269.19538956 112.78729248 267.41992188 C112.80046569 263.5956159 112.79176344 259.77172822 112.78161621 255.94741821 C112.78363771 253.28375738 112.78654545 250.62010911 112.79031372 247.95645142 C112.79576182 242.37819918 112.78860462 236.80006635 112.77429199 231.22183228 C112.75796719 224.78529827 112.76325638 218.34904942 112.77977121 211.91252232 C112.79341316 206.37259015 112.79529255 200.8327435 112.7874552 195.29279995 C112.7827935 191.99000543 112.78330121 188.68737326 112.79206467 185.38458252 C112.79969405 181.70090534 112.78805306 178.01777359 112.7713623 174.33413696 C112.777435 173.24821259 112.78350769 172.16228821 112.7897644 171.04345703 C112.74041201 165.15577512 112.35243029 160.78193257 109.38317871 155.63491821 C103.38701408 151.84142631 100.0499266 152.63491821 92.38317871 152.63491821 Z M238.38317871 155.63491821 C235.52581155 160.93097764 234.94329554 165.23569909 234.9666748 171.1847229 C234.95808945 172.00997971 234.94950409 172.83523651 234.94065857 173.6855011 C234.91571748 176.39268684 234.91123086 179.09950335 234.90661621 181.80679321 C234.89229708 183.69533395 234.87653843 185.58386428 234.85940552 187.47238159 C234.8176474 192.42939186 234.79258592 197.38633753 234.77191162 202.34347534 C234.73602397 210.29155386 234.67513392 218.23947318 234.61342239 226.18738556 C234.59432972 228.96325136 234.58260372 231.73907445 234.57199097 234.51498413 C234.56178155 236.21088759 234.55142386 237.90679016 234.54089355 239.60269165 C234.53985123 240.37572128 234.5388089 241.14875092 234.53773499 241.94520569 C234.51342177 245.10715781 234.39063243 247.61255704 233.38317871 250.63491821 C230.43491108 251.61767409 228.45665367 251.76906546 225.38317871 251.75991821 C224.08380371 251.7637854 224.08380371 251.7637854 222.75817871 251.76773071 C220.38317871 251.63491821 220.38317871 251.63491821 217.38317871 250.63491821 C216.22549147 247.16185648 216.20800328 244.0240741 216.17785645 240.40957642 C216.16782372 239.66580089 216.157791 238.92202536 216.14745426 238.15571117 C216.11608204 235.74907225 216.0913034 233.34241684 216.06677246 230.93569946 C216.04836784 229.44948796 216.02953109 227.96328174 216.01025391 226.4770813 C215.94182207 220.96725619 215.88175914 215.45732972 215.82067871 209.94741821 C215.67630371 197.63429321 215.53192871 185.32116821 215.38317871 172.63491821 C187.99317871 172.63491821 160.60317871 172.63491821 132.38317871 172.63491821 C132.38317871 205.63491821 132.38317871 238.63491821 132.38317871 272.63491821 C164.499954 272.92425317 164.499954 272.92425317 196.61682129 273.20303345 C202.82397461 273.26199341 202.82397461 273.26199341 205.72843933 273.29081726 C207.75995805 273.31005703 209.79149552 273.32737468 211.82304382 273.34318542 C214.89759329 273.36748465 217.97202837 273.39785402 221.04650879 273.42959595 C221.95381398 273.4353662 222.86111917 273.44113646 223.79591846 273.44708157 C225.03640713 273.46174261 225.03640713 273.46174261 226.30195618 273.47669983 C227.38183666 273.48637866 227.38183666 273.48637866 228.48353291 273.49625301 C230.38317871 273.63491821 230.38317871 273.63491821 233.38317871 274.63491821 C234.15661621 277.18179321 234.15661621 277.18179321 234.75817871 280.38491821 C235.97459433 285.74096816 236.88722898 288.45485621 241.38317871 291.63491821 C246.31289861 293.03914425 246.31289861 293.03914425 255.38317871 292.63491821 C255.38317871 246.43491821 255.38317871 200.23491821 255.38317871 152.63491821 C246.04788708 152.23817226 246.04788708 152.23817226 238.38317871 155.63491821 Z M275.38317871 232.63491821 C275.38317871 246.16491821 275.38317871 259.69491821 275.38317871 273.63491821 C279.34317871 274.95491821 283.30317871 276.27491821 287.38317871 277.63491821 C300.78241184 284.15990022 308.32518066 294.74570652 313.43884277 308.46768188 C315.05091256 314.26731085 314.70860116 320.33231463 314.71911621 326.30288696 C314.72577301 327.61525833 314.73242981 328.9276297 314.73928833 330.2797699 C314.75120994 333.04589129 314.75497396 335.8118882 314.75378418 338.57803345 C314.75358011 342.1190142 314.78099436 345.65920033 314.8153286 349.19999218 C314.84290918 352.58846975 314.84174474 355.97679854 314.84411621 359.36538696 C314.85848724 360.6352092 314.87285828 361.90503143 314.88766479 363.21333313 C314.88151154 364.39168228 314.87535828 365.57003143 314.86901855 366.78408813 C314.87186859 367.81998581 314.87471863 368.85588348 314.87765503 369.923172 C314.2560292 373.33221594 313.03851196 374.48388435 310.38317871 376.63491821 C307.46102389 378.09599563 305.67119471 377.92849107 302.38317871 377.63491821 C300.87028374 376.99805618 299.37134397 376.3276004 297.88317871 375.63491821 C290.21721271 372.39740618 281.29658587 372.09012624 273.50817871 375.19741821 C264.55037326 379.95156077 259.55113045 386.13106301 256.38317871 395.63491821 C255.73168105 403.94418347 255.66960756 411.49362146 260.38317871 418.63491821 C261.35264726 419.66454471 262.3452648 420.6743274 263.38317871 421.63491821 C263.96325684 421.22499634 264.54333496 420.81507446 265.14099121 420.39273071 C265.92216309 419.85390259 266.70333496 419.31507446 267.50817871 418.75991821 C268.27388184 418.22624634 269.03958496 417.69257446 269.82849121 417.14273071 C277.57763575 412.5690766 286.40429112 412.50633857 295.09411621 414.14663696 C301.26203636 416.19262989 305.53217655 420.10791372 310.01062012 424.66152954 C314.05649943 428.70531544 317.92781598 431.01550345 323.60583496 432.03335571 C328.32563658 431.97323085 331.28018944 430.83481884 335.38317871 428.63491821 C335.38741065 428.06561931 335.39164259 427.4963204 335.39600277 426.90977001 C335.49926165 413.06398186 335.60795434 399.21824558 335.72251797 385.3725462 C335.77775491 378.6768985 335.83129704 371.98124791 335.88049316 365.28555298 C335.92812524 358.82758012 335.98046774 352.36966126 336.03611946 345.9117527 C336.05654824 343.44413403 336.07526044 340.97650055 336.09225273 338.50885582 C336.11628505 335.06083176 336.14634141 331.61291014 336.17785645 328.16494751 C336.18361191 327.13780136 336.18936737 326.11065521 336.19529724 325.05238342 C336.20508606 324.11428833 336.21487488 323.17619324 336.22496033 322.20967102 C336.23141288 321.39388423 336.23786543 320.57809744 336.24451351 319.73758984 C336.38317871 317.63491821 336.38317871 317.63491821 337.38317871 314.63491821 C340.33144634 313.65216234 342.30970375 313.50077097 345.38317871 313.50991821 C346.24942871 313.50734009 347.11567871 313.50476196 348.00817871 313.50210571 C350.38317871 313.63491821 350.38317871 313.63491821 353.38317871 314.63491821 C354.2774379 317.31769577 354.5162068 318.88727365 354.54139709 321.64021301 C354.55118591 322.45209579 354.56097473 323.26397858 354.57106018 324.10046387 C354.57681564 324.98734894 354.58257111 325.87423401 354.58850098 326.78799438 C354.59840057 327.72477524 354.60830017 328.66155609 354.61849976 329.62672424 C354.6501196 332.72708599 354.67487418 335.82746307 354.69958496 338.92788696 C354.72015406 341.07594707 354.74115052 343.22400313 354.76255798 345.37205505 C354.81778314 351.02895834 354.86719051 356.68589819 354.91540527 362.34286499 C354.96561702 368.11407733 355.02130479 373.88523651 355.07653809 379.65640259 C355.18412513 390.98253076 355.28506299 402.30870403 355.38317871 413.63491821 C361.98317871 413.63491821 368.58317871 413.63491821 375.38317871 413.63491821 C375.44376465 411.0709729 375.50435059 408.50702759 375.56677246 405.86538696 C375.6285745 403.38317959 375.69195696 400.90101727 375.75549316 398.41885376 C375.79881433 396.69330857 375.84049144 394.96772128 375.88049316 393.24209595 C375.93826397 390.76223057 376.00193874 388.28257649 376.06677246 385.80288696 C376.08348495 385.03091476 376.10019745 384.25894257 376.11741638 383.46357727 C376.20545766 380.28308888 376.37063066 377.67256238 377.38317871 374.63491821 C380.33144634 373.65216234 382.30970375 373.50077097 385.38317871 373.50991821 C386.24942871 373.50734009 387.11567871 373.50476196 388.00817871 373.50210571 C390.38317871 373.63491821 390.38317871 373.63491821 393.38317871 374.63491821 C394.36421159 377.57801685 394.53539558 379.58460851 394.58850098 382.65713501 C394.6084462 383.67796677 394.62839142 384.69879852 394.64894104 385.75056458 C394.67400978 387.40068291 394.67400978 387.40068291 394.69958496 389.08413696 C394.72036606 390.21189041 394.74114716 391.33964386 394.76255798 392.50157166 C394.82800718 396.10845781 394.88691715 399.7154175 394.94567871 403.32241821 C394.98886832 405.76578523 395.03248275 408.20914478 395.07653809 410.65249634 C395.18368387 416.64655896 395.285459 422.64069492 395.38317871 428.63491821 C400.18781091 431.20056459 403.92941776 432.538743 409.38317871 431.63491821 C415.01197942 429.82681397 418.60962026 426.61080828 422.59802246 422.37710571 C429.14454702 415.98815614 436.74592944 413.52004553 445.75817871 413.00991821 C447.62603027 412.89776978 447.62603027 412.89776978 449.53161621 412.78335571 C450.47263184 412.73437134 451.41364746 412.68538696 452.38317871 412.63491821 C451.59445167 406.33621072 447.87482253 402.8497882 443.38317871 398.63491821 C437.695098 394.28154065 430.55326319 393.4829073 423.67614746 392.24819946 C420.38317871 391.63491821 420.38317871 391.63491821 417.38317871 390.63491821 C416.1240042 386.85739469 416.11667667 383.23662892 415.98864746 379.29507446 C415.92297228 377.58417746 415.85619905 375.87332233 415.78845215 374.1625061 C415.73618469 372.82229904 415.73618469 372.82229904 415.68286133 371.45501709 C414.8467705 349.29210054 414.8467705 349.29210054 410.38317871 327.63491821 C410.17708984 326.92013306 409.97100098 326.2053479 409.75866699 325.46890259 C399.45105995 290.83780997 375.38561249 263.96436381 344.00817871 246.82241821 C322.35591425 235.48537309 299.59937614 232.63491821 275.38317871 232.63491821 Z M126.97399902 297.99038696 C126.55096497 298.9587146 126.12793091 299.92704224 125.69207764 300.92471313 C122.79236884 306.92884787 116.26872983 309.28069776 110.38317871 311.63491821 C104.44317871 311.96491821 98.50317871 312.29491821 92.38317871 312.63491821 C92.38317871 350.91491821 92.38317871 389.19491821 92.38317871 428.63491821 C94.69317871 426.65491821 97.00317871 424.67491821 99.38317871 422.63491821 C107.96649156 415.48475379 114.59202918 412.9769858 125.92614746 413.30288696 C135.64459658 414.23629733 140.80907148 418.68474961 147.71911621 425.28335571 C152.37261432 429.39098894 157.21030568 431.74487916 163.44567871 432.07241821 C171.5796711 431.16864128 175.73102851 428.52564209 181.75817871 423.19741821 C190.33627505 415.6811617 197.35081062 412.83131899 209.00036621 413.27163696 C218.2546677 414.26545918 223.47484439 418.31913875 229.9666748 424.69009399 C234.21887509 428.76771714 237.68494043 430.40029992 243.38317871 431.63491821 C242.37978911 429.11969495 241.3717004 426.60680717 240.34802246 424.09976196 C239.8394873 422.84872681 239.8394873 422.84872681 239.32067871 421.57241821 C238.97907715 420.73581665 238.63747559 419.89921509 238.28552246 419.03726196 C234.28602692 408.38925435 234.85317959 393.73878841 239.06286621 383.30288696 C246.31555316 368.64730949 256.10176981 359.93266519 271.59802246 354.50991821 C276.35847621 353.40946244 280.95045033 353.17821984 285.82067871 353.00991821 C286.74300293 352.97124634 287.66532715 352.93257446 288.61560059 352.89273071 C290.87127014 352.79923146 293.12694787 352.71347912 295.38317871 352.63491821 C295.43318917 348.5456014 295.46918228 344.4564068 295.49304199 340.36685181 C295.50300474 338.98010145 295.51657989 337.59337156 295.53405762 336.20669556 C295.68568758 323.85331342 295.77451029 311.22118601 286.60583496 301.81069946 C281.62681889 297.23557995 281.62681889 297.23557995 275.38317871 295.63491821 C275.32259277 296.46636353 275.26200684 297.29780884 275.19958496 298.15444946 C275.1157959 299.24112915 275.03200684 300.32780884 274.94567871 301.44741821 C274.8238623 303.06583618 274.8238623 303.06583618 274.69958496 304.71694946 C274.38317871 307.63491821 274.38317871 307.63491821 273.38317871 310.63491821 C268.04793542 312.41333264 262.30432351 311.98014071 256.71691895 312.03994751 C255.2186353 312.06136767 253.72047121 312.09527758 252.22277832 312.14248657 C242.05681466 312.45936242 233.99845671 311.7843831 225.38317871 305.63491821 C222.2963665 302.41339521 220.02544272 299.18091567 218.31121826 295.05459595 C216.51533324 292.26170177 216.51533324 292.26170177 212.84259033 291.95962524 C211.34598273 291.91157484 209.84833031 291.8913847 208.35095215 291.89273071 C207.53270462 291.87433136 206.71445709 291.85593201 205.87141418 291.8369751 C203.16144246 291.78430688 200.4529989 291.76974094 197.74255371 291.75991821 C195.85788379 291.74131264 193.97321979 291.72209843 192.08856201 291.70230103 C188.13406339 291.66782188 184.18010504 291.65458958 180.22546387 291.6534729 C175.16544308 291.64839837 170.10950411 291.56985761 165.05053329 291.47241211 C161.15550903 291.40918939 157.26146384 291.39599291 153.36597443 291.39657593 C151.50156886 291.38884369 149.63714612 291.36318752 147.77324677 291.31906128 C135.60341041 290.59556932 135.60341041 290.59556932 126.97399902 297.99038696 Z " fill="#E8EFCF" transform="translate(10.6168212890625,-0.634918212890625)"/>
<path d="M0 0 C2.54143456 2.05564727 4.98354347 4.21637741 7.4375 6.375 C13.29263013 11.36561427 18.08102807 12.87902636 25.7890625 12.66015625 C33.6603394 11.42963363 39.02592662 5.114398 44.6796875 -0.046875 C50.37412807 -4.76095401 57.28935173 -6.16062897 64.57421875 -6.0234375 C74.6891938 -5.07019378 81.07045861 -0.10541716 88.4375 6.375 C94.29909552 11.37112504 99.01111644 12.81721725 106.71484375 12.59765625 C114.56097692 11.55876094 119.74803408 7.55604358 124.9609375 1.8984375 C131.12218459 -3.79486677 139.31885398 -6.17890576 147.57421875 -6.0234375 C158.86157459 -4.95970763 165.91867415 1.30142836 173.953125 8.671875 C178.63763237 12.49033899 182.78858838 12.74014877 188.71875 12.625 C196.63351016 11.50574099 202.01629241 5.123193 207.6796875 -0.046875 C213.37412807 -4.76095401 220.28935173 -6.16062897 227.57421875 -6.0234375 C238.86157459 -4.95970763 245.91867415 1.30142836 253.953125 8.671875 C258.63763237 12.49033899 262.78858838 12.74014877 268.71875 12.625 C276.63351016 11.50574099 282.01629241 5.123193 287.6796875 -0.046875 C293.37412807 -4.76095401 300.28935173 -6.16062897 307.57421875 -6.0234375 C318.86157459 -4.95970763 325.91867415 1.30142836 333.953125 8.671875 C338.63763237 12.49033899 342.78858838 12.74014877 348.71875 12.625 C356.63351016 11.50574099 362.01629241 5.123193 367.6796875 -0.046875 C373.37412807 -4.76095401 380.28935173 -6.16062897 387.57421875 -6.0234375 C398.86157459 -4.95970763 405.91867415 1.30142836 413.953125 8.671875 C418.90021162 12.70437418 423.73294332 12.53304404 429.88085938 12.578125 C434.80138423 12.74414083 437.35069426 13.67971202 440.8125 17.1875 C442.54881636 20.66013273 442.41440402 24.39943013 441.8125 28.1875 C439.63090855 30.94319447 437.94072506 32.62338747 434.8125 34.1875 C420.08009701 35.1158849 409.75096904 33.34104588 397.8125 24.1875 C396.40618902 22.92827108 395.01006309 21.65756317 393.625 20.375 C391.20978993 18.22283261 389.76424192 17.16916193 386.6875 16 C380.92785894 16.37562877 377.49411134 20.46488068 373.4375 24.1875 C369.51462755 27.73456786 365.73427017 30.26448728 360.8125 32.1875 C359.92433594 32.54328125 359.03617187 32.8990625 358.12109375 33.265625 C349.07376445 35.78648653 337.4545091 35.59557906 328.97265625 31.44921875 C323.37938037 28.18226014 318.38735975 24.78492706 313.625 20.375 C311.20978993 18.22283261 309.76424192 17.16916193 306.6875 16 C300.92785894 16.37562877 297.49411134 20.46488068 293.4375 24.1875 C289.51462755 27.73456786 285.73427017 30.26448728 280.8125 32.1875 C279.92433594 32.54328125 279.03617187 32.8990625 278.12109375 33.265625 C269.07376445 35.78648653 257.4545091 35.59557906 248.97265625 31.44921875 C243.37938037 28.18226014 238.38735975 24.78492706 233.625 20.375 C231.20978993 18.22283261 229.76424192 17.16916193 226.6875 16 C220.92785894 16.37562877 217.49411134 20.46488068 213.4375 24.1875 C209.51462755 27.73456786 205.73427017 30.26448728 200.8125 32.1875 C199.92433594 32.54328125 199.03617187 32.8990625 198.12109375 33.265625 C189.07376445 35.78648653 177.4545091 35.59557906 168.97265625 31.44921875 C163.37938037 28.18226014 158.38735975 24.78492706 153.625 20.375 C151.20978993 18.22283261 149.76424192 17.16916193 146.6875 16 C142.04996174 16.30244815 139.35185542 18.72245829 136.11328125 21.8046875 C125.43649049 31.87713162 113.58255037 34.70168892 99.37109375 34.4609375 C87.5573411 33.97122315 78.56074198 27.56528215 70.0625 19.8125 C67.06209588 17.19856479 64.93136078 16.01222933 60.8125 16.1875 C56.75672833 18.26044997 53.78249227 21.11791018 50.4375 24.1875 C46.51462755 27.73456786 42.73427017 30.26448728 37.8125 32.1875 C36.47832031 32.72117187 36.47832031 32.72117187 35.1171875 33.265625 C24.80295776 36.14288058 12.22078758 35.29614023 2.8125 30.1875 C-2.15391503 27.1532849 -6.61023578 23.7638183 -10.875 19.8125 C-14.17369892 16.93194602 -16.70593545 16.02453402 -21.1875 16.1875 C-24.18016579 17.71566977 -26.46867717 19.51573329 -28.91796875 21.8046875 C-38.67430914 30.85696209 -48.71397234 34.68001543 -61.87890625 34.515625 C-65.1875 34.1875 -65.1875 34.1875 -68.5625 32.3125 C-70.88639119 27.84347848 -71.13743545 24.11579757 -70.1875 19.1875 C-68.5 16.25 -68.5 16.25 -65.1875 14.1875 C-61.96793409 13.35775952 -58.73149453 12.70842731 -55.47265625 12.05078125 C-48.78583922 10.29360341 -44.09400875 6.05048497 -39.0625 1.5 C-28.30549382 -8.18772127 -11.61899363 -8.54601655 0 0 Z " fill="#E8EFCF" transform="translate(70.1875,477.8125)"/>
<path d="M0 0 C1.71128334 -0.01073296 1.71128334 -0.01073296 3.45713806 -0.02168274 C5.87205219 -0.02946245 8.28703659 -0.02444206 10.7019043 -0.00756836 C14.36580443 0.0115283 18.02584319 -0.02759648 21.68945312 -0.07226562 C24.04297098 -0.07255628 26.39649226 -0.06940881 28.75 -0.0625 C29.83168961 -0.07778244 30.91337921 -0.09306488 32.02784729 -0.10881042 C40.83669967 0.02352862 48.59867471 2.58655767 55.34681702 8.44013977 C56.92177339 10.09795893 58.126456 11.76261976 59.33984375 13.69921875 C59.74976563 14.32054687 60.1596875 14.941875 60.58203125 15.58203125 C64.43010514 22.56164113 64.59038899 30.9596692 63.33984375 38.69921875 C60.93886204 46.27546138 57.12678214 52.44682167 50.33984375 56.69921875 C49.71851563 57.10914063 49.0971875 57.5190625 48.45703125 57.94140625 C41.46857727 61.79435616 33.08745986 61.93652461 25.33984375 60.69921875 C12.98848674 56.87085696 6.73467132 47.49556044 -0.53515625 37.44921875 C-5.40096318 30.68388515 -5.40096318 30.68388515 -10.56640625 24.1484375 C-14.961996 18.7860962 -17.68057469 15.03629092 -17.46484375 7.953125 C-14.43830955 -0.52410915 -7.69315775 -0.04902982 0 0 Z M14.33984375 20.69921875 C20.51040923 31.5676972 20.51040923 31.5676972 29.33984375 39.69921875 C35.21548669 40.29342718 35.21548669 40.29342718 40.33984375 37.69921875 C42.56174211 34.36637121 43.08434173 32.55846674 42.83203125 28.6328125 C41.97842205 25.2793478 40.03281035 23.7189437 37.33984375 21.69921875 C34.44827487 20.74521044 31.82531909 20.58107365 28.79296875 20.6015625 C27.94863281 20.60478516 27.10429687 20.60800781 26.234375 20.61132812 C25.36167969 20.61970703 24.48898437 20.62808594 23.58984375 20.63671875 C22.70167969 20.64123047 21.81351562 20.64574219 20.8984375 20.65039062 C18.71217046 20.66214475 16.52604196 20.67857626 14.33984375 20.69921875 Z " fill="#E8EFCF" transform="translate(442.66015625,231.30078125)"/>
<path d="M0 0 C3.125 1.875 3.125 1.875 5 5 C5.98876625 10.02622846 5.7769173 13.70513784 3.125 18.125 C-1.29486216 20.7769173 -4.97377154 20.98876625 -10 20 C-13.125 18.125 -13.125 18.125 -15 15 C-15.98876625 9.97377154 -15.7769173 6.29486216 -13.125 1.875 C-8.70513784 -0.7769173 -5.02622846 -0.98876625 0 0 Z " fill="#E8EFCF" transform="translate(221,372)"/>
<path d="M0 0 C3.125 1.875 3.125 1.875 5 5 C5.98876625 10.02622846 5.7769173 13.70513784 3.125 18.125 C-1.29486216 20.7769173 -4.97377154 20.98876625 -10 20 C-13.125 18.125 -13.125 18.125 -15 15 C-15.98876625 9.97377154 -15.7769173 6.29486216 -13.125 1.875 C-8.70513784 -0.7769173 -5.02622846 -0.98876625 0 0 Z " fill="#E8EFCF" transform="translate(501,352)"/>
<path d="M0 0 C3.125 1.875 3.125 1.875 5 5 C5.98876625 10.02622846 5.7769173 13.70513784 3.125 18.125 C-1.29486216 20.7769173 -4.97377154 20.98876625 -10 20 C-13.125 18.125 -13.125 18.125 -15 15 C-15.98876625 9.97377154 -15.7769173 6.29486216 -13.125 1.875 C-8.70513784 -0.7769173 -5.02622846 -0.98876625 0 0 Z " fill="#E8EFCF" transform="translate(401,332)"/>
<path d="M0 0 C3.125 1.875 3.125 1.875 5 5 C5.98876625 10.02622846 5.7769173 13.70513784 3.125 18.125 C-1.29486216 20.7769173 -4.97377154 20.98876625 -10 20 C-13.125 18.125 -13.125 18.125 -15 15 C-15.98876625 9.97377154 -15.7769173 6.29486216 -13.125 1.875 C-8.70513784 -0.7769173 -5.02622846 -0.98876625 0 0 Z " fill="#E8EFCF" transform="translate(15,206)"/>
</svg>
