<?xml version="1.0" encoding="UTF-8"?>
<svg version="1.1" xmlns="http://www.w3.org/2000/svg" width="512" height="512" fill= "#E8EFCF">
<path d="M0 0 C0.71829638 -0.00367669 1.43659277 -0.00735338 2.17665571 -0.01114148 C4.59006263 -0.02217805 7.00342648 -0.02602216 9.41685486 -0.02983093 C11.14489377 -0.03609576 12.87293133 -0.04274258 14.60096741 -0.04974365 C20.28299521 -0.07078957 25.96502329 -0.08114863 31.64707947 -0.09111023 C33.60418143 -0.09515802 35.56128326 -0.09927494 37.51838493 -0.10346031 C46.71597378 -0.12251556 55.91355459 -0.13674417 65.11115938 -0.14507228 C75.71996868 -0.15483711 86.3285689 -0.18113556 96.93730456 -0.22157317 C105.14127688 -0.25176834 113.34518941 -0.26654451 121.54921621 -0.26985329 C126.44678517 -0.2722005 131.34413087 -0.28111767 136.24164009 -0.30631447 C140.85375887 -0.32965877 145.46550842 -0.33380293 150.07767105 -0.32355309 C151.76505832 -0.32305911 153.45246415 -0.32933864 155.1397953 -0.34310913 C168.80199358 -0.4483148 178.27048568 1.40178854 188.42832947 11.17060852 C193.95076028 17.59517689 197.8085421 24.84031925 198.56455994 33.37763977 C198.64616364 34.27249084 198.72776733 35.16734192 198.81184387 36.08930969 C198.89850815 37.10795105 198.89850815 37.10795105 198.98692322 38.14717102 C200.28315613 38.13146057 201.57938904 38.11575012 202.91490173 38.0995636 C207.74361408 38.04508878 212.57229946 38.01075709 217.40122986 37.9823761 C219.48753941 37.96732943 221.57381755 37.9468872 223.66001892 37.92085266 C226.66620153 37.88428807 229.67196434 37.86740312 232.67832947 37.85420227 C233.60464676 37.83871841 234.53096405 37.82323456 235.48535156 37.80728149 C242.63568339 37.80544114 247.47202327 38.79628629 252.86192322 43.83467102 C255.47211521 47.90349971 255.52697875 50.39604253 255.98692322 55.14717102 C257.25809998 55.13146057 258.52927673 55.11575012 259.838974 55.0995636 C264.56888966 55.04513852 269.29877778 55.0107751 274.02891541 54.9823761 C276.07355916 54.96731814 278.11817077 54.94686745 280.16270447 54.92085266 C283.10679574 54.88433791 286.05045879 54.86741451 288.99473572 54.85420227 C289.90434052 54.83871841 290.81394531 54.82323456 291.75111389 54.80728149 C297.81178417 54.80568544 302.22278866 55.59744522 306.85020447 59.86592102 C307.32844666 60.45373352 307.80668884 61.04154602 308.29942322 61.64717102 C308.79055603 62.23498352 309.28168884 62.82279602 309.78770447 63.42842102 C312.39506576 67.16535577 312.14099857 71.01006212 312.14805603 75.36909485 C312.15302094 76.10116653 312.15798584 76.83323822 312.1631012 77.5874939 C312.17770754 80.00973959 312.18452257 82.43191977 312.19004822 84.85420227 C312.19580132 86.53947959 312.20155903 88.22475689 312.20732117 89.91003418 C312.21782707 93.44489344 312.2236723 96.97972999 312.22715759 100.51460266 C312.23263879 105.03730403 312.25666043 109.55970381 312.28512955 114.08231068 C312.30378263 117.56451282 312.30896297 121.04664273 312.31049347 124.52889061 C312.31351494 126.19580927 312.32152641 127.86272682 312.33467865 129.52959633 C312.35179393 131.86564991 312.34984575 134.20097221 312.34336853 136.5370636 C312.35258331 137.22143494 312.3617981 137.90580627 312.37129211 138.61091614 C312.32461755 144.00309418 310.94129032 148.02845941 307.26817322 152.01045227 C306.68036072 152.48869446 306.09254822 152.96693665 305.48692322 153.45967102 C304.89911072 153.95080383 304.31129822 154.44193665 303.70567322 154.94795227 C300.75651996 157.00565693 298.18128093 157.27090814 294.69908142 157.26069641 C293.83841568 157.26062088 292.97774994 157.26054535 292.09100342 157.26046753 C291.16591476 157.25530624 290.24082611 157.25014496 289.28770447 157.24482727 C288.33751938 157.24341232 287.38733429 157.24199738 286.40835571 157.24053955 C283.37201293 157.23493977 280.33574374 157.22238734 277.29942322 157.20967102 C275.24148157 157.20465599 273.18353878 157.20009309 271.12559509 157.19599915 C266.07934275 157.18497042 261.03314547 157.16770595 255.98692322 157.14717102 C255.86575134 158.39885071 255.74457947 159.6505304 255.61973572 160.94013977 C255.1684127 165.60221054 253.44261519 167.91685026 249.98692322 171.14717102 C244.13779435 174.32601473 239.2563808 174.55009518 232.67832947 174.44013977 C231.71160812 174.43589493 230.74488678 174.43165009 229.74887085 174.42727661 C226.68209672 174.41057624 223.61599642 174.37294001 220.54942322 174.33467102 C218.46154213 174.31961302 216.37365067 174.30592657 214.28575134 174.2936554 C209.18567786 174.26326163 204.08704865 174.20452353 198.98692322 174.14717102 C198.98692322 184.37717102 198.98692322 194.60717102 198.98692322 205.14717102 C205.29940504 204.9897514 205.29940504 204.9897514 211.61045837 204.78681946 C217.26611265 204.715938 220.52731957 205.32365504 224.98692322 209.14717102 C230.75006946 215.39057945 231.30292414 220.81391082 231.32286072 228.97920227 C231.32951752 229.92978012 231.33617432 230.88035797 231.34303284 231.85974121 C231.35314 233.86772228 231.35785046 235.87573681 231.35752869 237.88374329 C231.36189357 240.9389198 231.398211 243.99264126 231.43614197 247.04756165 C231.44201237 249.00393695 231.44598027 250.96031907 231.44786072 252.91670227 C231.46223175 253.822173 231.47660278 254.72764374 231.4914093 255.66055298 C231.44443459 262.25773159 230.1620329 267.80389273 225.50410461 272.70852661 C221.04581941 276.59237577 217.76294423 277.27290771 212.00645447 277.24482727 C210.84307556 277.24160461 209.67969666 277.23838196 208.48106384 277.23506165 C207.26612244 277.22668274 206.05118103 277.21830383 204.79942322 277.20967102 C203.57288025 277.2051593 202.34633728 277.20064758 201.08262634 277.19599915 C198.05070457 277.18420178 195.01880782 277.16626616 191.98692322 277.14717102 C191.98692322 284.40717102 191.98692322 291.66717102 191.98692322 299.14717102 C198.82214118 299.02944089 198.82214118 299.02944089 205.65660095 298.87690735 C212.68167085 298.81646406 219.39081463 299.35240523 225.10801697 303.79560852 C225.54243103 304.36537415 225.97684509 304.93513977 226.42442322 305.52217102 C226.87688416 306.0867804 227.32934509 306.65138977 227.79551697 307.23310852 C231.65534028 313.43413613 231.31992433 319.37038553 231.29942322 326.45967102 C231.3155365 327.56246399 231.33164978 328.66525696 231.34825134 329.8014679 C231.35225253 336.50346043 231.35092706 343.35725122 226.64097595 348.66352844 C221.27822117 353.42861392 216.24950535 354.44556659 209.27989197 354.56123352 C208.19179985 354.59028275 208.19179985 354.59028275 207.08172607 354.61991882 C204.77940899 354.6793921 202.47704103 354.72596947 200.17442322 354.77217102 C198.6073449 354.8103806 197.04028691 354.84943405 195.47325134 354.88935852 C191.6446417 354.98506665 187.8159338 355.0692155 183.98692322 355.14717102 C184.24318481 355.99032867 184.49944641 356.83348633 184.76347351 357.70219421 C185.78323347 361.05750356 186.80295211 364.41282546 187.82265472 367.76815224 C188.29907225 369.33576299 188.77550777 370.90336827 189.25196075 372.47096825 C192.16888139 382.06807392 195.084323 391.66562544 197.99668884 401.26411438 C199.10269839 404.90876048 200.20883401 408.55336829 201.31504822 412.19795227 C201.5928009 413.11310797 201.87055359 414.02826366 202.15672302 414.97115135 C205.61511835 426.36405916 209.0868676 437.7527393 212.57926941 449.13526917 C214.22425227 454.49668144 215.86398168 459.85969542 217.502285 465.22315216 C218.81370734 469.51475384 220.13231123 473.80406376 221.45610428 478.09186459 C222.46259442 481.3595823 223.45828022 484.63057177 224.45567322 487.90107727 C224.81699341 489.06310165 225.1783136 490.22512604 225.55058289 491.42236328 C225.87439941 492.49114212 226.19821594 493.55992096 226.53184509 494.66108704 C226.81475403 495.58196609 227.09766296 496.50284515 227.3891449 497.45162964 C228.35810699 501.82093733 228.57684349 505.0164905 226.48692322 509.02217102 C223.45738003 511.59728273 221.83547115 511.73606657 217.98692322 511.81123352 C214.88553629 510.78147614 213.83814735 508.79591409 211.98692322 506.14717102 C211.03727414 503.75929823 210.24535408 501.49099689 209.52598572 499.03779602 C209.30315918 498.3119632 209.08033264 497.58613037 208.85075378 496.83830261 C208.09352602 494.36111541 207.35288357 491.87926864 206.61192322 489.39717102 C206.06353606 487.59073632 205.514183 485.78459462 204.963974 483.97871399 C203.34044953 478.63696315 201.73312502 473.29043347 200.12779236 467.94319153 C198.89050204 463.82634828 197.64928493 459.71070458 196.40684509 455.59541321 C196.18231722 454.85167702 195.95778934 454.10794083 195.7264576 453.34166718 C195.26280387 451.80588503 194.79914064 450.27010575 194.33546829 448.73432922 C191.25768932 438.5392496 188.18245054 428.34341742 185.11827087 418.14424133 C178.80259266 397.12626352 172.41672795 376.1305169 165.98692322 355.14717102 C159.71692322 354.81717102 153.44692322 354.48717102 146.98692322 354.14717102 C147.02172791 357.2074054 147.05653259 360.26763977 147.09239197 363.42060852 C147.11584548 366.41262379 147.13402903 369.40462848 147.15171814 372.39668274 C147.16672514 374.46248523 147.18713722 376.5282563 147.21324158 378.59394836 C147.24998283 381.5779144 147.26673086 384.56145609 147.27989197 387.54560852 C147.29537582 388.45644196 147.31085968 389.36727539 147.32681274 390.30570984 C147.3290572 399.0238696 145.63175267 407.28183791 139.98692322 414.14717102 C130.75859341 423.14717102 130.75859341 423.14717102 124.98692322 423.14717102 C124.99691597 424.6714698 124.99691597 424.6714698 125.0071106 426.2265625 C125.06793641 435.80518071 125.11290294 445.38375972 125.14235973 454.96252728 C125.1580129 459.88703145 125.17924489 464.81137965 125.21324158 469.73579407 C125.24584734 474.48849838 125.26377886 479.24105271 125.27155495 483.99386024 C125.27709626 485.8067492 125.2879171 487.61962999 125.30411339 489.43245506 C125.32590392 491.97255034 125.32888948 494.51202655 125.32749939 497.05220032 C125.33828522 497.8009845 125.34907104 498.54976868 125.36018372 499.32124329 C125.33131681 504.19890442 124.49817806 507.63591618 120.98692322 511.14717102 C113.79886333 511.73635626 113.79886333 511.73635626 110.88945007 509.62513733 C108.27740101 506.22304629 108.41381798 503.19375729 108.44102478 499.07392883 C108.4306871 498.26379837 108.42034943 497.45366791 108.40969849 496.61898804 C108.38024176 493.9458885 108.37877074 491.27354519 108.37754822 488.60029602 C108.36256848 486.74511773 108.34584176 484.88995279 108.32743835 483.0348053 C108.28372939 478.15548596 108.2637579 473.27634652 108.248703 468.39686584 C108.2291447 463.41639045 108.18717326 458.4361097 108.14707947 453.45576477 C108.07173895 443.68629351 108.02147074 433.91686573 107.98692322 424.14717102 C107.43421249 423.87450912 106.88150177 423.60184723 106.31204224 423.32092285 C105.58882278 422.96218582 104.86560333 422.60344879 104.12046814 422.23384094 C103.04390205 421.7010981 103.04390205 421.7010981 101.94558716 421.15759277 C95.04785583 417.59923974 91.07235634 412.15951903 87.98692322 405.14717102 C87.08850178 402.15847619 86.86502314 399.49400116 86.87339783 396.37861633 C86.87351112 394.96760651 86.87351112 394.96760651 86.87362671 393.52809143 C86.87878799 392.52066895 86.88394928 391.51324646 86.88926697 390.47529602 C86.89068192 389.4377417 86.89209686 388.40018738 86.89355469 387.33119202 C86.89914874 384.01982226 86.91170019 380.70852031 86.92442322 377.39717102 C86.92943898 375.15107825 86.93400176 372.90498441 86.93809509 370.65888977 C86.94911623 365.15495743 86.96637682 359.65107572 86.98692322 354.14717102 C80.38692322 354.14717102 73.78692322 354.14717102 66.98692322 354.14717102 C66.41973572 356.47795715 65.85254822 358.80874329 65.26817322 361.2101593 C63.27107344 369.26971951 60.94224726 377.20769726 58.48692322 385.13935852 C58.05340835 386.55150307 57.62030532 387.96377411 57.18757629 389.37615967 C56.03150356 393.14604631 54.87061674 396.91443186 53.70838165 400.68242264 C51.73890274 407.06960292 49.77552649 413.45866387 47.8127861 419.84791756 C47.30789514 421.49139992 46.80282073 423.13482594 46.29756546 424.77819633 C42.78627646 436.20270806 39.33138535 447.64270263 35.92914581 459.10015106 C35.23665186 461.43038887 34.54226237 463.76005224 33.84709167 466.0894928 C33.62218678 466.84315376 33.39728188 467.59681473 33.16556168 468.3733139 C32.71831369 469.87180718 32.27098543 471.3702765 31.82357407 472.86872101 C30.52239558 477.2306961 29.23364184 481.59611337 27.95329094 485.96424389 C27.15880038 488.66389604 26.35270407 491.35997787 25.54335403 494.05520821 C24.99489663 495.89499871 24.46100951 497.7391131 23.92756653 499.58331299 C23.59765717 500.67471085 23.2677478 501.7661087 22.92784119 502.89057922 C22.64778229 503.83923355 22.36772339 504.78788788 22.07917786 505.76528931 C20.79408814 508.56768684 19.64982508 509.63013177 16.98692322 511.14717102 C13.4259439 511.52870452 10.8998357 511.49829121 7.54942322 510.20967102 C5.00469005 506.85062324 5.57674845 503.16199213 5.98692322 499.14717102 C6.96629158 494.73681677 8.30248557 490.45846008 9.65879822 486.15107727 C10.05382376 484.8644043 10.44769238 483.57737566 10.84049988 482.2900238 C11.68430072 479.53302695 12.53582599 476.77858669 13.3936615 474.02592468 C14.75331491 469.66290553 16.09610081 465.29481189 17.43614197 460.92573547 C18.83816985 456.35763412 20.24156463 451.78997095 21.65110779 447.22418213 C25.00924111 436.34632916 28.3315575 425.45807225 31.62754822 414.56123352 C31.85467247 413.810427 32.08179672 413.05962048 32.31580353 412.28606224 C33.43766192 408.57697906 34.55895323 404.8677248 35.67991638 401.15837097 C37.56745914 394.91302396 39.45891982 388.66886481 41.35135651 382.42499924 C41.89961122 380.61576889 42.44745781 378.80641489 42.99528503 376.99705505 C45.30516972 369.37402053 47.63861956 361.7584566 49.98692322 354.14717102 C48.98838318 354.16288147 47.98984314 354.17859192 46.96104431 354.19477844 C43.23749435 354.24929722 39.51397932 354.28360036 35.79014587 354.31196594 C34.18201249 354.32700278 32.57391978 354.34743774 30.96592712 354.37348938 C28.64730258 354.41009924 26.32922273 354.42694824 24.01036072 354.44013977 C23.29761993 354.45562363 22.58487915 354.47110748 21.85054016 354.48706055 C16.2926607 354.48891188 12.23437291 353.22029023 8.12364197 349.42842102 C7.64539978 348.84060852 7.16715759 348.25279602 6.67442322 347.64717102 C6.18329041 347.05935852 5.69215759 346.47154602 5.18614197 345.86592102 C1.78388566 340.98972305 2.68833462 334.65913529 2.63682556 328.97016907 C2.6122229 326.98386611 2.55562712 324.99804319 2.49864197 323.0124054 C2.41652897 314.03015588 3.55261754 308.73438379 9.79942322 302.27217102 C16.70203845 298.72225462 23.92522534 298.89417943 31.48692322 299.02217102 C34.95192322 299.06342102 38.41692322 299.10467102 41.98692322 299.14717102 C41.98692322 291.88717102 41.98692322 284.62717102 41.98692322 277.14717102 C40.13067322 277.20517883 38.27442322 277.26318665 36.36192322 277.32295227 C33.90361512 277.36986655 31.44527971 277.4153649 28.98692322 277.45967102 C27.76618103 277.50156555 26.54543884 277.54346008 25.28770447 277.58662415 C18.89871989 277.67296177 14.031658 277.51284042 8.63536072 273.91352844 C2.88822825 267.75527853 2.37978209 262.36504555 2.42051697 254.24482727 C2.41431839 253.20829514 2.40811981 252.171763 2.4017334 251.1038208 C2.39465372 248.91946854 2.39777671 246.73506211 2.4105072 244.55073547 C2.42436712 241.22313846 2.39027872 237.89835887 2.35215759 234.57099915 C2.35120622 232.44144117 2.35306618 230.3118797 2.35801697 228.18232727 C2.34475876 227.19563553 2.33150055 226.20894379 2.31784058 225.19235229 C2.4051767 218.65737173 3.67489932 214.16027539 7.98692322 209.14717102 C13.31058293 204.57430933 18.65297632 204.64565537 25.42442322 204.89717102 C28.58004822 204.97967102 31.73567322 205.06217102 34.98692322 205.14717102 C34.98692322 195.24717102 34.98692322 185.34717102 34.98692322 175.14717102 C32.83934509 175.18197571 30.69176697 175.2167804 28.47911072 175.25263977 C26.34745099 175.27618431 24.21580697 175.29431539 22.08409119 175.31196594 C20.62764262 175.32684726 19.17123714 175.34715898 17.71495056 175.37348938 C2.25240568 175.64560456 -10.92393436 174.42838967 -22.82557678 163.58467102 C-31.39294576 154.03817416 -34.80496428 144.75750576 -34.64198303 131.95967102 C-34.64560097 130.30137268 -34.64560097 130.30137268 -34.64929199 128.60957336 C-34.64832053 126.29703648 -34.63509669 123.98447427 -34.61000061 121.67207336 C-34.57538782 118.12782223 -34.58945612 114.58602775 -34.60877991 111.04170227 C-34.6018888 108.78518124 -34.59222312 106.5286666 -34.57948303 104.27217102 C-34.5844429 103.21489807 -34.58940277 102.15762512 -34.59451294 101.0683136 C-34.47776406 93.82862076 -34.47776406 93.82862076 -32.19642639 90.48310852 C-28.95799328 88.50159158 -26.72753017 88.61653482 -23.01307678 89.14717102 C-20.82801819 90.5995636 -20.82801819 90.5995636 -19.01307678 93.14717102 C-18.42158403 96.23188643 -18.45583906 99.27555111 -18.47401428 102.40888977 C-18.45632492 103.76673332 -18.45632492 103.76673332 -18.4382782 105.15200806 C-18.40300177 108.04640298 -18.39385393 110.94007881 -18.38807678 113.83467102 C-18.37166021 116.71119227 -18.34940825 119.58739507 -18.31645203 122.46377563 C-18.29704617 124.2512803 -18.2874624 126.03892929 -18.28953552 127.82653809 C-18.21738284 136.40409313 -17.116885 143.17196645 -12.01307678 150.14717102 C-12.01307678 150.80717102 -12.01307678 151.46717102 -12.01307678 152.14717102 C-11.20870178 152.54935852 -11.20870178 152.54935852 -10.38807678 152.95967102 C-8.60456822 153.8514253 -6.8360448 154.77325186 -5.07557678 155.70967102 C0.02432639 158.10350312 4.59435625 158.27633683 10.19224548 158.30488586 C10.8985611 158.30996658 11.60487671 158.3150473 12.33259583 158.32028198 C13.85925642 158.33094402 15.38593223 158.33958037 16.91261482 158.34640121 C19.32955092 158.35823693 21.74631207 158.37769885 24.16317749 158.39952087 C31.03234556 158.46099951 37.90149142 158.51524953 44.77085876 158.54853821 C48.97835036 158.56947289 53.18551532 158.60475733 57.39282036 158.64929581 C58.99435017 158.66345586 60.59593767 158.67217827 62.19752693 158.67535019 C64.43569857 158.68025471 66.67300042 158.70339634 68.91099548 158.73066711 C70.82030602 158.74279739 70.82030602 158.74279739 72.76818848 158.75517273 C76.20134191 159.17328431 77.6169571 159.66495598 79.98692322 162.14717102 C80.85395802 165.55337919 81.28530865 168.04314493 80.36192322 171.45967102 C78.49039032 173.75655231 76.79344345 174.22937441 73.98692322 175.14717102 C71.21617126 175.3742218 71.21617126 175.3742218 68.24864197 175.34248352 C67.28659851 175.3374884 66.32455505 175.33249329 65.33335876 175.3273468 C64.12591003 175.30913879 62.9184613 175.29093079 61.67442322 175.27217102 C57.81754822 175.23092102 53.96067322 175.18967102 49.98692322 175.14717102 C49.98692322 185.04717102 49.98692322 194.94717102 49.98692322 205.14717102 C59.22692322 205.14717102 68.46692322 205.14717102 77.98692322 205.14717102 C78.97692322 201.84717102 79.96692322 198.54717102 80.98692322 195.14717102 C85.4760567 185.9967544 93.38943756 178.64515572 102.98692322 175.14717102 C114.00019784 172.06838019 125.13923472 172.1382899 135.51036072 177.43623352 C143.5646475 182.57668277 150.43882368 189.11564492 153.98692322 198.14717102 C154.31692322 200.45717102 154.64692322 202.76717102 154.98692322 205.14717102 C164.22692322 205.14717102 173.46692322 205.14717102 182.98692322 205.14717102 C182.96073914 201.62907776 182.93455505 198.1109845 182.90757751 194.48628235 C182.82478364 182.87144377 182.76926673 171.25656366 182.72786236 159.64151478 C182.70208741 152.59824387 182.66695109 145.55525264 182.60972595 138.51216125 C182.55454185 131.71703118 182.52551312 124.92219206 182.512537 118.12685204 C182.50328797 115.53243621 182.48522705 112.93803657 182.45827293 110.34374428 C182.42205378 106.713822 182.41697518 103.08510582 182.41929626 99.45503235 C182.3923317 97.84094231 182.3923317 97.84094231 182.36482239 96.19424438 C182.41526904 88.91839539 182.41526904 88.91839539 185.3348999 84.97949219 C187.98692322 83.14717102 187.98692322 83.14717102 190.98692322 82.52217102 C195.05088099 83.36882889 196.39224538 84.9446509 198.98692322 88.14717102 C199.5881958 91.40591431 199.5881958 91.40591431 199.55455017 95.14057922 C199.55564537 96.16579933 199.55564537 96.16579933 199.5567627 97.21173096 C199.55329507 99.45796177 199.51447963 101.70208645 199.47520447 103.94795227 C199.46587324 105.51021187 199.45875859 107.07248614 199.45376587 108.63476562 C199.43471998 112.73686976 199.38564134 116.83808176 199.33024597 120.93983459 C199.26998316 125.86646845 199.24712563 130.79340144 199.21797943 135.72029877 C199.1695733 143.19654239 199.07374524 150.67083047 198.98692322 158.14717102 C212.51692322 158.14717102 226.04692322 158.14717102 239.98692322 158.14717102 C239.98692322 123.82717102 239.98692322 89.50717102 239.98692322 54.14717102 C226.45692322 54.14717102 212.92692322 54.14717102 198.98692322 54.14717102 C198.98692322 57.44717102 198.98692322 60.74717102 198.98692322 64.14717102 C196.56080671 67.71498941 195.20426801 68.89355752 190.98692322 69.77217102 C186.93152658 68.92729672 185.58307419 67.33426518 182.98692322 64.14717102 C182.40684509 60.98432922 182.40684509 60.98432922 182.45567322 57.44795227 C182.44922791 56.15566711 182.44278259 54.86338196 182.43614197 53.53193665 C182.45713087 51.50260309 182.48671872 49.4735082 182.51670837 47.44429016 C182.61886072 37.72199956 182.08349817 29.5967555 175.18223572 22.21748352 C168.27263854 15.81734973 160.57963488 15.02731991 151.39723206 15.01345825 C149.47125938 15.00706078 149.47125938 15.00706078 147.50637817 15.00053406 C146.10096738 15.0008835 144.6955566 15.00134499 143.29014587 15.00190735 C141.79634518 14.99891214 140.30254526 14.99550877 138.80874634 14.99172974 C134.76529292 14.98292306 130.72186069 14.98055305 126.67839861 14.97991395 C124.14872424 14.97920163 121.61905521 14.97706389 119.08938217 14.97441673 C110.25444448 14.96517482 101.41952184 14.96108046 92.58457947 14.96186829 C84.36451829 14.96246899 76.14452275 14.95191565 67.92447817 14.93612462 C60.85333881 14.92302739 53.78222085 14.9176853 46.71106946 14.9183237 C42.49386049 14.91857801 38.27670992 14.91576351 34.05951309 14.90514565 C30.09172535 14.89542766 26.12405141 14.89541072 22.15625954 14.90266228 C20.70550558 14.90370348 19.25474439 14.90137298 17.80400276 14.89530182 C2.95232739 14.6705996 2.95232739 14.6705996 -10.01307678 21.14717102 C-17.17674679 28.37053828 -18.13881384 35.9800835 -18.15370178 45.81123352 C-18.17201149 47.27739512 -18.19158007 48.74354144 -18.21229553 50.20967102 C-18.24135132 52.49867605 -18.26307986 54.78667983 -18.26356506 57.07588196 C-18.26689758 59.30104849 -18.30139562 61.52395922 -18.34120178 63.74873352 C-18.33413208 64.43110077 -18.32706238 65.11346802 -18.31977844 65.81651306 C-18.41311508 69.46128008 -18.79925095 70.91941179 -21.32850647 73.61347961 C-24.01307678 75.14717102 -24.01307678 75.14717102 -27.63807678 75.08467102 C-30.99638232 74.15180837 -31.95718674 73.79147015 -34.01307678 71.14717102 C-34.40748596 69.27267456 -34.40748596 69.27267456 -34.43299866 67.14155579 C-34.45686646 65.93868675 -34.45686646 65.93868675 -34.48121643 64.71151733 C-34.48141785 63.84594711 -34.48161926 62.98037689 -34.48182678 62.08857727 C-34.48944031 61.18904831 -34.49705383 60.28951935 -34.50489807 59.36273193 C-34.5157118 57.45374828 -34.51854702 55.5447054 -34.51405334 53.63569641 C-34.51309061 50.75110541 -34.55449357 47.86926176 -34.59901428 44.98506165 C-34.69390199 30.63716895 -32.78135396 20.04777843 -22.49354553 9.34638977 C-15.60538801 3.23925168 -9.2021149 0.03049624 0 0 Z M255.98692322 71.14717102 C255.98692322 94.24717102 255.98692322 117.34717102 255.98692322 141.14717102 C262.40129822 141.16779602 268.81567322 141.18842102 275.42442322 141.20967102 C278.46487854 141.22332703 278.46487854 141.22332703 281.5667572 141.23725891 C283.16384312 141.24017805 284.76092977 141.24272661 286.35801697 141.24482727 C287.61346313 141.25250122 287.61346313 141.25250122 288.89427185 141.2603302 C290.92550587 141.26064026 292.95664793 141.2095729 294.98692322 141.14717102 C296.83489523 139.29919901 296.11468269 136.27921025 296.11631775 133.80732727 C296.11807007 133.14554474 296.11982239 132.48376221 296.12162781 131.80192566 C296.12604539 129.60448112 296.12310868 127.40711644 296.11973572 125.20967102 C296.12040878 123.68891891 296.12137883 122.1681669 296.12263489 120.64741516 C296.12411173 117.45624266 296.12195774 114.2650981 296.11729431 111.07392883 C296.11159702 106.97452572 296.1148761 102.87518806 296.12086678 98.77578735 C296.12447275 95.63434858 296.12333363 92.49292544 296.12073898 89.35148621 C296.12006982 87.83954358 296.12089778 86.32759956 296.12321854 84.81565857 C296.12574567 82.70607215 296.12190365 80.59659315 296.11631775 78.48701477 C296.11552216 77.28423889 296.11472656 76.08146301 296.11390686 74.84223938 C296.29379915 72.22969917 296.29379915 72.22969917 294.98692322 71.14717102 C292.10281147 71.0585259 289.24209513 71.03188576 286.35801697 71.04951477 C285.59235413 71.05052185 284.82669128 71.05152893 284.03782654 71.05256653 C281.16667695 71.05781439 278.29554864 71.07177555 275.42442322 71.08467102 C269.01004822 71.10529602 262.59567322 71.12592102 255.98692322 71.14717102 Z M97.98692322 198.14717102 C93.98221323 204.23124966 92.34326767 210.32286855 93.54942322 217.58467102 C95.17536574 223.97931745 98.86324104 228.43015138 103.92442322 232.52217102 C110.6733935 236.10325729 116.58959652 236.92392296 123.98692322 235.14717102 C130.87227169 232.21023477 136.14593844 226.99650283 139.36192322 220.27217102 C140.77590528 213.20226072 140.66897613 206.51297377 136.98692322 200.14717102 C132.59584368 194.61396726 127.15452024 190.23317057 119.98692322 189.14717102 C111.32573341 188.29803476 103.94503264 192.05050091 97.98692322 198.14717102 Z M18.98692322 221.14717102 C18.98692322 234.34717102 18.98692322 247.54717102 18.98692322 261.14717102 C44.39449553 261.16971545 69.80205979 261.18814868 95.20963955 261.19898319 C107.00592849 261.20414681 118.8022108 261.21119074 130.59849548 261.22261047 C140.87613319 261.23255532 151.15376608 261.23902397 161.43140846 261.24125952 C166.87694109 261.24256696 172.32245997 261.24565495 177.7679882 261.25290108 C182.88717531 261.25965815 188.00634292 261.26178862 193.12553406 261.2602787 C195.01019458 261.26055517 196.89485572 261.26256214 198.77951241 261.2663765 C201.34093758 261.27130887 203.9022879 261.27017101 206.4637146 261.26742554 C207.59744771 261.2717948 207.59744771 261.2717948 208.75408453 261.27625233 C212.15784986 261.57082997 212.15784986 261.57082997 214.98692322 260.14717102 C215.11276773 257.35895244 215.17558668 254.59684391 215.19004822 251.80732727 C215.19574829 250.97003586 215.20144836 250.13274445 215.20732117 249.27008057 C215.21678476 247.49548105 215.22331052 245.72086386 215.22715759 243.94624329 C215.23687031 241.22449779 215.26788309 238.50350492 215.29942322 235.78193665 C215.30595221 234.06123802 215.31120309 232.34053398 215.31504822 230.61982727 C215.33356842 229.39321129 215.33356842 229.39321129 215.35246277 228.14181519 C215.37760155 225.60797613 215.37760155 225.60797613 214.98692322 222.14717102 C211.58009758 219.87595393 210.40895138 219.90248215 206.41392517 219.92012024 C205.2729689 219.9202713 204.13201263 219.92042236 202.95648193 219.920578 C201.72516037 219.93090057 200.49383881 219.94122314 199.22520447 219.95185852 C197.96427475 219.95468842 196.70334503 219.95751831 195.40420532 219.96043396 C192.05531899 219.96973977 188.70670531 219.98770399 185.3578949 220.00984192 C181.93933975 220.03031716 178.52075642 220.03943926 175.10215759 220.04951477 C168.39700403 220.07158922 161.69197936 220.1050774 154.98692322 220.14717102 C154.73007751 220.89192688 154.47323181 221.63668274 154.20860291 222.40400696 C153.86216736 223.38659485 153.51573181 224.36918274 153.15879822 225.38154602 C152.81945251 226.35317688 152.48010681 227.32480774 152.13047791 228.32588196 C148.8781508 236.3497701 142.16486935 243.50209018 134.46348572 247.43623352 C123.05637687 252.19775944 112.62414473 252.12634999 100.98692322 248.14717102 C90.82364543 243.50647092 84.99856653 237.12089557 80.78379822 226.86592102 C80.51228943 226.21848938 80.24078064 225.57105774 79.96104431 224.90400696 C79.29785811 223.32054034 78.64167034 221.73414571 77.98692322 220.14717102 C70.58959455 220.12402386 63.19227367 220.10624379 55.79491615 220.09535885 C52.3602076 220.09013523 48.92552378 220.08304701 45.49082947 220.07173157 C41.54421787 220.05881068 37.59761637 220.0539385 33.65098572 220.04951477 C32.41450287 220.04435349 31.17802002 220.0391922 29.90406799 220.03387451 C28.76303619 220.03379898 27.62200439 220.03372345 26.44639587 220.03364563 C24.93415939 220.03031471 24.93415939 220.03031471 23.39137268 220.0269165 C20.97359261 219.98634554 20.97359261 219.98634554 18.98692322 221.14717102 Z M56.98692322 277.14717102 C56.98692322 284.40717102 56.98692322 291.66717102 56.98692322 299.14717102 C74.14692322 299.14717102 91.30692322 299.14717102 108.98692322 299.14717102 C108.98692322 291.88717102 108.98692322 284.62717102 108.98692322 277.14717102 C91.82692322 277.14717102 74.66692322 277.14717102 56.98692322 277.14717102 Z M124.98692322 277.14717102 C124.98692322 284.40717102 124.98692322 291.66717102 124.98692322 299.14717102 C141.81692322 299.14717102 158.64692322 299.14717102 175.98692322 299.14717102 C175.98692322 291.88717102 175.98692322 284.62717102 175.98692322 277.14717102 C159.15692322 277.14717102 142.32692322 277.14717102 124.98692322 277.14717102 Z M18.98692322 316.14717102 C18.95804508 319.62632043 18.94016635 323.10543933 18.92442322 326.58467102 C18.91604431 327.57789368 18.90766541 328.57111633 18.89903259 329.59443665 C18.89580994 330.53867493 18.89258728 331.48291321 18.88926697 332.45576477 C18.88403015 333.33031311 18.87879333 334.20486145 18.87339783 335.10591125 C18.75907513 337.14157308 18.75907513 337.14157308 19.98692322 338.14717102 C22.49105839 338.24490214 24.96758513 338.27712783 27.47216797 338.26742554 C28.26523155 338.26827996 29.05829513 338.26913439 29.87539095 338.2700147 C32.55329718 338.27167192 35.23114183 338.26614421 37.90904236 338.26069641 C39.82049559 338.26041457 41.73194893 338.26057222 43.6434021 338.26113892 C48.84979781 338.26142699 54.0561707 338.25552863 59.26256108 338.24856496 C64.6971648 338.2423331 70.13176899 338.24172776 75.56637573 338.24053955 C85.86531079 338.23742574 96.1642353 338.22921168 106.4631657 338.21919006 C118.18485079 338.20803047 129.90653637 338.20251886 141.62822545 338.19749463 C165.74779723 338.1870291 189.86735964 338.1694287 213.98692322 338.14717102 C215.75494302 334.61113142 215.17157235 330.54145848 215.17442322 326.64717102 C215.18666931 325.76674133 215.19891541 324.88631165 215.21153259 323.97920227 C215.21346619 323.13744446 215.21539978 322.29568665 215.21739197 321.42842102 C215.22150085 320.65562805 215.22560974 319.88283508 215.22984314 319.08662415 C215.15868938 316.9097739 215.15868938 316.9097739 212.98692322 315.14717102 C210.4454909 314.95188672 208.01322319 314.8822581 205.47080994 314.89993286 C204.68647017 314.89751845 203.90213039 314.89510403 203.09402275 314.89261645 C200.45146877 314.88695613 197.80915404 314.89566007 195.16661072 314.9042511 C193.27795852 314.90317879 191.38930664 314.90124088 189.50065613 314.89849854 C184.36027604 314.89363879 179.21998237 314.90131993 174.07961273 314.91145158 C168.71001275 314.9202138 163.34041561 314.91847499 157.97080994 314.91809082 C148.95207772 314.9190283 139.93337908 314.92772353 130.91465759 314.94136047 C120.47525881 314.95708688 110.03589682 314.96235862 99.59648705 314.96162492 C89.5702348 314.96101532 79.5439946 314.96611452 69.51774597 314.97441673 C65.24345302 314.97795485 60.96916434 314.97978074 56.69487 314.98031044 C51.6651092 314.98131235 46.63537951 314.98739652 41.60562897 314.99747658 C39.7552535 315.00040633 37.90487446 315.00162599 36.05449677 315.00104904 C33.53730988 315.00056104 31.02021114 315.00618742 28.5030365 315.01345825 C27.76316435 315.01190965 27.0232922 315.01036105 26.26099968 315.00876552 C22.49854708 314.96770155 22.49854708 314.96770155 18.98692322 316.14717102 Z M102.98692322 354.14717102 C102.91794622 360.30400675 102.85824347 366.45949465 102.8221283 372.6164093 C102.80706853 374.70955455 102.78661651 376.80266838 102.76060486 378.89570618 C102.72409821 381.9092943 102.70716849 384.92246414 102.69395447 387.93623352 C102.67847061 388.8677121 102.66298676 389.79919067 102.64703369 390.75889587 C102.64568999 395.98004721 103.01587125 399.65448882 105.98692322 404.14717102 C109.81763389 407.29686646 112.9897849 409.04518861 117.98692322 409.14717102 C123.85398102 407.39734676 126.55583965 404.9910537 129.98692322 400.14717102 C130.91379647 397.36655127 131.10885718 395.72665243 131.10044861 392.85932922 C131.10033531 391.56833061 131.10033531 391.56833061 131.10021973 390.25125122 C131.0924778 388.86361824 131.0924778 388.86361824 131.08457947 387.44795227 C131.08316452 386.49776718 131.08174957 385.54758209 131.08029175 384.56860352 C131.07469197 381.53226073 131.06213953 378.49599154 131.04942322 375.45967102 C131.04440819 373.40172938 131.03984529 371.34378658 131.03575134 369.2858429 C131.0255733 364.23956773 131.00599778 359.19345182 130.98692322 354.14717102 C121.74692322 354.14717102 112.50692322 354.14717102 102.98692322 354.14717102 Z " fill="#E8EFCF" transform="translate(118.01307678222656,-0.1471710205078125)"/>
<path d="M0 0 C1.08851509 -0.00810448 1.08851509 -0.00810448 2.19902039 -0.01637268 C4.59338396 -0.02886136 6.98654535 -0.01236934 9.38085938 0.00561523 C11.04707909 0.00546025 12.71329917 0.00397133 14.3795166 0.00120544 C17.8698726 -0.0001786 21.35981771 0.01238011 24.85009766 0.03515625 C29.32260096 0.06354115 33.79442158 0.06080376 38.2669754 0.04806614 C41.70711084 0.04110893 45.14708867 0.04889868 48.58720398 0.06132317 C50.23621516 0.06583727 51.88524327 0.06617482 53.53425598 0.06225777 C55.83959597 0.05934506 58.14399741 0.0758541 60.44921875 0.09765625 C62.41634827 0.10576073 62.41634827 0.10576073 64.42321777 0.11402893 C67.90701171 0.52312836 69.33264285 0.97576806 71.72460938 3.50170898 C72.59742086 6.93061125 73.05383766 9.39430475 72.03710938 12.81420898 C70.3850986 14.93822283 69.24529296 15.52565328 66.72460938 16.50170898 C63.5438385 16.7624054 63.5438385 16.7624054 59.74047852 16.77636719 C59.04566879 16.78147812 58.35085907 16.78658905 57.63499451 16.79185486 C55.34316339 16.80573019 53.0516337 16.8047957 50.75976562 16.80249023 C49.16320179 16.80637828 47.56663898 16.81071318 45.97007751 16.81547546 C42.62528122 16.82293322 39.2805905 16.82264963 35.93579102 16.81738281 C31.65399945 16.8115885 27.3726405 16.82852013 23.09092045 16.85172749 C19.79403669 16.86647445 16.49725689 16.86733523 13.20034599 16.86421776 C11.62192363 16.86473048 10.04349538 16.86995904 8.46510506 16.88002968 C6.25583071 16.89239591 4.04739613 16.88560212 1.83813477 16.87402344 C0.58223038 16.87465286 -0.67367401 16.87528229 -1.96763611 16.87593079 C-5.83306806 16.43861632 -8.50540047 15.27169913 -11.27539062 12.50170898 C-11.86640225 5.2913672 -11.86640225 5.2913672 -9.70349121 2.401474 C-6.37614322 -0.20186926 -4.19873658 0.00053202 0 0 Z " fill="#E8EFCF" transform="translate(148.275390625,57.498291015625)"/>
<path d="M0 0 C0.78153946 -0.00570007 1.56307892 -0.01140015 2.36830139 -0.01727295 C4.01822565 -0.02670044 5.66816856 -0.03324797 7.31811523 -0.03710938 C9.83545818 -0.04682791 12.35198864 -0.07787676 14.86914062 -0.109375 C16.47525559 -0.11590453 18.08137637 -0.1211552 19.6875 -0.125 C20.43660141 -0.1373468 21.18570282 -0.1496936 21.95750427 -0.16241455 C26.46600522 -0.14328911 29.31531036 0.43974871 32.91015625 3.203125 C34.85679257 5.7691456 34.91786361 7.01429474 34.78515625 10.265625 C33.91015625 13.203125 33.91015625 13.203125 32.43164062 14.85961914 C28.60160852 16.90034984 24.96878295 16.65125832 20.69140625 16.63671875 C19.34906921 16.64458153 19.34906921 16.64458153 17.97961426 16.65260315 C16.09009843 16.65901838 14.20054265 16.65769281 12.31103516 16.64916992 C9.4201759 16.64065451 6.53128935 16.66943607 3.640625 16.70117188 C1.80338601 16.70278387 -0.03385648 16.70220638 -1.87109375 16.69921875 C-2.73472534 16.71045273 -3.59835693 16.72168671 -4.48815918 16.73326111 C-10.44149432 16.66411138 -10.44149432 16.66411138 -13.63867188 14.39086914 C-15.75750114 11.1965843 -15.55821725 8.95011299 -15.08984375 5.203125 C-13.82657307 2.80291071 -13.05546741 1.5576819 -10.48608398 0.61425781 C-6.99982571 0.01610611 -3.52695396 0.01995555 0 0 Z " fill="#E8EFCF" transform="translate(152.08984375,90.796875)"/>
</svg>
