<?xml version="1.0" encoding="UTF-8"?>
<svg version="1.1" xmlns="http://www.w3.org/2000/svg" width="512" height="512">
<path d="M0 0 C1.56143586 -0.00462113 3.12286735 -0.0109821 4.68428993 -0.01890898 C8.93135645 -0.03545932 13.17805902 -0.02742186 17.42512608 -0.0149641 C22.0223532 -0.00585674 26.61952082 -0.01991134 31.21673584 -0.03088379 C40.20545632 -0.04861328 49.19404274 -0.04485394 58.18276834 -0.03323323 C65.49207561 -0.02417717 72.80134547 -0.02298428 80.11065674 -0.02732849 C81.15338009 -0.02794142 82.19610345 -0.02855436 83.27042449 -0.02918586 C85.38910152 -0.03046484 87.50777854 -0.0317617 89.62645555 -0.03307623 C109.46480026 -0.04446571 129.30307088 -0.03139396 149.14140344 -0.00987476 C166.14101828 0.00799472 183.14052384 0.00489016 200.14013672 -0.0135498 C219.91045872 -0.03498538 239.68071589 -0.04336723 259.4510479 -0.03110075 C261.56166457 -0.02982664 263.67228126 -0.02856915 265.78289795 -0.02732849 C267.34034522 -0.02640284 267.34034522 -0.02640284 268.92925608 -0.02545848 C276.22460216 -0.02201364 283.5199069 -0.02781521 290.81524658 -0.0372467 C299.71326199 -0.04849796 308.61113635 -0.04536112 317.50913572 -0.02412373 C322.0437238 -0.01365528 326.57807725 -0.00941921 331.11266327 -0.02272034 C335.27276367 -0.0347379 339.43241444 -0.02792952 343.5924747 -0.00681013 C345.08824117 -0.00238335 346.58404653 -0.00452065 348.07978749 -0.01431328 C361.23538226 -0.09375993 373.59317301 2.06905235 385.32177734 8.32043457 C385.98604736 8.66372803 386.65031738 9.00702148 387.3347168 9.36071777 C394.81852691 13.33434945 401.17307785 18.30120762 406.94677734 24.50793457 C407.61322266 25.16922363 408.27966797 25.8305127 408.96630859 26.51184082 C420.44313966 38.37970531 429.02781473 55.58066159 429.08658504 72.34595871 C429.09227629 73.29784726 429.09796753 74.24973581 429.10383123 75.23046947 C429.10501111 76.26810412 429.10619099 77.30573877 429.10740662 78.37481689 C429.11249444 79.48346517 429.11758226 80.59211344 429.12282425 81.73435712 C429.13854561 85.45673326 429.14707294 89.17908999 429.15551758 92.90148926 C429.16262599 94.88820662 429.16974077 96.874924 429.1773579 98.86163947 C429.21062982 107.54477046 429.23219069 116.22791314 429.25055775 124.91108692 C429.2553555 127.17246048 429.26033846 129.43383357 429.26536298 131.69520664 C429.29633038 145.745285 429.32300808 159.79536753 429.33978176 173.84547043 C429.34373108 177.09754188 429.3477341 180.34961327 429.35180664 183.60168457 C429.352815 184.40994349 429.35382336 185.2182024 429.35486228 186.05095401 C429.37187131 199.14583236 429.41298643 212.24052181 429.46382963 225.33530793 C429.51562459 238.7860467 429.54472619 252.23668833 429.55197865 265.68752599 C429.55663781 273.23711996 429.57135692 280.78640425 429.61172295 288.33589935 C429.64605613 294.76474976 429.65994901 301.19323455 429.64729881 307.62217137 C429.64147983 310.90054117 429.64856779 314.17797755 429.67546844 317.4562645 C429.70311463 321.01585455 429.6936543 324.57351185 429.67503357 328.13311768 C429.70022596 329.67618532 429.70022596 329.67618532 429.72592729 331.25042605 C429.63164479 338.4724245 427.69027629 343.04614819 422.94677734 348.50793457 C417.57947004 353.09250956 412.35541294 353.23423822 405.39990234 353.01965332 C400.21919303 352.25192377 396.52188918 350.32986375 392.94677734 346.50793457 C388.77648161 340.58250738 388.37470336 336.05587067 388.44125366 328.91426086 C388.43516354 327.85910662 388.42907342 326.80395237 388.42279875 325.71682376 C388.40720391 322.18708924 388.41998583 318.65803376 388.43261719 315.1282959 C388.42715614 312.59503757 388.41991459 310.06178255 388.411026 307.52853394 C388.39568544 302.07524692 388.39238075 296.62216293 388.39979172 291.1688633 C388.41032735 283.271355 388.39689243 275.37402542 388.37732716 267.47654089 C388.34600255 254.6451266 388.33098361 241.81375014 388.32763672 228.9822998 C388.32733074 227.83110532 388.32733074 227.83110532 388.32701857 226.65665438 C388.32681521 225.88826823 388.32661184 225.11988207 388.32640231 224.32821149 C388.32348547 213.44727684 388.31668778 202.56635392 388.30517578 191.6854248 C388.30437049 190.92041685 388.30356519 190.1554089 388.30273549 189.36721889 C388.28895618 176.58874584 388.2671477 163.81029353 388.24130595 151.03183955 C388.22590343 143.15978813 388.21864115 135.28780476 388.22210087 127.41573855 C388.2243918 121.37552135 388.21700019 115.33535668 388.20622063 109.29514694 C388.20354571 106.82490734 388.20427612 104.35466125 388.2087307 101.88442421 C388.21440708 98.50171117 388.20778578 95.11922635 388.19833374 91.73652649 C388.20299695 90.76849982 388.20766017 89.80047314 388.21246469 88.80311233 C388.13705689 74.89768104 385.66093214 62.76211206 375.96630859 52.32824707 C364.01333073 41.55438308 349.93264865 41.35558165 334.70220947 41.3742218 C333.25192701 41.37235179 331.80164506 41.37005033 330.3513639 41.36735648 C326.37924629 41.36125559 322.40714978 41.36137005 318.43502855 41.36255085 C314.14587106 41.36275529 309.85672027 41.35723197 305.56756592 41.35249329 C297.16915794 41.34419554 288.77075698 41.34143884 280.37234524 41.34088091 C273.5438809 41.34040533 266.71541887 41.33834849 259.88695526 41.33518028 C240.51619723 41.32637608 221.14544474 41.32176054 201.7746847 41.32251076 C200.20906489 41.32257069 200.20906489 41.32257069 198.61181641 41.32263184 C197.56679174 41.32267272 196.52176708 41.3227136 195.44507501 41.32275572 C178.51138152 41.32316211 161.57771027 41.31359355 144.64402321 41.29949347 C127.24603949 41.28512138 109.84806662 41.27822375 92.45007682 41.27908725 C82.68670191 41.27941893 72.92335033 41.27668441 63.15998077 41.26590919 C54.84695076 41.25679324 46.53395464 41.25463794 38.22092178 41.26141862 C33.98249814 41.26467829 29.74413947 41.26476049 25.50572205 41.25606537 C21.61948552 41.24817499 17.73336524 41.24965756 13.84713146 41.2583495 C12.447435 41.25987892 11.04772976 41.25808956 9.64804366 41.25248943 C-5.83582735 41.19468241 -19.46357726 42.55293004 -31.23291016 53.48840332 C-42.00677415 65.44138118 -42.20557558 79.52206327 -42.18693542 94.75250244 C-42.18880544 96.2027849 -42.1911069 97.65306685 -42.19380075 99.10334802 C-42.19990164 103.07546563 -42.19978717 107.04756214 -42.19860637 111.01968336 C-42.19840193 115.30884085 -42.20392526 119.59799164 -42.20866394 123.887146 C-42.21696168 132.28555398 -42.21971839 140.68395494 -42.22027632 149.08236668 C-42.2207519 155.91083102 -42.22280874 162.73929304 -42.22597694 169.56775665 C-42.23478115 188.93851468 -42.23939669 208.30926717 -42.23864647 227.68002722 C-42.23858654 229.24564702 -42.23858654 229.24564702 -42.23852539 230.84289551 C-42.23846407 232.4104325 -42.23846407 232.4104325 -42.23840151 234.00963691 C-42.23799511 250.9433304 -42.24756367 267.87700165 -42.26166376 284.8106887 C-42.27603584 302.20867242 -42.28293348 319.60664529 -42.28206998 337.0046351 C-42.2817383 346.76801 -42.28447282 356.53136159 -42.29524803 366.29473114 C-42.30436398 374.60776115 -42.30651929 382.92075728 -42.29973861 391.23379013 C-42.29647893 395.47221378 -42.29639673 399.71057244 -42.30509186 403.94898987 C-42.31298224 407.83522639 -42.31149966 411.72134668 -42.30280773 415.60758045 C-42.30127831 417.00727691 -42.30306766 418.40698216 -42.3086678 419.80666825 C-42.36647482 435.29053926 -41.00822719 448.91828917 -30.07275391 460.68762207 C-19.93283437 469.82727875 -7.9948818 471.64832392 5.19787598 471.66615295 C5.98875343 471.67109093 6.77963088 471.67602891 7.59447432 471.68111652 C10.22297441 471.69637486 12.85145032 471.70482021 15.47998047 471.71325684 C17.37276418 471.72284455 19.26554578 471.73285515 21.1583252 471.74325562 C26.28164152 471.77021395 31.40496696 471.79127245 36.52831459 471.8112576 C41.88815587 471.83317331 47.2479693 471.8605346 52.60778809 471.88731384 C62.75063944 471.93716536 72.89350631 471.98213208 83.03638792 472.02533621 C96.74722537 472.08402123 110.45802616 472.15026747 124.16883087 472.21608639 C145.76145497 472.31954307 167.35411067 472.41291066 188.94677734 472.50793457 C188.94677734 424.32793457 188.94677734 376.14793457 188.94677734 326.50793457 C171.78677734 326.50793457 154.62677734 326.50793457 136.94677734 326.50793457 C126.35276889 319.44526227 126.35276889 319.44526227 123.94677734 313.50793457 C123.54678291 310.62690798 123.33797611 308.13728282 123.34521484 305.26574707 C123.33664459 304.49793915 123.32807434 303.73013123 123.31924438 302.9390564 C123.30782263 301.32387208 123.30670935 299.70858495 123.31542969 298.09338379 C123.32174592 295.64511407 123.27479652 293.20170072 123.22412109 290.75402832 C123.15886373 283.02862126 123.14840093 276.64866096 127.97265625 270.23010254 C134.8164144 264.25979954 140.15793766 263.95145534 149.00537109 264.11730957 C150.1496608 264.12296936 151.2939505 264.12862915 152.47291565 264.13446045 C156.11047036 264.15676501 159.74702274 264.20695289 163.38427734 264.25793457 C165.85757036 264.27800711 168.33087889 264.29625656 170.80419922 264.31262207 C176.85206447 264.3566105 182.89934928 264.42346432 188.94677734 264.50793457 C188.9378949 263.52869019 188.92901245 262.5494458 188.91986084 261.54052734 C188.83825044 252.24497439 188.77856287 242.94949552 188.73952866 233.65366364 C188.71878511 228.87625525 188.69071407 224.09913947 188.64501953 219.32189941 C188.60108366 214.69880865 188.57754118 210.07599668 188.56726837 205.45271301 C188.5599616 203.70192587 188.54569749 201.95115139 188.52385712 200.20048523 C188.3493211 185.61011928 190.03321082 172.02969554 196.63427734 158.75793457 C196.97386475 158.05676514 197.31345215 157.3555957 197.66333008 156.63317871 C201.00830004 149.96836605 205.17399341 144.24226838 209.94677734 138.50793457 C210.48560547 137.80668457 211.02443359 137.10543457 211.57958984 136.38293457 C224.82773056 119.87268885 247.14074054 108.45058635 267.94677734 105.50793457 C272.75661946 105.28938886 277.56998191 105.312572 282.38427734 105.32043457 C283.39447433 105.32134094 283.39447433 105.32134094 284.42507935 105.32226562 C312.0807804 105.38993695 312.0807804 105.38993695 319.94677734 111.50793457 C324.84165964 116.79969921 326.26573519 120.88377835 326.35302734 128.01965332 C326.36442749 128.747314 326.37582764 129.47497467 326.38757324 130.22468567 C326.40643078 131.76362333 326.41952438 133.30264098 326.42724609 134.8416748 C326.44657756 137.17135818 326.50860203 139.49744474 326.57177734 141.82629395 C326.68107997 149.30558758 326.71258692 155.8329328 321.66821289 161.8494873 C314.42379649 168.82882649 306.68985892 168.10703576 297.13427734 168.13293457 C277.77188763 167.81203371 277.77188763 167.81203371 261.00146484 176.26574707 C253.26903427 184.5158299 251.88832168 193.35408429 251.74145508 204.45300293 C251.73155548 205.10751434 251.72165588 205.76202576 251.7114563 206.43637085 C251.68017707 208.57347143 251.65521863 210.71059414 251.63037109 212.84777832 C251.60977246 214.33993568 251.58877527 215.8320876 251.56739807 217.32423401 C251.51247762 221.23185786 251.46293728 225.13953172 251.41455078 229.04724121 C251.36411503 233.04264726 251.30854475 237.03798161 251.25341797 241.0333252 C251.14620426 248.85813409 251.04467926 256.68300303 250.94677734 264.50793457 C251.96915749 264.48794907 251.96915749 264.48794907 253.01219177 264.46755981 C260.13399299 264.33437138 267.25543797 264.24413759 274.37817383 264.17834473 C277.03351146 264.15164979 279.68688799 264.10738216 282.34204102 264.05529785 C286.16756616 263.98215754 289.99177204 263.94840027 293.81787109 263.92199707 C295.5855912 263.8755455 295.5855912 263.8755455 297.38902283 263.82815552 C305.11902233 263.82502907 310.19643606 265.18242206 315.94677734 270.50793457 C322.63022933 278.65180882 320.30626327 290.35155396 319.42675781 300.17126465 C318.55584782 308.54660818 317.55876257 316.61820517 310.94677734 322.44543457 C294.42820453 333.80195338 270.99256911 326.50793457 250.94677734 326.50793457 C250.94677734 374.68793457 250.94677734 422.86793457 250.94677734 472.50793457 C266.86927734 472.38418457 282.79177734 472.26043457 299.19677734 472.13293457 C304.20381836 472.09893555 309.21085937 472.06493652 314.36962891 472.02990723 C318.90134828 471.98994882 318.90134828 471.98994882 323.43304443 471.94747925 C325.43415626 471.92992195 327.4353028 471.9160616 329.4364624 471.90524292 C355.23662617 472.00700057 355.23662617 472.00700057 377.12646484 459.52746582 C384.10416329 451.78611368 386.79401564 443.38572818 387.69677734 433.13293457 C388.79677093 424.51205462 391.38341514 419.55163978 397.94677734 413.94543457 C403.51217573 411.2864109 409.99037705 411.62525534 415.94677734 412.50793457 C421.63331267 414.78094233 425.22839937 418.05550628 428.15722656 423.48034668 C429.62787642 427.25701554 429.53624832 431.00179452 429.44677734 435.00793457 C429.43324219 435.88868652 429.41970703 436.76943848 429.40576172 437.67687988 C428.86160966 455.10872786 421.75671801 472.59007532 409.94677734 485.50793457 C409.14626953 486.39996582 408.34576172 487.29199707 407.52099609 488.21105957 C394.788156 501.69939379 377.09570517 511.31708986 358.37665594 512.78857887 C354.33299118 512.89554558 350.29889689 512.91341829 346.25431824 512.89561462 C344.69547354 512.89979506 343.13663189 512.90527646 341.5777958 512.91193444 C337.32401082 512.9263148 333.0704208 512.92216766 328.81662548 512.91476762 C324.2173063 512.91001976 319.61802832 512.92256011 315.01872253 512.93278503 C306.01958811 512.94994713 297.02052359 512.95081837 288.02137705 512.94557213 C280.70342073 512.94152413 273.38548502 512.94298146 266.06752968 512.94832039 C265.02439985 512.94906881 263.98127003 512.94981723 262.90653021 512.95058833 C260.78712858 512.95211988 258.66772696 512.95365823 256.54832534 512.9552033 C236.68997967 512.96891914 216.83167345 512.96349724 196.97332869 512.95201809 C178.82617953 512.94208813 160.67913238 512.95502393 142.53199895 512.97895228 C123.8761613 513.00336511 105.2203711 513.01294569 86.5645178 513.00629956 C76.09964965 513.002812 65.63485992 513.00500866 55.17000389 513.02255058 C46.26094339 513.03729993 37.35201651 513.0378724 28.44295856 513.02047967 C23.90231074 513.01198953 19.36190132 513.00977129 14.82126617 513.02513123 C10.65550268 513.03904795 6.49018026 513.0341264 2.32444183 513.01489199 C0.82656364 513.01115292 -0.67135049 513.01399276 -2.16919646 513.02450364 C-15.33074679 513.1102122 -27.69510828 510.95361879 -39.42822266 504.69543457 C-40.09684326 504.34779053 -40.76546387 504.00014648 -41.4543457 503.64196777 C-46.80454252 500.78839944 -51.56750466 497.60892858 -56.05322266 493.50793457 C-56.94525391 492.70742676 -57.83728516 491.90691895 -58.75634766 491.08215332 C-72.24468188 478.34931323 -81.86237794 460.6568624 -83.33386695 441.93781316 C-83.44083367 437.89414841 -83.45870638 433.86005412 -83.44090271 429.81547546 C-83.44508315 428.25663077 -83.45056454 426.69778911 -83.45722252 425.13895303 C-83.47160288 420.88516804 -83.46745574 416.63157803 -83.46005571 412.3777827 C-83.45530785 407.77846352 -83.46784819 403.17918555 -83.47807312 398.57987976 C-83.49523521 389.58074533 -83.49610646 380.58168081 -83.49086022 371.58253428 C-83.48681222 364.26457796 -83.48826955 356.94664224 -83.49360847 349.6286869 C-83.4943569 348.58555708 -83.49510532 347.54242725 -83.49587642 346.46768743 C-83.49740796 344.3482858 -83.49894631 342.22888418 -83.50049139 340.10948256 C-83.51420723 320.2511369 -83.50878533 300.39283067 -83.49730618 280.53448591 C-83.48737622 262.38733676 -83.50031201 244.2402896 -83.52424037 226.09315618 C-83.54865319 207.43731852 -83.55823378 188.78152833 -83.55158764 170.12567502 C-83.54810009 159.66080688 -83.55029674 149.19601714 -83.56783867 138.73116112 C-83.58258801 129.82210062 -83.58316049 120.91317374 -83.56576776 112.00411578 C-83.55727761 107.46346796 -83.55505938 102.92305855 -83.57041931 98.3824234 C-83.58433603 94.21665991 -83.57941449 90.05133749 -83.56018008 85.88559905 C-83.55644101 84.38772086 -83.55928085 82.88980674 -83.56979173 81.39196076 C-83.65552205 68.22706786 -81.49527369 55.87043248 -75.24072266 44.13293457 C-74.72687012 43.13652954 -74.72687012 43.13652954 -74.20263672 42.11999512 C-71.36942897 36.77541636 -68.013017 32.08055423 -64.05322266 27.50793457 C-63.45638672 26.71516113 -62.85955078 25.9223877 -62.24462891 25.10559082 C-46.85249345 6.86001136 -23.04040192 -0.15084566 0 0 Z " fill="#000000" transform="translate(83.05322265625,-0.5079345703125)"/>
</svg>
