<?xml version="1.0" encoding="UTF-8"?>
<svg version="1.1" xmlns="http://www.w3.org/2000/svg"  width="412" height="412" fill="#E8EFCF">
<path d="M0 0 C1.15822266 0.61875 1.15822266 0.61875 2.33984375 1.25 C13.25206772 7.81598776 20.22546139 17.54704936 23.77734375 29.6484375 C26.85348471 43.36038607 23.95270914 55.48753117 17 67.4375 C14.83170839 70.21562362 12.58145444 72.59864703 10 75 C9.48566406 75.49628906 8.97132813 75.99257812 8.44140625 76.50390625 C3.59659119 80.96829703 -2.21421841 85 -9 85 C-8.9175 86.11375 -8.835 87.2275 -8.75 88.375 C-8.81165265 97.11426288 -12.96480529 103.90054556 -18.859375 110.08984375 C-24.66526682 115.27064867 -32.27308647 118.16258174 -40.06640625 117.89453125 C-42.16781376 117.72004615 -44.26731113 117.51986075 -46.36328125 117.2890625 C-49.0549361 116.94551165 -49.0549361 116.94551165 -52 117 C-51.505 118.1446875 -51.505 118.1446875 -51 119.3125 C-50 122 -50 122 -50 125 C-49.1529248 124.97905273 -48.30584961 124.95810547 -47.43310547 124.93652344 C-44.26859607 124.86805945 -41.10446609 124.81806013 -37.93945312 124.78027344 C-36.57376632 124.76024681 -35.20816431 124.73301668 -33.84277344 124.69824219 C-31.87212898 124.64933568 -29.90084017 124.62908653 -27.9296875 124.609375 C-26.74616699 124.58842773 -25.56264648 124.56748047 -24.34326172 124.54589844 C-18.96186335 125.27683176 -15.92178586 128.03631478 -12.25 131.875 C-8.25739009 137.42029154 -7.5287909 141.80163402 -8.40234375 148.46875 C-9.71809505 154.04134372 -12.49986436 158.37407017 -17.375 161.4375 C-21.02137135 163.00921179 -24.08468827 163.5187624 -28 164 C-28.12472303 171.4071122 -28.18914792 178.8122432 -28.17878246 186.22047329 C-28.17581598 189.66162813 -28.19280803 193.10016353 -28.25708008 196.54077148 C-28.33023912 200.50572589 -28.31360089 204.46797703 -28.29296875 208.43359375 C-28.34531929 210.2669352 -28.34531929 210.2669352 -28.39872742 212.13731384 C-28.31135441 217.42126036 -28.1575979 220.69314153 -24.56929016 224.74412537 C-21.8020532 227.01221482 -18.97657862 229.01937083 -16 231 C-1.16084419 243.95101473 8.85654915 265.22333755 10.18457031 284.70800781 C10.78205175 297.71934815 10.24498165 309.62811268 6 322 C5.649375 323.03898437 5.29875 324.07796875 4.9375 325.1484375 C-3.3655256 347.1168594 -19.91521576 363.51822987 -40.9921875 373.30859375 C-62.357928 382.66581456 -87.11952195 382.64028528 -108.75 374.25 C-119.78622464 369.69656282 -128.41717355 363.19874127 -137 355 C-137.61488281 354.45988281 -138.22976562 353.91976563 -138.86328125 353.36328125 C-152.40538217 341.00416846 -160.99409183 320.51673226 -162.1640625 302.46923828 C-163.30881239 275.63916266 -155.80081147 252.90853997 -137.81214905 232.70330811 C-136 231 -136 231 -133.31565857 229.18585205 C-127.36961806 225.1160704 -127.36961806 225.1160704 -124.02938843 218.95695496 C-123.72994628 215.40144497 -123.76021911 211.99779798 -123.92578125 208.43359375 C-123.94134567 207.15895767 -123.9569101 205.88432159 -123.97294617 204.57106018 C-124.02385845 201.20890296 -124.12227246 197.85523592 -124.24468994 194.49542236 C-124.3579907 191.05693303 -124.40761651 187.61755913 -124.46289062 184.17773438 C-124.58378047 177.44951009 -124.76752657 170.72524415 -125 164 C-126.26996826 163.69908447 -127.53993652 163.39816895 -128.84838867 163.08813477 C-134.2124946 161.81712445 -137.48864016 159.22812825 -141 155 C-144.22739874 149.24726654 -144.74735548 143.33117157 -143 137 C-140.28959648 131.77996359 -136.30578773 127.65289387 -131 125 C-129.40552536 124.91599471 -127.80759455 124.89272533 -126.2109375 124.90234375 C-125.26992187 124.90556641 -124.32890625 124.90878906 -123.359375 124.91210938 C-122.37453125 124.92048828 -121.3896875 124.92886719 -120.375 124.9375 C-119.38242188 124.94201172 -118.38984375 124.94652344 -117.3671875 124.95117188 C-114.9113984 124.96297855 -112.45572896 124.979446 -110 125 C-109.89300781 123.94039063 -109.78601563 122.88078125 -109.67578125 121.7890625 C-109.02183077 118.12240373 -108.31752712 116.34086055 -106.1875 113.375 C-105.65253906 112.62089844 -105.11757812 111.86679688 -104.56640625 111.08984375 C-102.76173045 108.6821092 -100.93383852 106.30573055 -99 104 C-99.31324219 103.29230469 -99.62648437 102.58460938 -99.94921875 101.85546875 C-102.80251093 94.1017268 -102.3435559 86.97061512 -99.640625 79.31640625 C-98.41902185 74.89926801 -99.55831262 71.000584 -100.53125 66.59375 C-102.36219423 56.46252526 -100.75342096 47.00908232 -95.25 38.3125 C-90.40455074 31.55751409 -85.0971313 25.61075729 -77 23 C-75.13176029 22.69666215 -73.26314328 22.39483749 -71.390625 22.11914062 C-65.15973264 21.30858867 -65.15973264 21.30858867 -59.9453125 18.05859375 C-58.50454234 15.75725548 -57.2554482 13.40627573 -56 11 C-44.08386756 -5.0867788 -17.14541538 -9.28347364 0 0 Z M-44.125 17.5625 C-47.93043731 21.50172222 -50.17584435 25.79453058 -52.3828125 30.77734375 C-54 33 -54 33 -56.96875 33.82421875 C-60 34 -60 34 -63.375 33.875 C-70.55959543 34.12274467 -76.68231873 37.22355855 -82 42 C-86.51229774 47.60988368 -88.46614951 53.59672221 -88.33984375 60.82421875 C-87.92473552 63.48186572 -87.00586902 65.65924865 -85.9375 68.125 C-84.17648248 72.20281716 -83.48345605 74.65257401 -85 79 C-85.495 79.763125 -85.99 80.52625 -86.5 81.3125 C-88.86871013 85.55643898 -89.70642317 90.22321354 -88.4921875 94.99609375 C-87.41263867 97.63814746 -86.11786671 99.85594069 -84.3125 102.0625 C-82.44221387 104.82339857 -82.58416315 106.74261131 -83 110 C-84.61342832 112.33050757 -86.52835773 113.33724962 -88.9375 114.875 C-92.97411163 117.6759142 -95.44035273 120.3210582 -97 125 C-86.11 125 -75.22 125 -64 125 C-64.62608524 121.13237379 -64.62608524 121.13237379 -66.5625 119.3125 C-68.78708126 115.7338258 -68.23703418 112.1085925 -68 108 C-67.113125 107.7525 -66.22625 107.505 -65.3125 107.25 C-61.94054127 106.19748261 -61.94054127 106.19748261 -59.5625 103.875 C-56.10071124 101.34198383 -54.22504235 101.49872379 -50 102 C-48.67545451 102.4893903 -47.36275311 103.01180457 -46.0625 103.5625 C-41.55781726 105.39225508 -38.73617702 105.14584928 -34 104 C-28.5028244 101.08973056 -24.00085331 97.00255993 -22 91 C-21.77281504 88.43365139 -21.58391816 85.88321893 -21.4375 83.3125 C-21.37272461 82.2596582 -21.37272461 82.2596582 -21.30664062 81.18554688 C-21.2008264 79.45724794 -21.09993419 77.7286489 -21 76 C-19.94941406 75.64808594 -18.89882813 75.29617187 -17.81640625 74.93359375 C-6.20191195 70.90989236 2.72708789 66.80000897 8.84375 55.53515625 C12.55749139 47.39252732 12.8358374 39.17599649 10.28125 30.58203125 C6.7042851 21.62420104 0.44862381 15.44094329 -8 11 C-9.175625 10.38125 -9.175625 10.38125 -10.375 9.75 C-22.75666252 6.21238214 -34.66395798 8.78365835 -44.125 17.5625 Z M-129 139 C-130.53460375 142.06920751 -131.30684399 143.89536165 -130.375 147.25 C-128.37365552 149.79716571 -126.203809 150.84749545 -122.99127293 151.25447559 C-121.92251627 151.2575549 -121.92251627 151.2575549 -120.83216858 151.26069641 C-119.59787865 151.27132362 -119.59787865 151.27132362 -118.33865356 151.28216553 C-116.99744949 151.2784494 -116.99744949 151.2784494 -115.62915039 151.2746582 C-114.20654655 151.2823246 -114.20654655 151.2823246 -112.75520325 151.29014587 C-109.61929011 151.30404906 -106.48359655 151.30308457 -103.34765625 151.30078125 C-101.16816628 151.30466771 -98.98867707 151.30900227 -96.80918884 151.31376648 C-92.24036199 151.32123021 -87.67161241 151.32093623 -83.1027832 151.31567383 C-77.24714871 151.30987828 -71.39183042 151.32681169 -65.53624821 151.3500185 C-61.03496958 151.36474803 -56.53376725 151.36562861 -52.0324688 151.36250877 C-49.87350272 151.36302235 -47.71453241 151.36826693 -45.55558968 151.37832069 C-42.53693192 151.39065277 -39.51889196 151.38391264 -36.50024414 151.37231445 C-35.60813232 151.37995819 -34.71602051 151.38760193 -33.796875 151.39547729 C-29.07147937 151.35533413 -25.79680143 151.1479953 -22 148 C-20.92346711 145.20101449 -20.80283394 143.69008121 -21.625 140.8125 C-23.53488063 138.29493008 -24.9532552 137.91838161 -28 137 C-31.10119003 136.71250806 -34.18807855 136.72675683 -37.30078125 136.74121094 C-38.22982269 136.7377063 -39.15886414 136.73420166 -40.11605835 136.73059082 C-43.1816153 136.7218011 -46.24694077 136.72761298 -49.3125 136.734375 C-51.44571985 136.73302756 -53.5789394 136.73108636 -55.7121582 136.72857666 C-60.18085659 136.72562913 -64.64947498 136.72991116 -69.11816406 136.73925781 C-74.84479643 136.75065207 -80.57124133 136.74409062 -86.29786682 136.73211288 C-90.70220348 136.7248843 -95.10649574 136.72718682 -99.51083374 136.73236847 C-101.6223452 136.7337022 -103.73386069 136.73206693 -105.84536743 136.72740936 C-108.7967598 136.72232781 -111.74784895 136.73007744 -114.69921875 136.74121094 C-116.00697769 136.73513824 -116.00697769 136.73513824 -117.34115601 136.72894287 C-121.60622511 136.75873393 -125.20686624 136.80270728 -129 139 Z M-111 164 C-111.13088776 184.83717298 -111.13088776 184.83717298 -111.20776367 205.67456055 C-111.23420743 208.28696717 -111.26248405 210.89935616 -111.29296875 213.51171875 C-111.2906575 214.18701126 -111.28834625 214.86230377 -111.28596497 215.55805969 C-111.28104087 217.5579076 -111.31024783 219.55774906 -111.34057617 221.55737305 C-111.34723801 222.68322311 -111.35389984 223.80907318 -111.36076355 224.96903992 C-112.5408358 230.56439026 -117.38191382 233.39716057 -121.75 236.6875 C-137.04669718 248.82014821 -145.7542146 264.79375119 -149 284 C-151.07378617 305.03837721 -145.38745665 324.74960796 -132.3125 341.375 C-118.93969916 356.42451287 -100.76018988 365.98609811 -80.54296875 367.3828125 C-60.51623728 368.18137815 -41.56786207 361.58282065 -26.45385742 348.34057617 C-12.60693943 335.53953082 -3.6871471 317.94020526 -2.6875 299.046875 C-1.99958554 278.07885994 -7.76009758 259.77168476 -22 244 C-22.56460938 243.36578125 -23.12921875 242.7315625 -23.7109375 242.078125 C-27.67647127 237.87056334 -32.08202292 234.76379516 -36.9609375 231.67578125 C-39.38354698 229.68478611 -39.48884866 229.02315345 -40 226 C-40.11421977 223.95353942 -40.17616359 221.90393036 -40.20532227 219.85449219 C-40.22550415 218.59620605 -40.24568604 217.33791992 -40.26647949 216.04150391 C-40.29119324 214.0641626 -40.29119324 214.0641626 -40.31640625 212.046875 C-40.33505737 210.83209473 -40.3537085 209.61731445 -40.3729248 208.36572266 C-40.44123141 203.82722254 -40.50137442 199.28860252 -40.5625 194.75 C-40.7790625 179.52875 -40.7790625 179.52875 -41 164 C-64.1 164 -87.2 164 -111 164 Z " fill="#E8EFCF" transform="translate(325,69)"/>
<path d="M0 0 C4.98597432 0.07200363 9.46935518 1.25005791 14.23046875 2.65234375 C15.58773071 3.04353394 15.58773071 3.04353394 16.97241211 3.44262695 C23.73382727 5.47542877 30.15532513 8.04345258 36.60546875 10.90234375 C61.22029673 21.80217151 84.35755541 20.31021765 109.6159668 12.10913086 C114.24786739 10.64644935 117.74803111 9.62149491 122.54296875 11.21484375 C128.33571277 19.60433509 127.37560591 32.17658526 126.046875 41.8125 C122.43812324 60.2232505 113.3617214 76.83987796 97.77416992 87.64526367 C81.89742858 98.21895299 63.41183066 102.31171032 44.54296875 99.21484375 C27.33652362 95.61226963 12.21570673 86.6650702 1.73046875 72.33984375 C-5.4832211 61.28577225 -10.62827909 49.49999196 -11.45703125 36.21484375 C-11.50988281 35.41949219 -11.56273437 34.62414062 -11.6171875 33.8046875 C-11.99347479 22.69603221 -9.95664845 10.97542563 -4.45703125 1.21484375 C-3.45703125 0.21484375 -3.45703125 0.21484375 0 0 Z M4.54296875 14.21484375 C-0.04400377 30.68915909 1.15347161 44.44123948 9.4140625 59.82421875 C17.30675394 72.91015908 29.51139296 81.97913686 44.375 85.76171875 C60.63805065 89.16084285 75.40185318 85.93660964 89.54296875 77.21484375 C102.2854799 67.81920283 110.55551185 54.37172221 113.2734375 38.75 C113.7535877 34.23380462 113.67056154 29.74758997 113.54296875 25.21484375 C112.9382373 25.36107178 112.33350586 25.5072998 111.71044922 25.65795898 C108.94680813 26.32492617 106.18240029 26.98866078 103.41796875 27.65234375 C102.46664062 27.88244141 101.5153125 28.11253906 100.53515625 28.34960938 C99.60703125 28.57197266 98.67890625 28.79433594 97.72265625 29.0234375 C96.87429199 29.22767334 96.02592773 29.43190918 95.15185547 29.64233398 C78.67811084 33.25743142 57.30294972 33.55585867 41.54296875 27.21484375 C40.13772949 26.65917725 40.13772949 26.65917725 38.70410156 26.09228516 C34.36345288 24.36920337 30.02561818 22.6451246 25.72143555 20.83251953 C18.77329245 17.93593801 11.89462335 15.83353415 4.54296875 14.21484375 Z " fill="#E8EFCF" transform="translate(191.45703125,331.78515625)"/>
<path d="M0 0 C4.62291115 2.33138191 7.38798679 5.43766363 9.0625 10.3515625 C9.96390795 15.64733421 9.01916951 19.86558118 6.0625 24.3515625 C1.15772294 28.77782473 -1.85040927 29.70769939 -8.328125 29.6328125 C-13.29488576 29.09747302 -16.44907159 26.93601855 -19.875 23.2890625 C-21.55141872 18.65425782 -21.58756862 14.21636171 -20.9375 9.3515625 C-16.78735261 1.05126772 -9.16408697 -3.06701298 0 0 Z M-6.9375 12.3515625 C-7.2675 13.6715625 -7.5975 14.9915625 -7.9375 16.3515625 C-6.6175 16.0215625 -5.2975 15.6915625 -3.9375 15.3515625 C-4.2675 14.3615625 -4.5975 13.3715625 -4.9375 12.3515625 C-5.5975 12.3515625 -6.2575 12.3515625 -6.9375 12.3515625 Z " fill="#E8EFCF" transform="translate(285.9375,369.6484375)"/>
<path d="M0 0 C3.93888693 2.0485543 6.2672425 4.19939355 7.97265625 8.2734375 C9.23894361 13.53340039 9.1462972 17.29217698 6.97265625 22.2734375 C4.00665727 25.44620083 0.5188184 28.95711186 -3.9453125 29.51171875 C-9.5447615 29.69483326 -13.78942027 29.16093836 -18.02734375 25.2734375 C-21.11287808 21.33426831 -22.36467576 17.64938458 -22.02734375 12.6484375 C-21.29207306 8.42609097 -19.89459984 5.52816063 -17.02734375 2.2734375 C-11.87167586 -1.3235401 -5.94317668 -2.12992459 0 0 Z M-8.02734375 12.2734375 C-8.02734375 13.5934375 -8.02734375 14.9134375 -8.02734375 16.2734375 C-7.03734375 16.2734375 -6.04734375 16.2734375 -5.02734375 16.2734375 C-5.02734375 14.9534375 -5.02734375 13.6334375 -5.02734375 12.2734375 C-6.01734375 12.2734375 -7.00734375 12.2734375 -8.02734375 12.2734375 Z " fill="#E8EFCF" transform="translate(279.02734375,315.7265625)"/>
<path d="M0 0 C4.43118719 2.13646525 7.2290203 4.37577522 9 9 C9.66541913 14.37264334 9.69575726 18.60848549 7.25 23.5 C3.44601346 27.72665171 0.58021709 29.74703754 -5.1875 30.3125 C-9.88971801 29.92707229 -13.25206843 28.90241122 -17 26 C-19.82684052 22.34965412 -20.88771757 18.93034013 -21.4375 14.375 C-20.77220469 9.24272191 -19.28794613 6.16229285 -15.4375 2.6875 C-10.48002278 -0.74459961 -5.91632795 -0.60166047 0 0 Z M-7 13 C-7 14.32 -7 15.64 -7 17 C-6.01 16.67 -5.02 16.34 -4 16 C-4 15.01 -4 14.02 -4 13 C-4.99 13 -5.98 13 -7 13 Z " fill="#E8EFCF" transform="translate(248,385)"/>
<path d="M0 0 C3.5924198 3.09115192 5.30318999 5.71247674 6.00390625 10.453125 C6.25048288 15.13012679 5.69097021 18.86188169 3.07421875 22.80078125 C-0.14365784 26.30871995 -3.89229634 28.18745614 -8.65625 28.43359375 C-13.13925227 28.08242524 -16.83099991 27.29664293 -20.3125 24.3125 C-23.70492644 19.72813995 -24.98217284 16.24106162 -24.69921875 10.5234375 C-23.86205474 5.73722707 -21.73989751 2.38304814 -17.8125 -0.5625 C-11.56173017 -3.37534642 -6.12144528 -3.11847213 0 0 Z M-11.3125 11.3125 C-10.9825 12.6325 -10.6525 13.9525 -10.3125 15.3125 C-9.3225 14.9825 -8.3325 14.6525 -7.3125 14.3125 C-7.6425 12.9925 -7.9725 11.6725 -8.3125 10.3125 C-9.5361068 10.2379644 -9.5361068 10.2379644 -11.3125 11.3125 Z " fill="#E8EFCF" transform="translate(226.3125,358.6875)"/>
<path d="M0 0 C4.004793 2.0023965 6.6587028 4.17998877 9 8 C10.67374639 13.02123916 10.56044001 17.32232007 8.5 22.1875 C6.0455217 26.65413013 2.81467278 28.56372801 -2 30 C-7.2453441 30.63305877 -10.56130208 29.86049421 -15 27 C-19.67053735 21.8245397 -20.35288022 18.60631056 -20.28125 11.765625 C-19.78356676 6.87173983 -17.45468158 4.3224378 -13.9375 1.125 C-9.31545511 -0.64514485 -4.88061099 -0.6521815 0 0 Z M-7 13 C-6.67 14.32 -6.34 15.64 -6 17 C-5.01 16.67 -4.02 16.34 -3 16 C-3.33 15.01 -3.66 14.02 -4 13 C-4.99 13 -5.98 13 -7 13 Z " fill="#E8EFCF" transform="translate(249,283)"/>
<path d="M0 0 C5.12857231 4.17345358 10.07791743 9.79137799 11.75 16.3125 C12.27543786 22.40757923 12.27543786 22.40757923 10.625 25.25 C7.81487736 26.84240283 5.92235276 26.76569325 2.75 26.3125 C-0.32364144 24.14287075 -1.6310408 21.63625352 -3.1875 18.3125 C-5.35272058 13.76215363 -7.99399501 11.39096184 -12.5625 9.20703125 C-16.3423008 7.94892895 -19.69520835 8.31146469 -23.62890625 8.53515625 C-26.78014472 8.26746535 -28.04491293 7.55331765 -30.25 5.3125 C-30.68341637 1.84516903 -30.9734142 -0.54526705 -29.0625 -3.5625 C-20.49076972 -8.88288431 -7.67879231 -5.37808545 0 0 Z " fill="#E8EFCF" transform="translate(322.25,84.6875)"/>
<path d="M0 0 C1.65869141 1.0234375 1.65869141 1.0234375 3 3 C3.29825343 5.76419033 3.42044886 8.29848594 3.3984375 11.0625 C3.40274277 12.24404663 3.40274277 12.24404663 3.40713501 13.44946289 C3.40917522 15.11377685 3.40364832 16.77811481 3.39111328 18.44238281 C3.37505809 20.99077947 3.39096244 23.53759021 3.41015625 26.0859375 C3.40817381 27.7031285 3.40433011 29.32031852 3.3984375 30.9375 C3.40754654 32.08134155 3.40754654 32.08134155 3.4168396 33.24829102 C3.34731487 38.47441847 3.34731487 38.47441847 1.69384766 40.9765625 C-1.2342801 42.74576278 -3.69325174 42.41334353 -7 42 C-9.64312899 39.58307616 -9.99145037 38.07430689 -10.40405273 34.48828125 C-10.43049902 33.09657059 -10.43934488 31.70445003 -10.43359375 30.3125 C-10.4388356 29.57298096 -10.44407745 28.83346191 -10.44947815 28.0715332 C-10.45588747 26.51156874 -10.45457542 24.95155587 -10.44604492 23.39160156 C-10.43752711 21.00758769 -10.46631892 18.62596523 -10.49804688 16.2421875 C-10.4996589 14.72395905 -10.49908133 13.20572637 -10.49609375 11.6875 C-10.50732773 10.97698486 -10.51856171 10.26646973 -10.53013611 9.53442383 C-10.48235969 6.13493806 -10.22398739 4.29868949 -8.16040039 1.546875 C-5.24883163 -0.5378464 -3.50392361 -0.52186096 0 0 Z " fill="#E8EFCF" transform="translate(227,234)"/>
<path d="M0 0 C2.97982138 4.46973207 2.60816742 8.75924864 2 14 C-0.16596222 18.41214525 -2.86657153 21.34279599 -7 24 C-10.5461471 25.10817097 -12.33870685 25.21563907 -15.875 24.0625 C-18 22 -18 22 -18.6875 18.0625 C-18.56640625 15.91015625 -18.56640625 15.91015625 -18 14 C-16.02678947 12.6273318 -14.02456848 11.29572383 -12 10 C-11.24894883 7.95964433 -10.88244303 5.97661237 -10.4765625 3.84375 C-10 2 -10 2 -8.25 -0.0625 C-5.11524557 -1.36864768 -3.21228015 -0.97765048 0 0 Z " fill="#E8EFCF" transform="translate(299,147)"/>
</svg>
