<?xml version="1.0" encoding="UTF-8"?>
<svg version="1.1" xmlns="http://www.w3.org/2000/svg" width="512" height="512" fill="#E8EFCF">
<path d="M0 0 C1.05668381 -0.00686325 2.11336761 -0.0137265 3.20207214 -0.02079773 C6.66618606 -0.03897463 10.12984315 -0.03524124 13.59399414 -0.02954102 C16.01957851 -0.03410702 18.44516158 -0.03941384 20.8707428 -0.04542542 C25.94350454 -0.05433856 31.0161087 -0.05195358 36.08886719 -0.04199219 C42.56934019 -0.03050253 49.04926829 -0.05072389 55.52966976 -0.07990932 C60.53560301 -0.09830949 65.54140658 -0.09797125 70.54736519 -0.0922718 C72.93582486 -0.09211907 75.32429359 -0.09812339 77.71272087 -0.11056328 C81.06012442 -0.12554399 84.40653252 -0.11474354 87.75390625 -0.09765625 C88.727229 -0.10732422 89.70055176 -0.11699219 90.70336914 -0.12695312 C98.71281081 -0.04191352 106.75710728 1.73927677 113.31665039 6.59155273 C119.65437055 13.38196719 122.33131142 20.48965585 122.22290039 29.67749023 C121.46755344 37.00015924 118.15475699 43.31218117 112.94165039 48.40405273 C107.16665039 52.40405273 107.16665039 52.40405273 103.94165039 52.40405273 C104.00242252 67.15652117 104.08008766 81.90882201 104.1773653 96.66109657 C104.22215683 103.51224851 104.26160882 110.36335039 104.28808594 117.21459961 C104.31368563 123.83479336 104.35470075 130.4547797 104.40483665 137.07484055 C104.42143438 139.59196541 104.43299258 142.10912904 104.4392643 144.62630081 C104.52835343 177.11549237 115.20342713 198.87325917 131.45336914 226.45874023 C133.65509975 230.19643575 135.82706009 233.94767741 137.96118164 237.72436523 C138.4157373 238.52116699 138.87029297 239.31796875 139.33862305 240.13891602 C140.17908843 241.6141029 141.01124977 243.09406195 141.83374023 244.5793457 C143.03034998 246.72607122 143.03034998 246.72607122 144.94165039 249.40405273 C149.68203091 249.40405273 152.54534584 246.53330915 155.94165039 243.40405273 C159.49458448 238.71054605 161.0481231 233.98969623 161.09986877 228.16461182 C161.10965759 227.32611191 161.11944641 226.487612 161.12953186 225.623703 C161.13528732 224.71236099 161.14104279 223.80101898 161.14697266 222.86206055 C161.15687225 221.89587296 161.16677185 220.92968536 161.17697144 219.93421936 C161.20854881 216.74189705 161.23332908 213.54955985 161.25805664 210.35717773 C161.27862941 208.14328628 161.29962597 205.92939872 161.32102966 203.71551514 C161.37621695 197.88929401 161.42564102 192.06303764 161.47387695 186.23675537 C161.52411634 180.29118717 161.57978969 174.34567014 161.63500977 168.40014648 C161.74255048 156.73482562 161.84400457 145.06946032 161.94165039 133.40405273 C161.05799805 133.21842773 161.05799805 133.21842773 160.15649414 133.02905273 C154.41524082 131.40894598 150.92263261 127.8664258 148.06665039 122.84155273 C144.80572494 116.61124153 143.81730351 110.20244649 145.43774414 103.28686523 C148.00238849 95.83925395 151.96331554 90.24925765 158.94165039 86.40405273 C163.72285473 84.46123094 168.09206926 84.10736141 173.19091797 84.11352539 C174.39949715 84.10344955 174.39949715 84.10344955 175.63249207 84.09317017 C178.28378548 84.0742452 180.93482497 84.07026869 183.58618164 84.06811523 C185.43934735 84.06168321 187.29251205 84.05495455 189.14567566 84.04794312 C193.02666578 84.0359839 196.90756698 84.03226087 200.78857422 84.03344727 C205.74482656 84.03365031 210.70050459 84.0063569 215.65662098 83.97190285 C219.48380618 83.94958917 223.31085419 83.9456111 227.13809776 83.94666672 C228.96442327 83.94431716 230.79075293 83.93553019 232.61701393 83.92000198 C251.70336007 83.77291518 251.70336007 83.77291518 260.24633789 90.11499023 C265.88424408 96.08948784 268.55839573 101.42174216 269.19165039 109.65405273 C268.7229324 116.68482256 266.42907976 122.91941684 261.94165039 128.40405273 C256.16122711 133.40405273 256.16122711 133.40405273 251.94165039 133.40405273 C251.95654888 146.26992414 251.99824904 159.13540698 252.07374096 172.00107384 C252.10796573 177.97578278 252.13311399 183.95023723 252.13720703 189.92504883 C252.14149954 195.69597673 252.17004216 201.46633096 252.21508217 207.23707962 C252.22802659 209.433739 252.23237575 211.63046712 252.22780418 213.82715988 C252.22287661 216.91509962 252.24908741 220.00137656 252.28222656 223.08911133 C252.27360092 223.98823242 252.26497528 224.88735352 252.25608826 225.8137207 C252.3924108 233.43943123 254.84770899 240.02884393 260.04711914 245.70092773 C260.73418945 246.18045898 261.42125977 246.65999023 262.12915039 247.15405273 C262.9090332 247.70834961 263.68891602 248.26264648 264.49243164 248.83374023 C266.90182886 250.37852122 269.34303005 251.83971244 271.81665039 253.27905273 C297.53556024 268.37751907 316.16941156 294.8854441 323.94165039 323.40405273 C332.28508262 357.19845891 327.77792278 390.1958302 310.25170898 420.26196289 C304.14943465 430.23985238 296.22442406 438.24379188 287.94165039 446.40405273 C288.94643181 446.4128521 288.94643181 446.4128521 289.97151184 446.42182922 C296.93067071 446.48566254 303.8893628 446.57005601 310.84814453 446.66650391 C313.44671482 446.69980017 316.04535826 446.72781727 318.64404297 446.75048828 C322.37507358 446.78394725 326.105431 446.83626003 329.83618164 446.89233398 C331.58473198 446.90191887 331.58473198 446.90191887 333.36860657 446.91169739 C334.98994759 446.94138863 334.98994759 446.94138863 336.64404297 446.97167969 C337.59668533 446.98278275 338.5493277 446.9938858 339.53083801 447.00532532 C342.36098832 447.47340758 343.26276458 448.11300699 344.94165039 450.40405273 C345.41040039 452.99780273 345.41040039 452.99780273 345.44165039 455.90405273 C345.47258789 456.86311523 345.50352539 457.82217773 345.53540039 458.81030273 C344.94165039 461.40405273 344.94165039 461.40405273 342.93016338 463.0425669 C339.09267006 464.79082525 335.66564516 464.81844068 331.5316925 464.78157616 C330.68323442 464.78593648 329.83477634 464.7902968 328.96060741 464.79478925 C326.10427404 464.80577817 323.24842007 464.79530652 320.39208984 464.78500366 C318.32893533 464.78845878 316.26578265 464.79322236 314.20263386 464.7991854 C308.5227468 464.81174502 302.84301036 464.80550246 297.16312265 464.79622674 C291.04171111 464.78945688 284.92032601 464.79990722 278.79891968 464.8081665 C267.49673201 464.82075533 256.19460594 464.81963649 244.89241979 464.8114321 C234.45192581 464.80389027 224.01144951 464.80191306 213.57095337 464.80550003 C212.53279727 464.80584376 212.53279727 464.80584376 211.47366831 464.80619444 C208.66430743 464.80712843 205.85494655 464.80808363 203.04558568 464.80907373 C176.68285152 464.8182541 150.32014806 464.80992501 123.95741864 464.79378304 C100.52734142 464.77954585 77.09731312 464.78081972 53.66723633 464.79516602 C27.35322284 464.81122424 1.03923648 464.81760308 -25.27478123 464.80832922 C-28.07907167 464.80736705 -30.88336213 464.80642853 -33.68765259 464.80550003 C-34.37815821 464.8052628 -35.06866383 464.80502557 -35.78009387 464.80478115 C-46.21492475 464.80136638 -56.64973604 464.80536392 -67.08456421 464.81293869 C-78.94749759 464.82150712 -90.81037319 464.81910248 -102.67330432 464.80309646 C-108.72953875 464.79519526 -114.78567374 464.79215359 -120.8419075 464.80204391 C-126.38097203 464.81095306 -131.91984452 464.80612054 -137.45889151 464.79011126 C-139.46756411 464.78674738 -141.47625279 464.78849333 -143.48491514 464.79573862 C-146.20630768 464.80480524 -148.92703447 464.79556152 -151.64839172 464.78157616 C-152.82980435 464.7921114 -152.82980435 464.7921114 -154.03508389 464.80285949 C-158.54268768 464.7562704 -161.48190967 464.21587017 -165.05834961 461.40405273 C-166.62306194 458.27462808 -166.75536919 454.7932305 -166.05834961 451.40405273 C-163.98432277 448.83409556 -162.76358837 447.55412067 -159.49291992 446.8581543 C-158.55029297 446.83720703 -157.60766602 446.81625977 -156.63647461 446.79467773 C-155.61166992 446.76245117 -154.58686523 446.73022461 -153.53100586 446.69702148 C-152.4675293 446.6828418 -151.40405273 446.66866211 -150.30834961 446.65405273 C-148.68993164 446.60958008 -148.68993164 446.60958008 -147.03881836 446.56420898 C-144.37858717 446.49358338 -141.71922859 446.44085077 -139.05834961 446.40405273 C-139.39898437 445.87513428 -139.73961914 445.34621582 -140.09057617 444.80126953 C-140.53884766 444.09655518 -140.98711914 443.39184082 -141.44897461 442.66577148 C-142.11461426 441.6248938 -142.11461426 441.6248938 -142.79370117 440.56298828 C-146.64939225 433.98077279 -148.19078669 426.9856494 -148.37084961 419.40405273 C-148.40823242 418.39342773 -148.44561523 417.38280273 -148.48413086 416.34155273 C-147.31069499 405.48996227 -142.82646456 396.43494457 -137.24584961 387.21655273 C-136.2394367 385.51392267 -135.23304526 383.81127948 -134.22793579 382.10787964 C-133.19285151 380.35733483 -132.15215008 378.61022676 -131.1105957 376.86352539 C-127.86695482 371.41160264 -124.71859332 365.90456926 -121.55834961 360.40405273 C-120.3087775 358.23713926 -119.05877652 356.07047305 -117.80834961 353.90405273 C-116.88022461 352.29530273 -116.88022461 352.29530273 -115.93334961 350.65405273 C-65.30834961 262.90405274 -65.30834961 262.90405274 -63.43261719 259.65283203 C-62.18500221 257.4902669 -60.93744344 255.32766934 -59.68994141 253.16503906 C-56.52891512 247.68534902 -53.36685652 242.20625916 -50.20288086 236.72827148 C-47.07659377 231.31537629 -43.95520765 225.89967371 -40.83520508 220.4831543 C-39.1035629 217.48240256 -37.36475486 214.48590193 -35.62475586 211.48999023 C-34.56077708 209.64894651 -33.49696589 207.80780591 -32.43334961 205.96655273 C-31.9606665 205.15726318 -31.4879834 204.34797363 -31.00097656 203.51416016 C-26.27949225 195.31422402 -22.17059509 186.96778728 -19.80834961 177.77905273 C-19.49381836 176.59053711 -19.17928711 175.40202148 -18.85522461 174.17749023 C-17.18502474 166.2686026 -16.90005486 158.44014127 -16.85302734 150.37646484 C-16.84312775 149.31201141 -16.83322815 148.24755798 -16.82302856 147.15084839 C-16.79164707 143.66105308 -16.76674921 140.1712442 -16.74194336 136.68139648 C-16.72135363 134.25044925 -16.70035665 131.81950542 -16.67897034 129.38856506 C-16.62395811 123.01167582 -16.57445743 116.63475539 -16.52612305 110.2578125 C-16.47575517 103.74207812 -16.42014914 97.22638864 -16.36499023 90.71069336 C-16.25766392 77.94185182 -16.15598489 65.17297186 -16.05834961 52.40405273 C-16.83557373 52.27135986 -17.61279785 52.13866699 -18.41357422 52.00195312 C-23.96068409 50.74792635 -28.00796495 45.89068944 -31.52709961 41.62280273 C-35.76739724 34.71717516 -35.14642649 25.36164807 -33.46850586 17.71655273 C-31.15507784 11.57584057 -26.60084832 6.81600876 -21.05834961 3.40405273 C-14.02878023 0.65461538 -7.49096053 -0.03457402 0 0 Z M-15.05834961 20.40405273 C-17.50698211 24.07700149 -17.89018399 27.13674238 -17.05834961 31.40405273 C-14.52381304 34.62359918 -12.94537656 36.10837708 -9.05834961 37.40405273 C-7.61025547 37.49871008 -6.15823557 37.53890603 -4.70706177 37.54449463 C-3.81826324 37.55020477 -2.92946472 37.55591492 -2.01373291 37.5617981 C-0.55492706 37.56347488 -0.55492706 37.56347488 0.93334961 37.56518555 C1.9596347 37.57015045 2.9859198 37.57511536 4.04330444 37.58023071 C7.44432237 37.5948569 10.84529366 37.60165479 14.24633789 37.60717773 C16.60661826 37.61292839 18.96689862 37.61868613 21.32717896 37.62445068 C26.27858702 37.63496169 31.22997883 37.64080385 36.18139648 37.64428711 C42.52915098 37.64977491 48.87669131 37.67380881 55.22437859 37.70225906 C60.10052114 37.72087192 64.97661194 37.72609031 69.85278702 37.72762299 C72.19317929 37.73065261 74.53357059 37.73869152 76.87392807 37.75180817 C80.14650585 37.76884156 83.41855812 37.76699493 86.69116211 37.76049805 C87.65965088 37.76971283 88.62813965 37.77892761 89.62597656 37.78842163 C95.70484354 37.75057202 99.32099706 37.02470606 103.75415039 32.59155273 C105.40455906 29.55132624 105.48893066 27.82455442 104.94165039 24.40405273 C102.86729998 20.97859286 100.82388454 18.69813078 96.94165039 17.40405273 C95.49580192 17.3094107 94.04602359 17.26920021 92.59709167 17.26361084 C91.70973831 17.2579007 90.82238495 17.25219055 89.90814209 17.24630737 C88.9371759 17.24518951 87.96620972 17.24407166 86.96582031 17.24291992 C85.94114151 17.23795502 84.91646271 17.23299011 83.86073303 17.22787476 C80.46452161 17.21324727 77.06835691 17.2064501 73.67211914 17.20092773 C71.3142344 17.19517673 68.95634967 17.18941899 66.59846497 17.18365479 C61.65125307 17.1731431 56.70405743 17.16730154 51.75683594 17.16381836 C45.41814776 17.15833357 39.07967439 17.13430637 32.74105358 17.10584641 C27.86915967 17.08722112 22.99731751 17.08201447 18.12539101 17.08048248 C15.78861632 17.07745515 13.45184255 17.06942393 11.11510277 17.0562973 C7.84512372 17.03923966 4.57566957 17.04111662 1.30566406 17.04760742 C-0.14167618 17.03378525 -0.14167618 17.03378525 -1.61825562 17.01968384 C-6.83378781 17.05210813 -10.5889341 17.39968404 -15.05834961 20.40405273 Z M0.94165039 54.40405273 C0.86817383 65.83739258 0.86817383 65.83739258 0.79321289 77.50170898 C0.75779181 82.3552372 0.72181193 87.20874858 0.68383789 92.06225586 C0.62373005 99.75143923 0.56559539 107.44059929 0.51977539 115.12988281 C0.48266881 121.33508236 0.43624277 127.54015097 0.38358688 133.74523735 C0.36517685 136.10244874 0.35002055 138.45968804 0.33830643 140.81694221 C0.19623929 168.43849944 -3.81756083 191.25287607 -17.74584961 215.59155273 C-18.36596924 216.68669189 -18.98608887 217.78183105 -19.625 218.91015625 C-23.80672579 226.27404169 -28.06690923 233.58916963 -32.38647461 240.87280273 C-35.71836925 246.50273224 -38.97975725 252.17328326 -42.24584961 257.84155273 C-42.8773291 258.93717529 -43.50880859 260.03279785 -44.15942383 261.16162109 C-46.80751144 265.75757764 -49.45413135 270.35437848 -52.1003418 274.95141602 C-53.45413033 277.30316212 -54.80838655 279.65463785 -56.16308594 282.00585938 C-57.42935955 284.20379707 -58.69487341 286.40217273 -59.95947266 288.60107422 C-60.53995361 289.60855713 -61.12043457 290.61604004 -61.71850586 291.65405273 C-62.2716748 292.61827148 -62.82484375 293.58249023 -63.39477539 294.57592773 C-64.51571691 296.48156122 -65.67140948 298.36712373 -66.85864258 300.23217773 C-67.41825684 301.11389648 -67.97787109 301.99561523 -68.55444336 302.90405273 C-69.06031982 303.67749023 -69.56619629 304.45092773 -70.08740234 305.24780273 C-71.24645217 307.34350135 -71.24645217 307.34350135 -70.84375 309.57592773 C-69.79136096 312.02550471 -68.26399944 312.98105284 -66.05834961 314.40405273 C-61.75935522 312.89545658 -60.48833314 310.21290876 -58.34350586 306.32983398 C-58.0058873 305.72777634 -57.66826874 305.12571869 -57.32041931 304.50541687 C-56.24351416 302.58136478 -55.18148929 300.64961133 -54.12084961 298.71655273 C-44.68969765 281.67845199 -44.68969765 281.67845199 -41.05834961 277.40405273 C-37.96602188 276.51728228 -36.3677402 276.82622263 -33.05834961 277.40405273 C-30.55834961 279.02905273 -30.55834961 279.02905273 -29.05834961 281.40405273 C-28.59110601 286.20063966 -29.52775868 288.97008495 -31.90991211 293.10717773 C-32.81676758 294.70239258 -32.81676758 294.70239258 -33.74194336 296.32983398 C-34.38260742 297.42682617 -35.02327148 298.52381836 -35.68334961 299.65405273 C-36.30081055 300.73557617 -36.91827148 301.81709961 -37.55444336 302.93139648 C-39.94312274 307.1002706 -42.3365437 311.25546323 -44.89331055 315.32397461 C-45.45050781 316.21149414 -46.00770508 317.09901367 -46.58178711 318.01342773 C-47.08371582 318.79169922 -47.58564453 319.5699707 -48.1027832 320.37182617 C-49.40097275 322.52593192 -49.40097275 322.52593192 -48.05834961 325.40405273 C-31.9320047 335.83056884 -11.29783115 339.06472638 7.44165039 335.46655273 C29.44572805 329.37737401 48.18079143 314.87565272 66.31665039 301.59155273 C74.87916212 295.31980837 83.71926917 289.65720163 92.94165039 284.40405273 C93.94228516 283.83364258 93.94228516 283.83364258 94.96313477 283.25170898 C107.28416105 276.36174205 120.91849738 271.37818592 134.94165039 269.40405273 C134.2647901 265.9178912 132.87177464 263.22656263 131.13305664 260.14233398 C130.55604004 259.11462891 129.97902344 258.08692383 129.38452148 257.02807617 C128.76399902 255.93527344 128.14347656 254.8424707 127.50415039 253.71655273 C126.86815918 252.58894531 126.23216797 251.46133789 125.5769043 250.29956055 C122.04351617 244.05263727 118.46932847 237.83194538 114.81665039 231.65405273 C114.42840088 230.99655029 114.04015137 230.33904785 113.64013672 229.66162109 C111.91182412 226.73621193 110.18327728 223.81097833 108.44848633 220.8894043 C96.34582669 200.43853238 87.8697827 181.27844198 87.73632812 157.14453125 C87.72642853 156.03160202 87.71652893 154.91867279 87.70632935 153.77201843 C87.67484944 150.10901994 87.65001045 146.4460085 87.62524414 142.78295898 C87.60466295 140.23705211 87.58366617 137.69114857 87.56227112 135.14524841 C87.51279666 129.13895488 87.46750039 123.13264401 87.42424875 117.12630361 C87.36988582 109.61273234 87.30909584 102.09921479 87.24829102 94.58569336 C87.13992667 81.19185454 87.04124127 67.79796604 86.94165039 54.40405273 C58.56165039 54.40405273 30.18165039 54.40405273 0.94165039 54.40405273 Z M162.94165039 105.40405273 C161.69326658 108.80934269 161.69326658 108.80934269 161.94165039 112.40405273 C163.70806211 115.20594719 164.97214861 116.91930184 167.94165039 118.40405273 C170.38640865 118.5228164 172.80361042 118.58233718 175.24951172 118.59692383 C176.00255081 118.60510132 176.7555899 118.61327881 177.53144836 118.6217041 C180.02885134 118.64656004 182.52619747 118.66307451 185.02368164 118.67749023 C185.8761466 118.68281391 186.72861156 118.68813759 187.6069088 118.69362259 C192.11895219 118.72035501 196.63096791 118.73972961 201.14306641 118.75415039 C205.80397118 118.77079902 210.46416897 118.81557779 215.1248064 118.86652184 C218.70819411 118.9001749 222.2914136 118.91172564 225.87494469 118.91737747 C227.59296764 118.92409532 229.31097932 118.93933137 231.02884865 118.96326828 C233.43502057 118.99488305 235.83928045 118.99496308 238.24560547 118.98754883 C238.9538446 119.00395416 239.66208374 119.0203595 240.39178467 119.03726196 C244.28198493 118.98825213 245.82036313 118.50443098 248.8601532 115.98867798 C251.38559354 113.02515567 251.38559354 113.02515567 251.94165039 109.40405273 C250.38190643 105.50469284 249.47436766 103.75919758 245.94165039 101.40405273 C243.43146629 101.19990852 241.03128376 101.1103231 238.52026367 101.11352539 C237.76707855 101.10680817 237.01389343 101.10009094 236.23788452 101.09317017 C233.74584369 101.07415905 231.25407175 101.07026437 228.76196289 101.06811523 C227.02944833 101.06168921 225.29693487 101.054961 223.56442261 101.04794312 C219.93118779 101.03596239 216.2980481 101.03226308 212.66479492 101.03344727 C208.01183881 101.03365044 203.35949357 101.00635346 198.70668221 100.97190285 C195.12756556 100.94965137 191.5485963 100.94560919 187.96941757 100.94666672 C186.25421926 100.94430792 184.53901707 100.93546865 182.82388687 100.92000198 C180.42276664 100.90037781 178.02296826 100.90616516 175.62182617 100.91821289 C174.91515808 100.90697388 174.20848999 100.89573486 173.48040771 100.88415527 C168.71572555 100.94482356 166.23312488 101.95784279 162.94165039 105.40405273 Z M178.94165039 135.40405273 C178.90426758 142.43459961 178.86688477 149.46514648 178.82836914 156.70874023 C178.79807683 161.17491012 178.76692062 165.64104077 178.73266602 170.10717773 C178.6784324 177.18886287 178.62731862 184.27047038 178.59521484 191.35229492 C178.56911804 197.06475879 178.5286703 202.77696058 178.47846413 208.48926163 C178.46183854 210.66359308 178.45029754 212.83796981 178.44403648 215.0123558 C178.43434855 218.0688164 178.40623299 221.12461296 178.37402344 224.1809082 C178.37545853 225.07067856 178.37689362 225.96044891 178.37837219 226.87718201 C178.21299636 238.04562986 174.59148804 248.53146163 166.76196289 256.66967773 C162.72581394 260.33890406 158.51170675 263.42301022 153.94165039 266.40405273 C159.64954764 277.46531945 165.85610069 288.20656201 172.15649414 298.93920898 C175.35636591 304.39185688 178.51795109 309.86559216 181.66625977 315.34814453 C184.15157445 319.67158315 186.65260939 323.98584942 189.15307617 328.30053711 C190.89970038 331.3312615 192.62287052 334.3744196 194.34399414 337.41967773 C195.39656243 339.24827333 196.44990369 341.07642429 197.50415039 342.90405273 C197.96837402 343.74097656 198.43259766 344.57790039 198.91088867 345.44018555 C201.57716083 350.02276359 201.57716083 350.02276359 205.95336914 352.86499023 C207.43256836 353.13182617 207.43256836 353.13182617 208.94165039 353.40405273 C210.21782227 353.71729492 210.21782227 353.71729492 211.51977539 354.03686523 C234.99044784 358.36041016 255.19373713 352.65823256 277.09692383 344.46264648 C287.57659682 340.56289862 297.96161537 337.48501469 308.94165039 335.40405273 C303.54804274 309.99732197 289.51088599 285.71135615 267.51586914 271.06030273 C264.57297504 269.16140072 261.60144335 267.30843838 258.62866211 265.45678711 C246.83398461 258.09663525 239.43273602 250.09254418 235.94165039 236.40405273 C235.53595182 232.96721721 235.50383606 229.56903528 235.50927734 226.11083984 C235.49398987 224.63120255 235.49398987 224.63120255 235.47839355 223.12167358 C235.44842465 219.89152223 235.43902221 216.66166821 235.42993164 213.43139648 C235.41307304 211.17980476 235.39492121 208.92822238 235.37553406 206.676651 C235.32815648 200.77323323 235.29826788 194.86985337 235.27209473 188.96630859 C235.23696887 181.87088652 235.17999101 174.77560992 235.12670135 167.68030548 C235.04833112 156.92157334 234.99761637 146.16302978 234.94165039 135.40405273 C216.46165039 135.40405273 197.98165039 135.40405273 178.94165039 135.40405273 Z M127.87915039 287.40405273 C127.05842041 287.62407959 126.23769043 287.84410645 125.39208984 288.07080078 C116.98859455 290.46356969 109.54306019 294.16282955 101.94165039 298.40405273 C100.70234013 299.07513019 99.46276017 299.74570984 98.22290039 300.41577148 C91.82661381 303.92321796 85.80731868 307.77624308 79.96118164 312.15014648 C48.85438952 335.36957605 18.10366051 356.80306736 -22.56176758 352.11547852 C-32.13082169 350.58467643 -40.84232977 347.10086501 -49.57006836 342.98999023 C-52.69810077 341.56783888 -55.77999664 340.42129897 -59.05834961 339.40405273 C-59.59407593 340.35489746 -59.59407593 340.35489746 -60.140625 341.32495117 C-63.57326875 347.41489365 -67.01266092 353.50096647 -70.4597168 359.58276367 C-71.41735071 361.27280911 -72.37405079 362.96338496 -73.32885742 364.6550293 C-74.29576412 366.36611351 -75.27030114 368.07288073 -76.24584961 369.77905273 C-77.00961914 371.1209668 -77.00961914 371.1209668 -77.78881836 372.48999023 C-79.05834961 374.40405273 -79.05834961 374.40405273 -81.05834961 375.40405273 C-88.15694116 375.85475696 -88.15694116 375.85475696 -91.05834961 374.40405273 C-92.73666833 371.04741529 -92.71065558 368.01117046 -92.05834961 364.40405273 C-90.17445107 360.03334858 -87.79397041 355.9950359 -85.37084961 351.90405273 C-84.74500977 350.81479492 -84.11916992 349.72553711 -83.47436523 348.60327148 C-80.7729503 343.92459054 -78.01251043 339.298915 -75.10131836 334.74780273 C-72.88455982 331.7726869 -72.88455982 331.7726869 -73.05834961 329.40405273 C-75.83702666 327.1348918 -75.83702666 327.1348918 -79.05834961 325.40405273 C-82.89225541 326.68202133 -83.16471776 327.87855942 -85.06225586 331.37280273 C-85.91775024 332.92825806 -85.91775024 332.92825806 -86.79052734 334.51513672 C-87.39453369 335.633479 -87.99854004 336.75182129 -88.62084961 337.90405273 C-89.89289318 340.21862144 -91.16633343 342.5324231 -92.44116211 344.84545898 C-93.0628125 345.97741699 -93.68446289 347.109375 -94.32495117 348.27563477 C-96.48339156 352.17116365 -98.71699381 356.01558382 -100.99584961 359.84155273 C-106.59989361 369.28087542 -112.07539377 378.79352153 -117.54663086 388.31030273 C-119.58916717 391.8625398 -121.6420263 395.40741222 -123.72631836 398.93530273 C-124.28488525 399.8882019 -124.28488525 399.8882019 -124.85473633 400.86035156 C-125.77828821 402.43385142 -126.70894347 404.0031766 -127.64038086 405.57202148 C-131.31015938 412.90146893 -132.20634499 420.07634082 -129.93334961 427.90405273 C-127.23207689 435.19120705 -122.96159219 440.32109304 -116.37866211 444.39624023 C-108.94698669 447.62413966 -101.75723434 447.69321514 -93.78117371 447.67147827 C-91.94496388 447.67827494 -91.94496388 447.67827494 -90.07165891 447.68520892 C-86.6904275 447.69564822 -83.30940949 447.69718409 -79.92817724 447.69482017 C-76.27502456 447.6944108 -72.62190321 447.70546247 -68.96876526 447.7149353 C-61.81797858 447.73151995 -54.66722488 447.73704369 -47.51642057 447.73816006 C-41.70196007 447.73911167 -35.88751042 447.7432276 -30.07305336 447.74956131 C-13.57477681 447.76716625 2.92347375 447.77640127 19.42175976 447.77490036 C20.31044525 447.77482045 21.19913074 447.77474054 22.11474609 447.7746582 C23.0045211 447.77457644 23.8942961 447.77449468 24.81103399 447.77441044 C39.22995959 447.77359759 53.64878072 447.79273689 68.0676761 447.82093494 C82.88584254 447.84968435 97.70395805 447.86347412 112.52215308 447.86174738 C120.83626863 447.86108423 129.15027463 447.86654396 137.46436501 447.88810349 C144.54301802 447.90634231 151.62151181 447.91064045 158.70017818 447.89708464 C162.30870783 447.89056875 165.91693225 447.8903874 169.52543259 447.90779114 C173.44493635 447.92649974 177.3639979 447.91393141 181.28352356 447.89852905 C182.41330983 447.90881618 183.54309611 447.91910331 184.70711833 447.92970216 C194.75060567 447.84271812 203.84877181 445.60067119 211.21508789 438.43139648 C216.94199235 431.70681863 218.9822517 424.96418484 218.59399414 416.13842773 C217.30849338 408.7795132 213.65963081 402.77097929 209.94165039 396.40405273 C208.90127999 394.59155607 207.86091577 392.77905587 206.82055664 390.96655273 C204.47263939 386.90213092 202.10118258 382.85242071 199.71508789 378.81030273 C195.93568132 372.40745117 192.2137778 365.97252375 188.50415039 359.52905273 C187.24503785 357.34415572 185.98592326 355.1592599 184.72680664 352.97436523 C184.10177246 351.88929688 183.47673828 350.80422852 182.83276367 349.6862793 C180.32761713 345.33833324 177.81993325 340.99185367 175.31201172 336.64550781 C174.07079513 334.49440055 172.82974539 332.34319701 171.58886719 330.19189453 C168.68537861 325.15818913 165.78095629 320.12502953 162.87310791 315.09384155 C161.84819636 313.32042666 160.82358916 311.54683627 159.79907227 309.77319336 C158.51712301 307.554095 157.23460932 305.33532257 155.95141602 303.11694336 C152.55887239 297.2427822 149.21092866 291.34776924 145.94165039 285.40405273 C139.54412297 285.20075494 134.04929811 285.73586834 127.87915039 287.40405273 Z M276.81665039 361.96655273 C260.29979625 368.36885125 244.68302531 371.59864774 226.94165039 371.46655273 C225.78536133 371.46204102 224.62907227 371.4575293 223.43774414 371.45288086 C220.60565814 371.44117802 217.77368228 371.4247827 214.94165039 371.40405273 C217.84698264 377.45433881 220.82331353 383.31356928 224.3815918 389.00268555 C232.73147098 402.39964869 236.81917178 415.93968711 233.17602539 431.72045898 C231.26387224 437.1761658 228.54019268 442.2500115 225.94165039 447.40405273 C230.15492283 447.5792688 234.36617711 447.70510613 238.58203125 447.78857422 C240.01079306 447.82342207 241.439312 447.87092246 242.8671875 447.93212891 C253.04137567 448.35679688 259.80711885 447.04795879 267.94165039 440.40405273 C268.89914185 439.68028442 268.89914185 439.68028442 269.87597656 438.94189453 C271.50848167 437.68444653 273.07377863 436.38028826 274.62915039 435.02905273 C275.17603516 434.55701416 275.72291992 434.08497559 276.28637695 433.59863281 C296.1707526 416.15717795 308.64769917 390.73462332 310.94165039 364.40405273 C311.07252669 360.39653022 311.0716149 356.41129181 310.94165039 352.40405273 C299.53399513 352.40405273 287.28243417 357.90054706 276.81665039 361.96655273 Z " fill="#E8EFCF" transform="translate(167.058349609375,27.595947265625)"/>
<path d="M0 0 C8.95780545 4.75414256 13.95704826 10.93364479 17.125 20.4375 C17.99422231 31.52364681 16.85335723 39.10750632 9.8125 47.75 C4.79188331 53.15847549 -0.62901023 56.16558933 -8.046875 56.640625 C-19.41164346 56.78950843 -25.52068965 55.45437278 -33.890625 47.6328125 C-40.15580544 40.70164832 -41.24136925 33.0485907 -41.1484375 24.015625 C-40.50293696 15.56878937 -36.12910025 9.0107103 -29.875 3.4375 C-21.10382759 -2.14122363 -9.84453175 -4.02730844 0 0 Z M-22.1875 20.625 C-24.37061215 24.26352026 -24.68358904 27.3465198 -23.875 31.4375 C-21.85997111 35.18962276 -20.42033858 37.07394095 -16.875 39.4375 C-12.07810209 40.13670885 -8.10040718 40.15232085 -3.875 37.6875 C-0.41426527 33.79417343 0.73001608 30.92374039 0.55859375 25.5390625 C-0.28093622 21.46998932 -2.52874922 18.80719188 -5.875 16.4375 C-12.82920199 14.0584309 -16.99421407 15.71243223 -22.1875 20.625 Z " fill="#E8EFCF" transform="translate(198.875,267.5625)"/>
<path d="M0 0 C5.69377455 3.4090877 11.04438371 8.72393474 13.08984375 15.171875 C14.41251313 22.0749495 14.16025518 28.84928157 10.96484375 35.171875 C7.53695386 40.18116476 2.98621673 44.01534344 -2.375 46.8125 C-10.69976091 48.14446175 -18.33449319 48.21590338 -25.5 43.3125 C-31.10609734 38.21868397 -35.07592145 33.49746035 -35.70703125 25.78125 C-35.98277436 18.34639863 -34.75600103 12.90539053 -30.8125 6.625 C-22.78254699 -1.40495301 -10.74978619 -5.09741296 0 0 Z M-18.5 20.3125 C-18.56625411 24.1552383 -18.31899419 26.30450716 -15.875 29.3125 C-12.38418213 30.78231805 -10.10851044 30.29663921 -6.5 29.3125 C-4.33333333 27.8125 -4.33333333 27.8125 -3.5 25.3125 C-3.56648397 21.52291394 -3.66774598 19.23392409 -6.25 16.375 C-11.87504109 13.7187306 -14.93010499 15.37764514 -18.5 20.3125 Z " fill="#E8EFCF" transform="translate(230.5,203.6875)"/>
<path d="M0 0 C6.10836502 3.6296082 10.44574573 8.5006046 12.5625 15.3125 C13.7956655 23.59069432 12.55283591 30.52177656 7.5625 37.3125 C2.29568914 42.72529922 -3.39497202 45.1836175 -10.8828125 45.375 C-17.90462507 45.03142507 -22.98210163 42.74152128 -27.97265625 37.7890625 C-32.96966687 32.04905613 -34.50223316 26.83233532 -34.4375 19.3125 C-33.39278206 12.41941006 -30.8608888 6.79631048 -25.4375 2.3125 C-17.97287413 -2.67872801 -8.24514106 -3.81143313 0 0 Z M-15.9375 17.4375 C-17.74808138 20.24998494 -17.74808138 20.24998494 -17.0625 23.5 C-15.63541667 26.51041667 -15.63541667 26.51041667 -12.625 27.9375 C-9.37498494 28.62308138 -9.37498494 28.62308138 -6.5625 26.8125 C-4.19066767 24.45814874 -4.19066767 24.45814874 -3.9375 21.25 C-4.24314047 18.37908509 -4.24314047 18.37908509 -5.5625 16.4375 C-9.5456084 14.04763496 -12.47885284 14.49764991 -15.9375 17.4375 Z " fill="#E8EFCF" transform="translate(407.4375,329.6875)"/>
<path d="M0 0 C4.56231941 4.075672 6.87598381 8.52746536 7.7578125 14.5703125 C8.09634479 21.2691485 6.10772796 26.10990378 2.0703125 31.3828125 C-2.15913824 35.95688516 -7.09584202 37.64402106 -13.2421875 37.9453125 C-19.90354537 37.60637844 -24.56157024 35.69070655 -29.1171875 30.7578125 C-33.17358595 25.68500442 -34.7188235 21.23064923 -34.48046875 14.64453125 C-33.67246549 7.61092911 -30.86176699 3.37872307 -25.34375 -1.015625 C-17.49300247 -6.29809824 -7.54564033 -5.34610145 0 0 Z M-16.0546875 13.7578125 C-17.49509078 15.52085359 -17.49509078 15.52085359 -16.9296875 17.7578125 C-16.7028125 18.3559375 -16.4759375 18.9540625 -16.2421875 19.5703125 C-14.40517961 20.34273519 -14.40517961 20.34273519 -12.2421875 20.5703125 C-10.32552083 19.48697917 -10.32552083 19.48697917 -9.2421875 17.5703125 C-9.46976481 15.40732039 -9.46976481 15.40732039 -10.2421875 13.5703125 C-13.24967665 12.41168944 -13.24967665 12.41168944 -16.0546875 13.7578125 Z " fill="#E8EFCF" transform="translate(372.2421875,279.4296875)"/>
<path d="M0 0 C5.41236375 2.36137878 8.67456949 6.37148475 11.6484375 11.3828125 C13.60401261 17.24953782 13.65395787 23.97786954 11.1484375 29.6953125 C8.16876605 34.88570793 3.27432272 38.50751743 -2.3515625 40.3828125 C-9.28779067 41.10212505 -14.91411627 41.09943973 -20.6640625 36.8828125 C-24.99846473 33.03001052 -28.13678921 29.4763739 -28.5546875 23.45703125 C-28.71558749 11.83200684 -28.71558749 11.83200684 -25.3515625 7.3828125 C-17.88606186 -0.06465553 -10.60892344 -2.78440183 0 0 Z M-10.3515625 16.3828125 C-11.64789871 17.44926365 -11.64789871 17.44926365 -11.4140625 19.9453125 C-11.3934375 20.7496875 -11.3728125 21.5540625 -11.3515625 22.3828125 C-8.95436818 23.06239853 -8.95436818 23.06239853 -6.3515625 23.3828125 C-5.6915625 22.7228125 -5.0315625 22.0628125 -4.3515625 21.3828125 C-4.6700802 19.27460453 -4.6700802 19.27460453 -5.3515625 17.3828125 C-7.00770907 17.00062483 -8.67613274 16.66886148 -10.3515625 16.3828125 Z " fill="#E8EFCF" transform="translate(385.3515625,180.6171875)"/>
<path d="M0 0 C4.98809553 3.58092752 8.79470173 8.20315514 9.85546875 14.33203125 C9.92533633 20.99939444 9.40498049 26.16772062 4.85546875 31.33203125 C0.01802855 35.95914796 -3.8646157 38.02833537 -10.51953125 38.64453125 C-16.94394045 38.09070287 -22.58241752 36.02087036 -27.14453125 31.33203125 C-31.40755942 25.43367752 -32.14294743 19.45614667 -31.14453125 12.33203125 C-29.49329552 6.33598151 -26.10946402 3.01978579 -21.14453125 -0.5390625 C-14.53328809 -4.27079936 -6.46496377 -3.65186576 0 0 Z M-12.14453125 14.33203125 C-12.80453125 14.99203125 -13.46453125 15.65203125 -14.14453125 16.33203125 C-13.82601355 18.44023922 -13.82601355 18.44023922 -13.14453125 20.33203125 C-11.16453125 20.82703125 -11.16453125 20.82703125 -9.14453125 21.33203125 C-8.48453125 20.01203125 -7.82453125 18.69203125 -7.14453125 17.33203125 C-7.80453125 16.34203125 -8.46453125 15.35203125 -9.14453125 14.33203125 C-10.13453125 14.33203125 -11.12453125 14.33203125 -12.14453125 14.33203125 Z " fill="#E8EFCF" transform="translate(214.14453125,136.66796875)"/>
<path d="M0 0 C10.24153127 4.1256665 23.18866405 13.874401 28 24 C27.88200002 27.42199954 27.64983667 29.91693888 25.875 32.875 C22.86438501 34.68136899 20.49557632 34.94075294 17 35 C13.02652892 33.05553543 10.32993512 30.33986108 7.3125 27.1875 C3.43495405 23.17521307 -0.79931199 20.38291912 -5.58203125 17.54296875 C-7.76139295 16.15226136 -9.41205806 15.02989342 -11 13 C-11.64003318 8.03974283 -11.78789129 6.11231711 -8.875 2 C-5.43743956 -0.39134639 -4.10618245 -0.38479638 0 0 Z " fill="#E8EFCF" transform="translate(417,301)"/>
<path d="M0 0 C2.8125 1.5625 2.8125 1.5625 5 4 C6.34518108 8.98508282 6.07436056 11.93675159 3.48828125 16.4453125 C2.93720703 17.33863281 2.93720703 17.33863281 2.375 18.25 C2.03082031 18.86101562 1.68664062 19.47203125 1.33203125 20.1015625 C-0.91069645 23.89185507 -2.95936722 26.20488851 -7 28 C-10.52349544 27.92809193 -12.4340868 27.37231132 -15.375 25.4375 C-17.16555611 22.75166583 -17.80116172 20.73921958 -17.66015625 17.49609375 C-15.42607606 9.04889112 -9.63220552 -1.15586466 0 0 Z " fill="#E8EFCF" transform="translate(70,413)"/>
<path d="M0 0 C4.88970123 4.47058398 8.15375299 11.68434287 8.5 18.3125 C8 22 8 22 6.5 24.5 C3.49511516 26.30293091 1.44327882 26.47744877 -2 26.53125 C-5.79913232 25.52210548 -7.57931515 22.7229137 -9.484375 19.44921875 C-14.01983003 9.55240793 -14.01983003 9.55240793 -13 4 C-9.01693752 -1.04521248 -6.191012 -1.49438221 0 0 Z " fill="#E8EFCF" transform="translate(453,337)"/>
</svg>
