<?xml version="1.0" encoding="UTF-8"?>
<svg version="1.1" xmlns="http://www.w3.org/2000/svg" width="512" height="512" fill="#E8EFCF">
<path d="M0 0 C0.91471573 -0.00287018 1.82943146 -0.00574036 2.77186584 -0.00869751 C4.7042808 -0.0107368 6.63671646 -0.00521637 8.5690918 0.00732422 C11.52114251 0.02336137 14.4718203 0.0074805 17.42382812 -0.01171875 C19.30338843 -0.00973593 21.18294788 -0.00589146 23.0625 0 C24.38301613 -0.00910904 24.38301613 -0.00910904 25.73020935 -0.0184021 C30.46884475 0.03574451 33.84270767 0.18917714 37.59765625 3.3984375 C40.45061661 7.07983948 40.96146521 9.75085499 40.890625 14.35546875 C40.88095703 15.46728516 40.87128906 16.57910156 40.86132812 17.72460938 C40.83619141 18.87509766 40.81105469 20.02558594 40.78515625 21.2109375 C40.77162109 22.38076172 40.75808594 23.55058594 40.74414062 24.75585938 C40.70885903 27.6371895 40.65955905 30.51757654 40.59765625 33.3984375 C41.50902344 33.57117187 42.42039063 33.74390625 43.359375 33.921875 C53.18115996 35.98690883 61.72135686 39.5253632 70.67651367 44.04443359 C71.53349854 44.47578613 72.3904834 44.90713867 73.2734375 45.3515625 C74.03567627 45.74504883 74.79791504 46.13853516 75.58325195 46.54394531 C77.6932647 47.59369237 77.6932647 47.59369237 80.59765625 47.3984375 C82.11124264 46.25050362 82.11124264 46.25050362 83.5234375 44.66015625 C84.07322266 44.08716797 84.62300781 43.51417969 85.18945312 42.92382812 C86.32526804 41.71065919 87.46069285 40.49712489 88.59570312 39.28320312 C92.47083773 35.24566474 96.05329262 32.12164405 101.72265625 30.96484375 C102.65078125 30.96291016 102.65078125 30.96291016 103.59765625 30.9609375 C104.52578125 30.93193359 104.52578125 30.93193359 105.47265625 30.90234375 C111.02327418 32.19816816 115.23456907 36.77931864 119.14453125 40.6796875 C119.64180725 41.17505005 120.13908325 41.6704126 120.65142822 42.18078613 C121.69243923 43.22044587 122.73096806 44.26259651 123.76708984 45.30712891 C125.35034731 46.90114685 126.94406298 48.48414713 128.5390625 50.06640625 C129.55402767 51.08269232 130.56837265 52.09959823 131.58203125 53.1171875 C132.95439941 54.49293945 132.95439941 54.49293945 134.35449219 55.89648438 C137.51225821 59.41855514 138.88977445 62.04917481 138.97265625 66.7734375 C139.00101562 67.50304687 139.029375 68.23265625 139.05859375 68.984375 C137.83718584 75.38124014 132.33726336 79.91210488 127.84765625 84.2734375 C126.94466797 85.16289062 126.94466797 85.16289062 126.0234375 86.0703125 C124.5527368 87.51766874 123.07582955 88.9587138 121.59765625 90.3984375 C122.10554688 91.3678125 122.6134375 92.3371875 123.13671875 93.3359375 C126.7917224 100.41344274 130.21547779 107.50551649 133.03515625 114.9609375 C133.28152832 115.60224609 133.52790039 116.24355469 133.78173828 116.90429688 C135.31794773 121.0925694 136.10462586 124.99516612 136.59765625 129.3984375 C140.85830543 128.12729615 140.85830543 128.12729615 144.62890625 125.84912109 C149.1369663 123.64625162 153.45714929 123.97017393 158.41015625 124 C159.97987183 123.99569473 159.97987183 123.99569473 161.58129883 123.99130249 C163.79020734 123.98926422 165.999134 123.99477746 168.20800781 124.00732422 C171.58569771 124.02338065 174.962191 124.00746687 178.33984375 123.98828125 C180.48828389 123.99026372 182.63672328 123.99410748 184.78515625 124 C185.79360596 123.99392731 186.80205566 123.98785461 187.84106445 123.9815979 C194.40655889 124.04733405 197.86751738 124.9716474 202.84765625 129.3984375 C206.11507116 133.13262597 205.71474904 136.7107036 205.6953125 141.47265625 C205.69319008 142.49840508 205.69319008 142.49840508 205.69102478 143.5448761 C205.68543501 145.72527472 205.67288447 147.90557001 205.66015625 150.0859375 C205.65513992 151.56575372 205.65057725 153.04557156 205.64648438 154.52539062 C205.63546896 158.14977307 205.61821137 161.7740952 205.59765625 165.3984375 C206.28730469 165.50800781 206.97695313 165.61757812 207.6875 165.73046875 C213.90438661 166.77940847 219.69840183 168.18260117 225.59765625 170.3984375 C226.39437744 170.69097412 227.19109863 170.98351074 228.01196289 171.28491211 C235.16639514 174.01777506 241.84525415 177.51598252 248.45507812 181.37304688 C249.20208984 181.79521484 249.94910156 182.21738281 250.71875 182.65234375 C251.37286865 183.03720947 252.0269873 183.4220752 252.70092773 183.81860352 C254.61775745 184.60317609 254.61775745 184.60317609 256.59204102 183.74780273 C258.873979 182.2125293 260.65456342 180.53315796 262.56640625 178.5546875 C263.30246094 177.80316406 264.03851563 177.05164063 264.796875 176.27734375 C265.55613281 175.49230469 266.31539063 174.70726562 267.09765625 173.8984375 C268.60327236 172.3416969 270.11352081 170.78941992 271.62890625 169.2421875 C272.29470703 168.55318359 272.96050781 167.86417969 273.64648438 167.15429688 C277.04656579 164.09456395 279.86895102 163.09495254 284.41015625 163.0234375 C285.22097656 162.99507812 286.03179687 162.96671875 286.8671875 162.9375 C293.64058698 164.08093511 298.44298288 168.80209683 303.08203125 173.51953125 C303.66430481 174.1013063 304.24657837 174.68308136 304.84649658 175.28248596 C306.06680608 176.50512101 307.283461 177.73141373 308.49658203 178.96118164 C310.34768411 180.83596572 312.21184283 182.69697995 314.078125 184.55664062 C315.26772241 185.75181308 316.45655145 186.94775091 317.64453125 188.14453125 C318.19768005 188.69676865 318.75082886 189.24900604 319.32073975 189.81797791 C324.28628697 194.8749449 327.21912156 199.08010012 327.59765625 206.3984375 C326.68356448 214.30382456 320.99416052 218.56126801 315.47265625 223.8359375 C314.51708086 224.76640028 313.56264172 225.69803148 312.609375 226.63085938 C310.28304015 228.89844839 307.94584248 231.15352062 305.59765625 233.3984375 C306.905948 236.77731498 308.3557256 240.01616126 309.98828125 243.25 C324.59765625 272.64538341 324.59765625 272.64538341 324.59765625 284.3984375 C325.50531738 284.37749023 326.41297852 284.35654297 327.34814453 284.33496094 C330.73643267 284.26652817 334.12397975 284.21651455 337.51269531 284.17871094 C338.97537877 284.15867418 340.43798291 284.13143646 341.90039062 284.09667969 C344.01061635 284.04780525 346.11977761 284.02539091 348.23046875 284.0078125 C349.49777832 283.98686523 350.76508789 283.96591797 352.07080078 283.94433594 C357.30100197 284.6177524 360.06496389 287.05733169 363.93945312 290.44750977 C366.51379142 295.02878581 366.16880398 299.44401944 366.12890625 304.61328125 C366.13273315 305.70177872 366.13656006 306.79027618 366.14050293 307.91175842 C366.14322136 310.21063157 366.13586512 312.50953569 366.11914062 314.80834961 C366.09775208 318.32020359 366.11893547 321.83000687 366.14453125 325.34179688 C366.14188756 327.5781295 366.13676173 329.81446086 366.12890625 332.05078125 C366.13700317 333.09781723 366.1451001 334.14485321 366.15344238 335.22361755 C366.0787193 341.0577771 365.79223027 344.95941323 361.59765625 349.3984375 C357.10700419 352.38735829 353.56035424 352.75747921 348.23046875 352.69140625 C347.55088104 352.68716141 346.87129333 352.68291656 346.17111206 352.67854309 C344.02120701 352.66188016 341.87227326 352.62425466 339.72265625 352.5859375 C338.25652405 352.5708745 336.79037701 352.55718893 335.32421875 352.54492188 C331.7483875 352.5120183 328.17311684 352.46032413 324.59765625 352.3984375 C324.48550781 353.543125 324.37335938 354.6878125 324.2578125 355.8671875 C323.68432159 360.40724073 322.49956885 364.57263346 321.03515625 368.8984375 C320.64577881 370.0582312 320.64577881 370.0582312 320.24853516 371.24145508 C317.22992507 379.90604946 313.36996288 388.53159669 308.39550781 396.26806641 C307.06351016 398.29796546 307.06351016 398.29796546 305.59765625 401.3984375 C306.73322656 404.78624327 308.8259296 406.79502466 311.40625 409.19140625 C312.15326172 409.90490234 312.90027344 410.61839844 313.66992188 411.35351562 C315.23495201 412.83066628 316.80779528 414.29958666 318.38867188 415.75976562 C323.26137406 420.44780037 326.54081046 424.57955511 327.59765625 431.3984375 C327.45247754 442.36923918 315.4527576 450.83913974 308.31005859 458.09106445 C307.24905152 459.17377469 306.19436132 460.26271039 305.14599609 461.35766602 C293.46306926 473.55178911 293.46306926 473.55178911 285.59765625 474.3984375 C278.48669394 474.06997915 274.46410561 470.24075571 269.59765625 465.3984375 C269.06317871 464.87088867 268.52870117 464.34333984 267.97802734 463.79980469 C264.15709498 460.0261741 260.36903379 456.22155651 256.59765625 452.3984375 C253.01378949 453.74410395 249.63296355 455.36197325 246.23120117 457.11450195 C218.4829278 471.3984375 218.4829278 471.3984375 205.59765625 471.3984375 C205.62907715 472.75207397 205.62907715 472.75207397 205.66113281 474.13305664 C205.72964857 477.508325 205.77961909 480.88284546 205.81738281 484.25854492 C205.83739447 485.71439334 205.86461302 487.17016244 205.89941406 488.62573242 C206.2561639 503.93974401 206.2561639 503.93974401 201.59765625 509.3984375 C196.77836656 513.47979619 191.33513951 512.8314314 185.34765625 512.796875 C184.25678711 512.79974518 183.16591797 512.80261536 182.04199219 512.80557251 C179.738927 512.80761117 177.43584442 512.80209523 175.1328125 512.78955078 C171.61028273 512.77349505 168.08890039 512.78940698 164.56640625 512.80859375 C162.32682039 512.80661128 160.08723524 512.80276754 157.84765625 512.796875 C156.79545898 512.80294769 155.74326172 512.80902039 154.65917969 512.8152771 C145.52872233 512.72757764 145.52872233 512.72757764 141.59765625 509.3984375 C135.95755452 502.78954279 137.15132154 494.67272928 137.34765625 486.4609375 C137.36774648 484.99937335 137.38599281 483.53778264 137.40234375 482.07617188 C137.44615289 478.51636976 137.51504079 474.95757496 137.59765625 471.3984375 C136.47359375 471.29660156 135.34953125 471.19476563 134.19140625 471.08984375 C129.25518435 470.46630957 124.76980047 469.00465835 120.09765625 467.3359375 C119.23197021 467.03010742 118.36628418 466.72427734 117.47436523 466.40917969 C108.30322501 463.07483136 98.96454172 459.10618421 90.90625 453.5390625 C89.76349609 452.97445312 89.76349609 452.97445312 88.59765625 452.3984375 C85.11573885 453.63928584 83.06238408 455.7828682 80.5859375 458.4609375 C79.82732422 459.25757813 79.06871094 460.05421875 78.28710938 460.875 C76.71162611 462.5475755 75.14634009 464.22981954 73.59179688 465.921875 C68.67450344 471.04215696 64.85016676 474.06617257 57.59765625 474.3984375 C46.61433657 473.39995389 37.07009837 460.07862763 29.66015625 452.7109375 C28.72880859 451.80021484 27.79746094 450.88949219 26.83789062 449.95117188 C25.49887695 448.61989258 25.49887695 448.61989258 24.1328125 447.26171875 C23.33238525 446.47063721 22.53195801 445.67955566 21.70727539 444.86450195 C18.2148397 440.7819776 16.16882055 436.80495867 16.16015625 431.3984375 C16.14082031 430.5940625 16.12148437 429.7896875 16.1015625 428.9609375 C17.51964253 421.6360517 24.25560515 416.50570972 29.34765625 411.5234375 C30.14042969 410.7396875 30.93320313 409.9559375 31.75 409.1484375 C33.69473772 407.22713036 35.64400378 405.31067203 37.59765625 403.3984375 C36.2936361 400.02722351 34.84580892 396.80288923 33.20703125 393.58203125 C18.59765625 364.34792182 18.59765625 364.34792182 18.59765625 352.3984375 C17.6847583 352.41414795 16.77186035 352.4298584 15.83129883 352.44604492 C12.43003615 352.4973072 9.02918662 352.53485189 5.62768555 352.56323242 C4.15821843 352.57827816 2.68879591 352.59871988 1.21948242 352.62475586 C-0.89806145 352.66132705 -3.0150094 352.67820551 -5.1328125 352.69140625 C-6.40535889 352.7071167 -7.67790527 352.72282715 -8.98901367 352.73901367 C-14.48967443 352.19016725 -17.8295766 349.48159995 -21.40234375 345.3984375 C-22.35278881 342.54710231 -22.54412778 340.7088608 -22.5793457 337.74682617 C-22.59859856 336.33472115 -22.59859856 336.33472115 -22.61824036 334.89408875 C-22.62562729 333.87845352 -22.63301422 332.8628183 -22.640625 331.81640625 C-22.64869675 330.76947098 -22.65676849 329.72253571 -22.66508484 328.64387512 C-22.67891893 326.42723239 -22.6896441 324.21056843 -22.69750977 321.99389648 C-22.71472415 318.60945153 -22.75861746 315.22598303 -22.80273438 311.84179688 C-22.81286139 309.68750718 -22.82137747 307.53320918 -22.828125 305.37890625 C-22.85438713 303.86456245 -22.85438713 303.86456245 -22.88117981 302.31962585 C-22.86254482 296.26293235 -22.22357769 293.11460212 -18.40234375 288.3984375 C-17.62018787 285.6701871 -17.62018787 285.6701871 -17.40234375 283.3984375 C-18.20671875 283.28628906 -18.20671875 283.28628906 -19.02734375 283.171875 C-32.46961939 280.91675639 -44.6992592 275.17179808 -56.40234375 268.3984375 C-57.05251465 269.06431885 -57.05251465 269.06431885 -57.71582031 269.74365234 C-59.68935804 271.75885482 -61.67072679 273.76618039 -63.65234375 275.7734375 C-64.33425781 276.47210938 -65.01617187 277.17078125 -65.71875 277.890625 C-66.38261719 278.5609375 -67.04648438 279.23125 -67.73046875 279.921875 C-68.33793945 280.53981934 -68.94541016 281.15776367 -69.57128906 281.79443359 C-72.76554978 284.59260598 -75.55105165 285.69929202 -79.77734375 285.7734375 C-80.50695312 285.80179687 -81.2365625 285.83015625 -81.98828125 285.859375 C-87.71787943 284.76537405 -91.95803382 280.09857983 -95.94921875 276.1171875 C-96.44649475 275.62182495 -96.94377075 275.1264624 -97.45611572 274.61608887 C-98.49712673 273.57642913 -99.53565556 272.53427849 -100.57177734 271.48974609 C-102.15503481 269.89572815 -103.74875048 268.31272787 -105.34375 266.73046875 C-106.35871517 265.71418268 -107.37306015 264.69727677 -108.38671875 263.6796875 C-109.30163086 262.76251953 -110.21654297 261.84535156 -111.15917969 260.90039062 C-114.79979753 256.83976245 -115.61484745 254.16824239 -115.86328125 248.69140625 C-114.48143684 241.81731585 -109.51995808 237.11993979 -104.65234375 232.4609375 C-104.05035156 231.87248047 -103.44835937 231.28402344 -102.828125 230.67773438 C-101.35969727 229.24426921 -99.88197398 227.8203365 -98.40234375 226.3984375 C-98.92183594 225.39425781 -99.44132812 224.39007813 -99.9765625 223.35546875 C-105.9684549 211.65646424 -111.01116705 200.39704141 -113.40234375 187.3984375 C-114.49905396 187.42200317 -114.49905396 187.42200317 -115.61791992 187.44604492 C-118.94181535 187.50854101 -122.26558695 187.54747502 -125.58984375 187.5859375 C-126.74033203 187.61107422 -127.89082031 187.63621094 -129.07617188 187.66210938 C-130.74389648 187.67661133 -130.74389648 187.67661133 -132.4453125 187.69140625 C-133.9770813 187.71497192 -133.9770813 187.71497192 -135.53979492 187.73901367 C-139.91587103 187.21836325 -142.35110223 185.63404928 -145.18554688 182.30249023 C-146.91992381 178.16316166 -146.8700688 174.38150635 -146.87109375 169.93359375 C-146.88251404 168.56720009 -146.88251404 168.56720009 -146.89416504 167.17320251 C-146.90494691 165.25099421 -146.90782693 163.3287274 -146.90332031 161.40649414 C-146.90234801 158.47377373 -146.94398976 155.54367106 -146.98828125 152.61132812 C-146.99348873 150.73958877 -146.99617644 148.86784035 -146.99609375 146.99609375 C-147.01248901 146.124048 -147.02888428 145.25200226 -147.04577637 144.35353088 C-146.99843742 140.16021703 -146.76318958 137.28202649 -144.11523438 133.92358398 C-139.8903195 129.99105208 -137.51320551 129.14193897 -131.76171875 129.203125 C-130.69179687 129.20957031 -129.621875 129.21601563 -128.51953125 129.22265625 C-126.85277344 129.24779297 -126.85277344 129.24779297 -125.15234375 129.2734375 C-124.02570313 129.28246094 -122.8990625 129.29148438 -121.73828125 129.30078125 C-118.9594201 129.32433092 -116.18098985 129.3572207 -113.40234375 129.3984375 C-113.23387939 128.63152588 -113.06541504 127.86461426 -112.8918457 127.07446289 C-109.97199498 114.06216034 -104.57603961 102.15473067 -98.40234375 90.3984375 C-98.84626465 89.97022705 -99.29018555 89.5420166 -99.74755859 89.10083008 C-101.76542814 87.14554036 -103.77139458 85.17845151 -105.77734375 83.2109375 C-106.47601563 82.53740234 -107.1746875 81.86386719 -107.89453125 81.16992188 C-108.56484375 80.50927734 -109.23515625 79.84863281 -109.92578125 79.16796875 C-110.54372559 78.56573486 -111.16166992 77.96350098 -111.79833984 77.34301758 C-115.34500095 73.04329829 -115.88116098 68.85695387 -115.40234375 63.3984375 C-113.42583296 58.62057926 -110.67101041 55.22395351 -107.03515625 51.6328125 C-106.51855438 51.11334045 -106.00195251 50.59386841 -105.46969604 50.05865479 C-104.38240568 48.96933432 -103.29136316 47.88374733 -102.19677734 46.80175781 C-100.5286067 45.14968826 -98.87709375 43.48217211 -97.2265625 41.8125 C-96.16372122 40.7516407 -95.09994993 39.69171215 -94.03515625 38.6328125 C-93.30052658 37.88907379 -93.30052658 37.88907379 -92.55105591 37.13031006 C-88.58188326 33.24092362 -85.47883391 31.58720933 -79.96484375 31.0859375 C-72.3257012 31.75603772 -68.07961523 36.327989 -63.02734375 41.5859375 C-62.38667969 42.24013672 -61.74601562 42.89433594 -61.0859375 43.56835938 C-59.51766083 45.17174672 -57.95686156 46.78172622 -56.40234375 48.3984375 C-55.23960938 47.81835938 -54.076875 47.23828125 -52.87890625 46.640625 C-25.8977718 33.3984375 -25.8977718 33.3984375 -17.40234375 33.3984375 C-17.42329102 32.70282715 -17.44423828 32.0072168 -17.46582031 31.29052734 C-17.54931355 28.11831292 -17.60110904 24.94633019 -17.65234375 21.7734375 C-17.68585938 20.67902344 -17.719375 19.58460937 -17.75390625 18.45703125 C-17.84317456 11.09239542 -17.05224712 7.22230983 -11.8503418 1.77246094 C-8.03449991 -0.36931209 -4.30388834 -0.0296205 0 0 Z M-1.40234375 15.3984375 C-1.57243969 23.02624421 -1.57243969 23.02624421 -1.70019531 30.65478516 C-1.8901047 36.60694527 -2.07201928 40.90826884 -6.40234375 45.3984375 C-10.72945263 48.12586448 -15.37401772 49.30518421 -20.27734375 50.5859375 C-30.21647838 53.33371319 -39.3581491 57.63605697 -48.11328125 63.0859375 C-51.37037592 64.95348666 -54.68880973 65.69397827 -58.40234375 65.3984375 C-64.70193077 63.40319464 -68.34936056 59.94851606 -72.83984375 55.2109375 C-73.79407227 54.22963867 -73.79407227 54.22963867 -74.76757812 53.22851562 C-76.32207263 51.6272694 -77.86638528 50.01743802 -79.40234375 48.3984375 C-84.10575501 52.32132008 -88.54508326 56.40862446 -92.83984375 60.7734375 C-93.38060547 61.31871094 -93.92136719 61.86398438 -94.47851562 62.42578125 C-95.78881098 63.74767214 -97.09592659 65.07271368 -98.40234375 66.3984375 C-94.31646998 71.32243923 -90.01366823 75.79865219 -85.35546875 80.1875 C-82.16512508 83.79896903 -81.42935585 86.54755645 -81.27734375 91.3359375 C-81.97977898 96.42859291 -84.45378542 100.20270929 -87.10375977 104.53198242 C-92.7376919 113.97691995 -96.22554428 124.73918754 -99.02734375 135.3359375 C-100.15406803 139.3529545 -101.72398398 141.22914841 -105.40234375 143.3984375 C-107.91911488 144.65682307 -109.81527663 144.60662723 -112.62890625 144.71484375 C-113.55783691 144.75295166 -114.48676758 144.79105957 -115.44384766 144.83032227 C-116.62640137 144.87342529 -117.80895508 144.91652832 -119.02734375 144.9609375 C-124.65796875 145.1775 -124.65796875 145.1775 -130.40234375 145.3984375 C-130.40234375 153.9784375 -130.40234375 162.5584375 -130.40234375 171.3984375 C-123.43277606 171.60785759 -123.43277606 171.60785759 -116.46240234 171.78637695 C-110.21467975 172.021913 -105.43599529 172.53833582 -100.6953125 177.0078125 C-98.70255827 180.69230069 -97.79559733 184.61748804 -96.71484375 188.6484375 C-93.7403839 199.16983387 -89.56999061 208.80369236 -83.71875 218.0625 C-82.37793562 220.44174926 -81.84439314 222.14101769 -81.52734375 224.8359375 C-81.37652344 225.91681641 -81.37652344 225.91681641 -81.22265625 227.01953125 C-81.74553279 233.94196197 -86.88546466 238.25308126 -91.58984375 242.7734375 C-92.24404297 243.41410156 -92.89824219 244.05476562 -93.57226562 244.71484375 C-95.17565297 246.28312042 -96.78563247 247.84391969 -98.40234375 249.3984375 C-94.47946117 254.10184876 -90.39215679 258.54117701 -86.02734375 262.8359375 C-85.48207031 263.37669922 -84.93679687 263.91746094 -84.375 264.47460938 C-83.05310911 265.78490473 -81.72806757 267.09202034 -80.40234375 268.3984375 C-75.75868853 264.52872481 -71.46441357 260.51254753 -67.296875 256.1328125 C-63.18673628 252.37012881 -59.46776636 251.92492316 -54.046875 252.04199219 C-49.58404747 252.64351805 -46.21085203 254.72804919 -42.40234375 257.0234375 C-33.99483129 261.78010963 -25.65288986 264.96193909 -16.43652344 267.75585938 C-7.26090613 270.6543501 -7.26090613 270.6543501 -4.52734375 273.0234375 C-3.40234375 275.3984375 -3.40234375 275.3984375 -1.40234375 284.3984375 C5.19765625 284.3984375 11.79765625 284.3984375 18.59765625 284.3984375 C19.42265625 281.4696875 20.24765625 278.5409375 21.09765625 275.5234375 C25.02196548 262.13999975 30.35245354 249.40980223 37.76171875 237.5625 C38.86393456 235.44013882 38.86393456 235.44013882 37.83911133 233.50415039 C33.639095 226.38022889 26.24330946 217.21573245 18.19335938 214.62451172 C13.38384628 213.92013702 8.61220872 214.19043347 3.77197266 214.40185547 C-8.17752785 214.38307117 -20.90298187 206.60319299 -29.33984375 198.6484375 C-41.45724963 185.42944927 -45.29078987 169.13320573 -44.59033203 151.71679688 C-43.91918036 143.43984064 -41.15497434 135.21054134 -36.40234375 128.3984375 C-33.56150734 126.97801929 -31.54757097 127.08391478 -28.40234375 127.3984375 C-25.50344203 129.38189657 -24.56111218 130.56490323 -23.90234375 134.0234375 C-24.49467721 138.02168835 -25.82450724 141.33760939 -27.4296875 145.03125 C-31.26212599 154.35838947 -30.31046984 165.23492892 -26.79296875 174.51171875 C-21.06887769 186.39403137 -12.67599522 193.89963668 -0.40234375 198.3984375 C3.11904289 199.47048756 6.61665743 199.83975661 10.28515625 200.0859375 C11.44402344 200.19292969 12.60289062 200.29992187 13.796875 200.41015625 C18.92883771 199.04409423 20.76697301 196.35958911 24.10571289 192.35473633 C26.73824598 189.2316499 29.5133777 186.34339429 32.40234375 183.4609375 C32.89843643 182.96378738 33.39452911 182.46663727 33.90565491 181.954422 C34.91542058 180.94418766 35.92636611 179.93513129 36.93847656 178.92724609 C38.49534349 177.37582969 40.04667483 175.81901682 41.59765625 174.26171875 C42.59473091 173.26530351 43.59211499 172.26919778 44.58984375 171.2734375 C45.4804248 170.38398438 46.37100586 169.49453125 47.28857422 168.578125 C49.59765625 166.3984375 49.59765625 166.3984375 52.59765625 164.3984375 C54.29137537 153.18327035 51.49150718 143.61796289 45.53515625 134.2109375 C39.0588332 125.46441948 29.36594502 119.15213024 18.59765625 117.3984375 C11.22099724 117.02350093 4.60806045 117.0616361 -2.40234375 119.3984375 C-6.07757158 119.83081724 -7.67184742 119.87902719 -10.77734375 117.8359375 C-13.01606741 114.47785201 -12.97725924 112.35098146 -12.40234375 108.3984375 C-4.87777117 101.44748705 6.60559375 101.8267119 16.23046875 102.12109375 C29.94324152 102.83302357 42.58000391 108.63002038 52.53515625 118.109375 C60.20221262 126.6186459 66.05209101 136.92179346 67.59765625 148.3984375 C67.51248137 149.7371229 67.40462849 151.07445003 67.28125 152.41015625 C66.72904177 160.55500889 67.13838056 166.27567668 72.66796875 172.6484375 C77.06039945 177.17998899 81.73190843 181.38199968 86.59765625 185.3984375 C91.24313599 184.01467758 95.27613222 182.02274975 99.47265625 179.6484375 C111.55865764 173.02621861 124.34191437 168.98853426 137.59765625 165.3984375 C137.59765625 158.7984375 137.59765625 152.1984375 137.59765625 145.3984375 C134.62765625 144.7384375 131.65765625 144.0784375 128.59765625 143.3984375 C122.85424065 139.48499294 121.76664515 133.62872488 119.91015625 127.2734375 C117.10175402 118.15580485 113.73161857 109.96418733 108.74731445 101.81591797 C105.56507552 96.3686847 104.503568 91.6901137 105.59765625 85.3984375 C108.05973223 80.46233371 111.92062412 76.82833706 115.84765625 73.0234375 C116.67910156 72.20552734 116.67910156 72.20552734 117.52734375 71.37109375 C118.87954356 70.04220773 120.23795975 68.71965202 121.59765625 67.3984375 C116.04730422 60.61467391 109.83323598 54.54320782 103.59765625 48.3984375 C98.67365452 52.48431127 94.19744156 56.78711302 89.80859375 61.4453125 C86.19712472 64.63565617 83.4485373 65.3714254 78.66015625 65.5234375 C73.4558482 64.81454504 69.37530937 62.20149192 64.95654297 59.55200195 C58.04845203 55.41323788 50.99074872 52.30164902 43.2109375 50.16015625 C42.44821533 49.9489917 41.68549316 49.73782715 40.8996582 49.52026367 C39.39922586 49.11496076 37.89383373 48.72746815 36.38354492 48.3605957 C31.57622264 47.08703284 29.21665021 45.64120771 26.59765625 41.3984375 C25.60309716 38.41476024 25.40205993 36.1980183 25.28125 33.07421875 C25.24314209 32.14778564 25.20503418 31.22135254 25.16577148 30.2668457 C25.12266846 29.093396 25.07956543 27.91994629 25.03515625 26.7109375 C24.81859375 21.11125 24.81859375 21.11125 24.59765625 15.3984375 C16.01765625 15.3984375 7.43765625 15.3984375 -1.40234375 15.3984375 Z M153.59765625 140.3984375 C153.38803428 149.6718125 153.38803428 149.6718125 153.2097168 158.94580078 C153.16004761 160.68966064 153.16004761 160.68966064 153.109375 162.46875 C153.08319092 163.65227051 153.05700684 164.83579102 153.0300293 166.05517578 C152.55567177 169.72307642 151.35609183 172.17400532 149.59765625 175.3984375 C149.59765625 176.0584375 149.59765625 176.7184375 149.59765625 177.3984375 C145.68995374 179.12266088 141.71940879 180.20771311 137.60522461 181.30053711 C122.70371601 185.29758095 109.02108828 190.9386813 95.8828125 199.05078125 C91.71593834 201.50816858 88.37285234 201.72217961 83.59765625 201.3984375 C77.11573226 199.09098746 72.90079898 194.03457271 68.22265625 189.2109375 C67.39121094 188.36595703 66.55976563 187.52097656 65.703125 186.65039062 C63.66099269 184.57304913 61.62621725 182.48901942 59.59765625 180.3984375 C55.73436998 181.9831733 53.30888702 184.45800637 50.39453125 187.40625 C49.91187805 187.89173309 49.42922485 188.37721619 48.9319458 188.87741089 C47.39907063 190.42143616 45.87331621 191.97228574 44.34765625 193.5234375 C43.30645264 194.57467759 42.26479084 195.62546407 41.22265625 196.67578125 C38.67566161 199.24476754 36.13500448 201.81991911 33.59765625 204.3984375 C35.03897246 207.72615503 36.8303538 209.83302934 39.44140625 212.33203125 C40.19292969 213.06357422 40.94445312 213.79511719 41.71875 214.54882812 C43.30273719 216.07169265 44.8886725 217.5925335 46.4765625 219.11132812 C47.22808594 219.84416016 47.97960937 220.57699219 48.75390625 221.33203125 C49.44291016 221.99259521 50.13191406 222.65315918 50.84179688 223.33374023 C53.64446476 226.62936903 54.51678358 229.52880666 54.9140625 233.80078125 C54.55441857 237.89006592 53.47206089 240.35531502 51.53515625 243.9609375 C50.89061444 245.19270281 50.2460835 246.4244738 49.6015625 247.65625 C48.93432851 248.90403901 48.26636909 250.15144041 47.59765625 251.3984375 C42.56145496 260.91717736 38.73172434 270.12867112 35.59765625 280.3984375 C35.21480469 281.62949219 34.83195312 282.86054688 34.4375 284.12890625 C33.75061073 286.34714005 33.06889219 288.56698793 32.39453125 290.7890625 C31.82108008 292.66683398 31.2185324 294.53580904 30.59765625 296.3984375 C25.67961337 298.72803676 21.37526776 299.5493402 15.9609375 299.71484375 C14.79087158 299.75295166 13.62080566 299.79105957 12.4152832 299.83032227 C10.92859131 299.87342529 9.44189941 299.91652832 7.91015625 299.9609375 C3.18703125 300.1053125 -1.53609375 300.2496875 -6.40234375 300.3984375 C-6.40234375 312.2784375 -6.40234375 324.1584375 -6.40234375 336.3984375 C2.49687534 336.60793011 2.49687534 336.60793011 11.39672852 336.78637695 C25.10842581 337.19195505 25.10842581 337.19195505 30.86328125 342.48046875 C33.25226632 346.49977471 34.22248568 350.57422013 35.34765625 355.0859375 C39.09051097 369.05027212 44.65525754 381.81291248 52.25 394.11328125 C54.70738733 398.28015541 54.92139836 401.62324141 54.59765625 406.3984375 C52.74299836 410.7956122 50.54361817 413.81380368 47.1484375 417.140625 C45.87709961 418.39746094 45.87709961 418.39746094 44.58007812 419.6796875 C43.69900391 420.535625 42.81792969 421.3915625 41.91015625 422.2734375 C40.57114258 423.59214844 40.57114258 423.59214844 39.20507812 424.9375 C37.00924757 427.09810333 34.8067119 429.25137147 32.59765625 431.3984375 C37.5596048 437.39344747 42.94531865 442.86270787 48.47265625 448.3359375 C49.79136719 449.64788086 49.79136719 449.64788086 51.13671875 450.98632812 C53.28809085 453.12600798 55.44177417 455.26330347 57.59765625 457.3984375 C61.17937907 454.44125456 64.63927589 451.44124583 67.84375 448.07421875 C68.37162109 447.52056641 68.89949219 446.96691406 69.44335938 446.39648438 C70.50859183 445.2685143 71.56587465 444.13298581 72.61523438 442.99023438 C76.91805699 438.51970126 81.26333391 435.61124859 87.61645508 435.29931641 C92.89344366 435.69391767 96.79407367 437.84604704 101.22265625 440.5859375 C110.27482494 445.89003264 119.30837887 450.20138581 129.41015625 453.109375 C130.95401001 453.55579346 130.95401001 453.55579346 132.52905273 454.01123047 C134.57729351 454.59160528 136.63149917 455.15142316 138.69165039 455.68798828 C144.88622074 457.41853825 148.11676956 458.8984918 151.59765625 464.3984375 C152.74059939 467.82726691 152.80730097 470.63926588 152.9140625 474.25390625 C152.95217041 475.46457764 152.99027832 476.67524902 153.02954102 477.92260742 C153.07264404 479.46150635 153.11574707 481.00040527 153.16015625 482.5859375 C153.37671875 489.918125 153.37671875 489.918125 153.59765625 497.3984375 C165.47765625 497.3984375 177.35765625 497.3984375 189.59765625 497.3984375 C189.80717521 488.17010603 189.80717521 488.17010603 189.9855957 478.94116211 C190.34353656 466.40103941 190.34353656 466.40103941 193.59765625 461.3984375 C197.99224965 457.61599421 202.4789637 456.39751878 207.97265625 455.0859375 C220.66626819 451.79086739 232.13008495 446.45014537 243.55151367 440.06323242 C249.8236888 436.58552982 254.46738605 434.61586995 261.59765625 436.3984375 C267.43413538 439.70178199 271.81028877 444.38333989 276.47265625 449.1484375 C277.25640625 449.94121094 278.04015625 450.73398437 278.84765625 451.55078125 C280.76896339 453.49551897 282.68542172 455.44478503 284.59765625 457.3984375 C290.59266622 452.43648895 296.06192662 447.0507751 301.53515625 441.5234375 C302.84709961 440.20472656 302.84709961 440.20472656 304.18554688 438.859375 C306.32522673 436.7080029 308.46252222 434.55431958 310.59765625 432.3984375 C306.12077694 426.98519753 301.32236836 422.08213597 296.18945312 417.29296875 C291.89935155 413.13866172 289.23708535 409.28419898 288.2421875 403.23828125 C288.82665831 396.61880955 292.12776592 391.56584517 295.47265625 386.00390625 C302.40971418 374.41840012 306.58155181 361.72182883 310.16015625 348.7734375 C311.31480016 344.91179509 312.55586542 342.1795034 315.59765625 339.3984375 C319.90924998 337.65443077 323.67722466 337.11184387 328.30859375 336.984375 C329.43056152 336.94876465 330.5525293 336.9131543 331.70849609 336.87646484 C333.11566895 336.84246582 334.5228418 336.8084668 335.97265625 336.7734375 C342.71703125 336.5878125 342.71703125 336.5878125 349.59765625 336.3984375 C349.59765625 324.5184375 349.59765625 312.6384375 349.59765625 300.3984375 C340.32428125 300.18881553 340.32428125 300.18881553 331.05029297 300.01049805 C329.88771973 299.97738525 328.72514648 299.94427246 327.52734375 299.91015625 C326.34382324 299.88397217 325.16030273 299.85778809 323.94091797 299.83081055 C319.52518075 299.25973777 316.3495546 297.74225343 312.83056641 295.04296875 C311.17391781 292.83322916 310.60339709 290.74689468 309.87109375 288.0859375 C309.41343628 286.48564697 309.41343628 286.48564697 308.9465332 284.85302734 C308.62515381 283.7130127 308.30377441 282.57299805 307.97265625 281.3984375 C303.8723281 267.46329924 298.71837131 254.36994488 290.63745117 242.24462891 C288.13012867 237.79279215 288.27571508 233.70307247 289.4921875 228.7734375 C291.85554353 222.78237858 296.71035863 218.75570634 301.28515625 214.3984375 C302.17783203 213.52832031 303.07050781 212.65820312 303.99023438 211.76171875 C306.18176153 209.62878858 308.38410508 207.50846239 310.59765625 205.3984375 C305.6357077 199.40342753 300.24999385 193.93416713 294.72265625 188.4609375 C293.84351563 187.58630859 292.964375 186.71167969 292.05859375 185.81054688 C289.90722165 183.67086702 287.75353833 181.53357153 285.59765625 179.3984375 C279.91989951 184.13232164 274.76690108 189.18983772 269.671875 194.5390625 C265.54969582 198.76133875 262.47064322 200.9293784 256.53515625 201.8984375 C250.53889259 201.13700719 245.87321021 198.24422204 240.59765625 195.3984375 C227.77896521 188.53976639 214.87735798 183.52094998 200.78515625 179.8984375 C196.10383482 178.54246853 194.2245774 176.46592831 191.59765625 172.3984375 C190.47581917 169.03292627 190.38964657 166.30783518 190.28125 162.76171875 C190.24314209 161.59165283 190.20503418 160.42158691 190.16577148 159.21606445 C190.12266846 157.72937256 190.07956543 156.24268066 190.03515625 154.7109375 C189.81859375 147.62625 189.81859375 147.62625 189.59765625 140.3984375 C177.71765625 140.3984375 165.83765625 140.3984375 153.59765625 140.3984375 Z " fill="#E8EFCF" transform="translate(146.40234375,-0.3984375)"/>
<path d="M0 0 C0.83273437 0.639375 1.66546875 1.27875 2.5234375 1.9375 C19.78529916 16.31330908 29.72521877 39.70076069 32.6875 61.4375 C34.82268506 85.81419606 29.38457971 111.88185546 14 131.4375 C12.67848651 132.96861525 11.34552062 134.48993839 10 136 C9.39800781 136.74378906 8.79601562 137.48757813 8.17578125 138.25390625 C-6.53742526 155.98995184 -29.73763281 167.06892001 -52.4140625 169.71875 C-79.2619539 171.82446697 -105.09439814 165.42533611 -125.9375 147.8046875 C-126.618125 147.20914063 -127.29875 146.61359375 -128 146 C-129.010625 145.154375 -130.02125 144.30875 -131.0625 143.4375 C-133.62818266 140.20970569 -134.07332936 138.10644432 -134 134 C-132.5625 131.0625 -132.5625 131.0625 -130 129 C-126.44622999 128.04809732 -125.36711819 127.85728773 -122 129 C-119.56202559 130.81652995 -117.31086786 132.76547895 -115.05004883 134.7956543 C-99.08343518 148.81948749 -77.8987929 154.1376359 -57 153 C-35.92680932 150.53309871 -16.734641 141.62092001 -2.69140625 125.3203125 C11.45524597 107.33283228 18.23066902 85.79986324 15.57421875 62.94140625 C12.59712086 41.50630143 1.62659247 21.92013862 -15.66748047 8.72802734 C-33.97633642 -4.14428048 -56.4573115 -9.58987173 -78.52734375 -5.7890625 C-93.62017102 -2.35964618 -106.31548404 3.76139404 -118 14 C-119.03253906 14.88945312 -119.03253906 14.88945312 -120.0859375 15.796875 C-135.77469729 30.30742754 -143.51910175 51.99483048 -144.375 73 C-144.05147233 81.98174437 -142.39119109 91.61809016 -139.3125 100.0625 C-137.7764035 104.30114062 -137.38873905 107.49195049 -138 112 C-140.0625 114.5625 -140.0625 114.5625 -143 116 C-146.98332677 116.06988293 -149.09896539 115.74657153 -152.1875 113.1875 C-158.19012437 102.63116058 -160.22309655 89.98651033 -161 78 C-161.05414063 77.2059375 -161.10828125 76.411875 -161.1640625 75.59375 C-162.064113 49.08317168 -151.31247198 24.69764626 -133.625 5.41015625 C-97.77145916 -31.84391353 -39.02114554 -32.89495887 0 0 Z " fill="#E8EFCF" transform="translate(382,245)"/>
<path d="M0 0 C10.28765053 8.15143389 17.24884655 18.2995636 21.33349609 30.77929688 C21.55908203 31.45992188 21.78466797 32.14054687 22.01708984 32.84179688 C26.28003955 48.36481372 22.86758986 64.57875183 15.34912109 78.44726562 C7.1896926 91.93562319 -5.31550315 100.73327939 -20.15869141 105.59570312 C-35.95513388 109.39855039 -53.18625496 106.79372503 -67.11181641 98.52929688 C-80.92476462 89.06721614 -90.5450033 75.76249981 -93.97900391 59.27929688 C-96.46066068 42.59969988 -93.32671824 27.11311938 -83.85009766 13.09179688 C-74.09289114 0.1610343 -61.01050746 -7.82180773 -45.10400391 -10.75195312 C-29.18343134 -12.92294029 -13.09773102 -9.59400163 0 0 Z M-69.91259766 21.28710938 C-76.43823314 30.55961593 -79.75238693 41.46940752 -78.66650391 52.77929688 C-76.22683714 65.54747987 -70.68682321 75.60882541 -60.24462891 83.64257812 C-49.92473181 90.26505986 -38.37293142 92.5859061 -26.33447266 90.08789062 C-19.23786541 88.11339804 -13.388386 85.42200277 -7.66650391 80.77929688 C-7.04130859 80.27785156 -6.41611328 79.77640625 -5.77197266 79.25976562 C2.15993032 72.1573427 6.61357258 61.55222104 7.58349609 51.08007812 C8.09824611 38.77433554 4.36707237 28.0943025 -3.66650391 18.77929688 C-12.23598611 9.67533553 -23.01104683 5.02456973 -35.41650391 4.40429688 C-48.81594861 4.73720233 -61.40527706 11.07832466 -69.91259766 21.28710938 Z " fill="#E8EFCF" transform="translate(353.66650390625,270.220703125)"/>
</svg>
